{
copyright = "Copyright (c) 2024 by Vladimir Nikolic. All rights reserved.";
designer = "Vladimir Nikolic";
designerURL = "https://www.coroflot.com/vladimirnikolic";
familyName = Technology;
customParameters = (
{
name = glyphOrder;
value = (
.notdef,
NULL,
uni000D,
space,
exclam,
quotedbl,
numbersign,
dollar,
percent,
ampersand,
quotesingle,
parenleft,
parenright,
asterisk,
plus,
comma,
hyphen,
period,
slash,
zero,
one,
two,
three,
four,
five,
six,
seven,
eight,
nine,
colon,
semicolon,
less,
equal,
greater,
question,
at,
A,
B,
C,
D,
E,
F,
G,
H,
I,
J,
K,
L,
M,
N,
O,
P,
Q,
R,
S,
T,
U,
V,
W,
X,
Y,
Z,
bracketleft,
backslash,
bracketright,
asciicircum,
underscore,
grave,
a,
b,
c,
d,
e,
f,
g,
h,
i,
j,
k,
l,
m,
n,
o,
p,
q,
r,
s,
t,
u,
v,
w,
x,
y,
z,
braceleft,
bar,
braceright,
asciitilde,
uni00A0,
exclamdown,
cent,
sterling,
currency,
yen,
brokenbar,
section,
dieresis,
copyright,
ordfeminine,
guillemotleft,
uni00AD,
registered,
macron,
degree,
plusminus,
acute,
paragraph,
periodcentered,
cedilla,
ordmasculine,
guillemotright,
questiondown,
Agrave,
Aacute,
Acircumflex,
Atilde,
Adieresis,
Aring,
AE,
Ccedilla,
Egrave,
Eacute,
Ecircumflex,
Edieresis,
Igrave,
Iacute,
Icircumflex,
Idieresis,
Eth,
Ntilde,
Ograve,
Oacute,
Ocircumflex,
Otilde,
Odieresis,
multiply,
Oslash,
Ugrave,
Uacute,
Ucircumflex,
Udieresis,
Yacute,
Thorn,
germandbls,
agrave,
aacute,
acircumflex,
atilde,
adieresis,
aring,
ae,
ccedilla,
egrave,
eacute,
ecircumflex,
edieresis,
igrave,
iacute,
icircumflex,
idieresis,
eth,
ntilde,
ograve,
oacute,
ocircumflex,
otilde,
odieresis,
divide,
oslash,
ugrave,
uacute,
ucircumflex,
udieresis,
yacute,
thorn,
ydieresis,
Amacron,
amacron,
Abreve,
abreve,
Aogonek,
aogonek,
Cacute,
cacute,
Ccircumflex,
ccircumflex,
Cdotaccent,
cdotaccent,
Ccaron,
ccaron,
Dcaron,
dcaron,
Dcroat,
dcroat,
Emacron,
emacron,
Ebreve,
ebreve,
Edotaccent,
edotaccent,
Eogonek,
eogonek,
Ecaron,
ecaron,
Gcircumflex,
gcircumflex,
Gbreve,
gbreve,
Gdotaccent,
gdotaccent,
Hcircumflex,
hcircumflex,
Hbar,
hbar,

glyphs = (
{
glyphname = exclam;
layers = (
{
layerId = "14D7FEEC-2E75-40D5-AE74-B547D0DC8BA7";
paths = (
{
nodes = (
"96 102 LINE",
"40 158 LINE",
"40 280 LINE",
"96 336 LINE",
"114 317 LINE",
"114 121 LINE"
);
},
{
nodes = (
"40 0 LINE",
"40 74 LINE",
"114 74 LINE",
"114 0 LINE"
);
},
{
nodes = (
"40 410 LINE",
"40 634 LINE",
"96 690 LINE",
"114 671 LINE",
"114 373 LINE",
"96 355 LINE"
);
}
);
width = 153;
}
);
unicode = 0021;
},
{
glyphname = numbersign;
layers = (
{
layerId = "14D7FEEC-2E75-40D5-AE74-B547D0DC8BA7";
paths = (
{
nodes = (
"55 187 LINE",
"18 224 LINE",
"55 261 LINE",
"147 261 LINE",
"185 224 LINE",
"147 187 LINE"
);
},
{
nodes = (
"55 391 LINE",
"18 428 LINE",
"55 465 LINE",
"147 465 LINE",
"185 428 LINE",
"147 391 LINE"
);
},
{
nodes = (
"195 238 LINE",
"165 271 LINE",
"167 377 LINE",
"198 412 LINE",
"242 370 LINE",
"242 285 LINE"
);
},
{
nodes = (
"204 53 LINE",
"167 91 LINE",
"167 181 LINE",
"195 210 LINE",
"242 163 LINE",
"242 91 LINE"
);
},
{
nodes = (
"246 187 LINE",
"209 224 LINE",
"246 261 LINE",
"338 261 LINE",
"376 224 LINE",
"338 187 LINE"
);
},
{
nodes = (
"246 391 LINE",
"209 428 LINE",
"246 465 LINE",
"338 465 LINE",
"376 428 LINE",
"338 391 LINE"
);
},
{
nodes = (
"387 238 LINE",
"357 271 LINE",
"359 384 LINE",
"393 412 LINE",
"434 374 LINE",
"434 285 LINE"
);
},
{
nodes = (
"396 53 LINE",
"359 91 LINE",
"359 181 LINE",
"387 210 LINE",
"434 163 LINE",
"434 91 LINE"
);
},
{
nodes = (
"402 224 LINE",
"440 261 LINE",
"532 261 LINE",
"569 224 LINE",
"532 187 LINE",
"440 187 LINE"
);
},
{
nodes = (
"195 442 LINE",
"167 471 LINE",
"167 561 LINE",
"204 599 LINE",
"242 561 LINE",
"242 489 LINE"
);
},
{
nodes = (
"387 442 LINE",
"359 471 LINE",
"359 561 LINE",
"396 599 LINE",
"434 561 LINE",
"434 489 LINE"
);
},
{
nodes = (
"402 428 LINE",
"440 465 LINE",
"532 465 LINE",
"569 428 LINE",
"532 391 LINE",
"440 391 LINE"
);
}
);
width = 592;
}
);
unicode = 0023;
},
{
glyphname = dollar;
layers = (
{
layerId = "14D7FEEC-2E75-40D5-AE74-B547D0DC8BA7";
paths = (
{
nodes = (
"38 0 LINE",
"112 75 LINE",
"318 75 LINE",
"374 19 LINE",
"355 0 LINE"
);
},
{
nodes = (
"183 99 LINE",
"183 284 LINE",
"257 284 LINE",
"257 99 LINE"
);
},
{
nodes = (
"392 38 LINE",
"336 94 LINE",
"336 280 LINE",
"392 336 LINE",
"411 318 LINE",
"411 57 LINE"
);
},
{
nodes = (
"38 373 LINE",
"38 634 LINE",
"57 653 LINE",
"113 597 LINE",
"113 410 LINE",
"57 355 LINE"
);
},
{
nodes = (
"183 407 LINE",
"183 591 LINE",
"257 591 LINE",
"257 407 LINE"
);
},
{
nodes = (
"84 345 LINE",
"122 382 LINE",
"327 382 LINE",
"365 345 LINE",
"327 308 LINE",
"122 308 LINE"
);
},
{
nodes = (
"183 714 LINE",
"183 737 LINE",
"239 793 LINE",
"257 775 LINE",
"257 714 LINE"
);
},
{
nodes = (
"75 671 LINE",
"94 690 LINE",
"411 690 LINE",
"336 615 LINE",
"131 615 LINE"
);
},
{
nodes = (
"239 -100 LINE",
"183 -44 LINE",
"183 -24 LINE",
"257 -24 LINE",
"257 -81 LINE"
);
}
);
width = 447;
}
);
unicode = 0024;
},
{
glyphname = percent;
layers = (
{
layerId = "14D7FEEC-2E75-40D5-AE74-B547D0DC8BA7";
paths = (
{
nodes = (
"591 0 LINE",
"572 19 LINE",
"628 75 LINE",
"776 75 LINE",
"831 19 LINE",
"813 0 LINE"
);
},
{
nodes = (
"82 313 LINE",
"63 332 LINE",
"119 388 LINE",
"267 388 LINE",
"322 332 LINE",
"304 313 LINE"
);
},
{
nodes = (
"214 0 LINE",
"198 77 LINE",
"363 319 LINE",
"441 335 LINE",
"446 309 LINE",
"240 4 LINE"
);
},
{
nodes = (
"535 56 LINE",
"535 322 LINE",
"554 340 LINE",
"610 285 LINE",
"610 93 LINE",
"554 38 LINE"
);
},
{
nodes = (
"794 93 LINE",
"794 285 LINE",
"850 340 LINE",
"869 322 LINE",
"869 56 LINE",
"850 38 LINE"
);
},
{
nodes = (
"26 369 LINE",
"26 635 LINE",
"45 653 LINE",
"101 598 LINE",
"101 406 LINE",
"45 351 LINE"
);
},
{
nodes = (
"119 616 LINE",
"63 672 LINE",
"82 691 LINE",
"304 691 LINE",
"322 672 LINE",
"267 616 LINE"
);
},
{
nodes = (
"285 406 LINE",
"285 598 LINE",
"341 653 LINE",
"360 635 LINE",
"360 369 LINE",
"341 351 LINE"
);
},
{
nodes = (
"451 351 LINE",
"435 428 LINE",
"594 674 LINE",
"672 690 LINE",
"677 664 LINE",
"477 355 LINE"
);
},
{
nodes = (
"628 303 LINE",
"572 359 LINE",
"591 378 LINE",
"813 378 LINE",
"831 359 LINE",
"776 303 LINE"
);
}
);
width = 892;
}
);
unicode = 0025;
},
{
glyphname = ampersand;
layers = (
{
layerId = "14D7FEEC-2E75-40D5-AE74-B547D0DC8BA7";
paths = (
{
nodes = (
"37 89 LINE",
"37 307 LINE",
"65 336 LINE",
"112 289 LINE",
"112 89 LINE",
"74 51 LINE"
);
},
{
nodes = (
"88 37 LINE",
"125 75 LINE",
"368 75 LINE",
"405 37 LINE",
"368 0 LINE",
"125 0 LINE"
);
},
{
nodes = (
"65 364 LINE",
"37 392 LINE",
"37 611 LINE",
"74 649 LINE",
"112 611 LINE",
"112 411 LINE"
);
},
{
nodes = (
"116 313 LINE",
"79 350 LINE",
"116 387 LINE",
"377 387 LINE",
"415 350 LINE",
"377 313 LINE"
);
},
{
nodes = (
"419 51 LINE",
"382 89 LINE",
"382 289 LINE",
"429 336 LINE",
"456 307 LINE",
"456 89 LINE"
);
},
{
nodes = (
"429 364 LINE",
"382 411 LINE",
"382 487 LINE",
"419 525 LINE",
"456 487 LINE",
"456 392 LINE"
);
},
{
nodes = (
"483 313 LINE",
"446 350 LINE",
"483 387 LINE",
"502 387 LINE",
"540 350 LINE",
"502 313 LINE"
);
},
{
nodes = (
"125 625 LINE",
"88 663 LINE",
"125 700 LINE",
"368 700 LINE",
"405 663 LINE",
"368 625 LINE"
);
}
);
width = 562;
}
);
unicode = 0026;
},
{
glyphname = quotesingle;
layers = (
{
layerId = "14D7FEEC-2E75-40D5-AE74-B547D0DC8BA7";
paths = (
{
nodes = (
"63 460 LINE",
"25 498 LINE",
"25 679 LINE",
"100 679 LINE",
"100 498 LINE"
);
}
);
width = 128;
}
);
unicode = 0027;
},
{
glyphname = parenleft;
layers = (
{
layerId = "14D7FEEC-2E75-40D5-AE74-B547D0DC8BA7";
paths = (
{
nodes = (
"56 -71 LINE",
"38 -52 LINE",
"38 317 LINE",
"56 335 LINE",
"112 279 LINE",
"112 -15 LINE"
);
},
{
nodes = (
"56 354 LINE",
"38 372 LINE",
"38 740 LINE",
"56 759 LINE",
"112 703 LINE",
"112 410 LINE"
);
},
{
nodes = (
"131 722 LINE",
"75 778 LINE",
"94 796 LINE",
"263 796 LINE",
"188 722 LINE"
);
},
{
nodes = (
"75 -90 LINE",
"131 -34 LINE",
"188 -34 LINE",
"263 -108 LINE",
"94 -108 LINE"
);
}
);
width = 150;
}
);
unicode = 0028;
},
{
glyphname = parenright;
layers = (
{
layerId = "14D7FEEC-2E75-40D5-AE74-B547D0DC8BA7";
paths = (
{
nodes = (
"99 -69 LINE",
"43 -13 LINE",
"43 280 LINE",
"99 336 LINE",
"117 318 LINE",
"117 -50 LINE"
);
},
{
nodes = (
"99 355 LINE",
"43 411 LINE",
"43 705 LINE",
"99 761 LINE",
"117 742 LINE",
"117 373 LINE"
);
},
{
nodes = (
"-108 798 LINE",
"61 798 LINE",
"80 780 LINE",
"24 724 LINE",
"-33 724 LINE"
);
},
{
nodes = (
"-33 -32 LINE",
"24 -32 LINE",
"80 -88 LINE",
"61 -106 LINE",
"-108 -106 LINE"
);
}
);
width = 160;
}
);
unicode = 0029;
},
{
glyphname = asterisk;
layers = (
{
layerId = "14D7FEEC-2E75-40D5-AE74-B547D0DC8BA7";
paths = (
{
nodes = (
"82 444 LINE",
"67 493 LINE",
"87 524 LINE",
"44 524 LINE",
"12 559 LINE",
"44 594 LINE",
"87 594 LINE",
"87 597 LINE",
"67 628 LINE",
"82 676 LINE",
"129 664 LINE",
"147 632 LINE",
"149 632 LINE",
"167 664 LINE",
"215 676 LINE",
"228 628 LINE",
"211 597 LINE",
"244 597 LINE",
"277 562 LINE",
"244 526 LINE",
"208 526 LINE",
"211 524 LINE",
"228 493 LINE",
"215 444 LINE",
"167 458 LINE",
"149 489 LINE",
"147 489 LINE",
"129 458 LINE"
);
}
);
width = 295;
}
);
unicode = 002A;
},
{
glyphname = plus;
layers = (
{
layerId = "14D7FEEC-2E75-40D5-AE74-B547D0DC8BA7";
paths = (
{
nodes = (
"64 313 LINE",
"27 350 LINE",
"64 387 LINE",
"156 387 LINE",
"194 350 LINE",
"156 313 LINE"
);
},
{
nodes = (
"204 364 LINE",
"176 392 LINE",
"176 500 LINE",
"213 538 LINE",
"251 500 LINE",
"251 411 LINE"
);
},
{
nodes = (
"176 217 LINE",
"176 307 LINE",
"204 336 LINE",
"251 289 LINE",
"251 217 LINE",
"213 179 LINE"
);
},
{
nodes = (
"255 313 LINE",
"218 350 LINE",
"255 387 LINE",
"347 387 LINE",
"385 350 LINE",
"347 313 LINE"
);
}
);
width = 407;
}
);
unicode = 002B;
},
{
glyphname = comma;
layers = (
{
layerId = "14D7FEEC-2E75-40D5-AE74-B547D0DC8BA7";
paths = (
{
nodes = (
"78 -92 LINE",
"40 -54 LINE",
"40 71 LINE",
"115 71 LINE",
"115 -54 LINE"
);
}
);
width = 158;
}
);
unicode = 002C;
},
{
glyphname = hyphen;
layers = (
{
layerId = "14D7FEEC-2E75-40D5-AE74-B547D0DC8BA7";
paths = (
{
nodes = (
"61 302 LINE",
"24 339 LINE",
"61 376 LINE",
"209 376 LINE",
"246 339 LINE",
"209 302 LINE"
);
}
);
width = 267;
}
);
unicode = 002D;
},
{
glyphname = period;
layers = (
{
layerId = "14D7FEEC-2E75-40D5-AE74-B547D0DC8BA7";
paths = (
{
nodes = (
"37 0 LINE",
"37 73 LINE",
"111 73 LINE",
"111 0 LINE"
);
}
);
width = 158;
}
);
unicode = 002E;
},
{
glyphname = slash;
layers = (
{
layerId = "14D7FEEC-2E75-40D5-AE74-B547D0DC8BA7";
paths = (
{
nodes = (
"54 10 LINE",
"26 84 LINE",
"137 311 LINE",
"211 339 LINE",
"220 314 LINE",
"79 18 LINE"
);
},
{
nodes = (
"219 356 LINE",
"191 430 LINE",
"301 663 LINE",
"375 690 LINE",
"384 665 LINE",
"243 365 LINE"
);
}
);
width = 413;
}
);
unicode = 002F;
},
{
glyphname = zero;
layers = (
{
layerId = "14D7FEEC-2E75-40D5-AE74-B547D0DC8BA7";
paths = (
{
nodes = (
"38 56 LINE",
"38 317 LINE",
"57 336 LINE",
"113 280 LINE",
"113 93 LINE",
"57 38 LINE"
);
},
{
nodes = (
"94 0 LINE",
"75 19 LINE",
"131 75 LINE",
"318 75 LINE",
"373 19 LINE",
"355 0 LINE"
);
},
{
nodes = (
"336 93 LINE",
"336 280 LINE",
"392 336 LINE",
"411 317 LINE",
"411 56 LINE",
"392 38 LINE"
);
},
{
nodes = (
"57 354 LINE",
"38 373 LINE",
"38 634 LINE",
"57 652 LINE",
"113 597 LINE",
"113 410 LINE"
);
},
{
nodes = (
"131 615 LINE",
"75 671 LINE",
"94 690 LINE",
"355 690 LINE",
"373 671 LINE",
"318 615 LINE"
);
},
{
nodes = (
"392 354 LINE",
"336 410 LINE",
"336 596 LINE",
"392 652 LINE",
"411 634 LINE",
"411 373 LINE"
);
}
);
width = 447;
}
);
unicode = 0030;
},
{
glyphname = one;
layers = (
{
layerId = "14D7FEEC-2E75-40D5-AE74-B547D0DC8BA7";
paths = (
{
nodes = (
"90 0 LINE",
"34 56 LINE",
"34 279 LINE",
"90 335 LINE",
"109 316 LINE",
"109 18 LINE"
);
},
{
nodes = (
"90 354 LINE",
"34 410 LINE",
"34 633 LINE",
"90 689 LINE",
"109 670 LINE",
"109 372 LINE"
);
}
);
width = 145;
}
);
unicode = 0031;
},
{
glyphname = two;
layers = (
{
layerId = "14D7FEEC-2E75-40D5-AE74-B547D0DC8BA7";
paths = (
{
nodes = (
"37 55 LINE",
"37 316 LINE",
"56 335 LINE",
"112 279 LINE",
"112 92 LINE",
"56 37 LINE"
);
},
{
nodes = (
"74 18 LINE",
"130 74 LINE",
"336 74 LINE",
"410 0 LINE",
"93 0 LINE"
);
},
{
nodes = (
"83 344 LINE",
"121 382 LINE",
"326 382 LINE",
"364 344 LINE",
"326 307 LINE",
"121 307 LINE"
);
},
{
nodes = (
"112 614 LINE",
"37 689 LINE",
"354 689 LINE",
"373 670 LINE",
"317 614 LINE"
);
},
{
nodes = (
"335 409 LINE",
"335 596 LINE",
"391 652 LINE",
"410 633 LINE",
"410 372 LINE",
"391 354 LINE"
);
}
);
width = 447;
}
);
unicode = 0032;
},
{
glyphname = three;
layers = (
{
layerId = "14D7FEEC-2E75-40D5-AE74-B547D0DC8BA7";
paths = (
{
nodes = (
"23 0 LINE",
"97 74 LINE",
"284 74 LINE",
"358 0 LINE"
);
},
{
nodes = (
"88 307 LINE",
"51 344 LINE",
"88 382 LINE",
"294 382 LINE",
"331 344 LINE",
"294 307 LINE"
);
},
{
nodes = (
"377 18 LINE",
"302 93 LINE",
"302 279 LINE",
"358 335 LINE",
"377 316 LINE"
);
},
{
nodes = (
"23 689 LINE",
"358 689 LINE",
"284 615 LINE",
"98 615 LINE"
);
},
{
nodes = (
"358 354 LINE",
"302 410 LINE",
"302 596 LINE",
"377 670 LINE",
"377 372 LINE"
);
}
);
width = 412;
}
);
unicode = 0033;
},
{
glyphname = four;
layers = (
{
layerId = "14D7FEEC-2E75-40D5-AE74-B547D0DC8BA7";
paths = (
{
nodes = (
"112 308 LINE",
"75 345 LINE",
"112 382 LINE",
"318 382 LINE",
"355 345 LINE",
"318 308 LINE"
);
},
{
nodes = (
"327 75 LINE",
"327 280 LINE",
"383 336 LINE",
"402 317 LINE",
"402 0 LINE"
);
},
{
nodes = (
"48 354 LINE",
"29 373 LINE",
"29 690 LINE",
"104 615 LINE",
"104 410 LINE"
);
},
{
nodes = (
"383 354 LINE",
"327 410 LINE",
"327 615 LINE",
"402 690 LINE",
"402 373 LINE"
);
}
);
width = 436;
}
);
unicode = 0034;
},
{
glyphname = five;
layers = (
{
layerId = "14D7FEEC-2E75-40D5-AE74-B547D0DC8BA7";
paths = (
{
nodes = (
"38 0 LINE",
"112 74 LINE",
"132 75 LINE",
"317 75 LINE",
"373 19 LINE",
"355 0 LINE"
);
},
{
nodes = (
"392 37 LINE",
"336 93 LINE",
"336 279 LINE",
"392 335 LINE",
"411 317 LINE",
"411 56 LINE"
);
},
{
nodes = (
"57 354 LINE",
"38 373 LINE",
"38 634 LINE",
"57 652 LINE",
"112 596 LINE",
"112 410 LINE"
);
},
{
nodes = (
"121 307 LINE",
"84 344 LINE",
"121 382 LINE",
"327 382 LINE",
"364 344 LINE",
"327 307 LINE"
);
},
{
nodes = (
"131 615 LINE",
"75 671 LINE",
"94 689 LINE",
"411 689 LINE",
"336 615 LINE"
);
}
);
width = 447;
}
);
unicode = 0035;
},
{
glyphname = six;
layers = (
{
layerId = "14D7FEEC-2E75-40D5-AE74-B547D0DC8BA7";
paths = (
{
nodes = (
"56 37 LINE",
"38 55 LINE",
"38 316 LINE",
"56 335 LINE",
"112 279 LINE",
"112 93 LINE"
);
},
{
nodes = (
"75 18 LINE",
"131 74 LINE",
"317 74 LINE",
"373 18 LINE",
"354 0 LINE",
"94 0 LINE"
);
},
{
nodes = (
"392 37 LINE",
"336 93 LINE",
"336 279 LINE",
"392 335 LINE",
"410 317 LINE",
"410 56 LINE"
);
},
{
nodes = (
"56 354 LINE",
"38 372 LINE",
"38 633 LINE",
"56 652 LINE",
"112 596 LINE",
"112 410 LINE"
);
},
{
nodes = (
"121 307 LINE",
"84 344 LINE",
"121 382 LINE",
"327 382 LINE",
"364 344 LINE",
"327 307 LINE"
);
},
{
nodes = (
"131 614 LINE",
"75 670 LINE",
"94 689 LINE",
"411 689 LINE",
"337 614 LINE"
);
}
);
width = 447;
}
);
unicode = 0036;
},
{
glyphname = seven;
layers = (
{
layerId = "14D7FEEC-2E75-40D5-AE74-B547D0DC8BA7";
paths = (
{
nodes = (
"299 74 LINE",
"299 279 LINE",
"355 335 LINE",
"374 316 LINE",
"374 0 LINE"
);
},
{
nodes = (
"94 615 LINE",
"20 689 LINE",
"355 689 LINE",
"281 615 LINE"
);
},
{
nodes = (
"355 354 LINE",
"299 410 LINE",
"299 596 LINE",
"374 670 LINE",
"374 372 LINE"
);
}
);
width = 412;
}
);
unicode = 0037;
},
{
glyphname = eight;
layers = (
{
layerId = "14D7FEEC-2E75-40D5-AE74-B547D0DC8BA7";
paths = (
{
nodes = (
"56 37 LINE",
"38 55 LINE",
"38 316 LINE",
"56 335 LINE",
"112 279 LINE",
"112 93 LINE"
);
},
{
nodes = (
"75 18 LINE",
"131 74 LINE",
"317 74 LINE",
"373 18 LINE",
"354 0 LINE",
"94 0 LINE"
);
},
{
nodes = (
"392 37 LINE",
"336 93 LINE",
"336 279 LINE",
"392 335 LINE",
"410 317 LINE",
"410 56 LINE"
);
},
{
nodes = (
"56 354 LINE",
"38 372 LINE",
"38 633 LINE",
"56 652 LINE",
"112 596 LINE",
"112 410 LINE"
);
},
{
nodes = (
"121 307 LINE",
"84 344 LINE",
"121 382 LINE",
"327 382 LINE",
"364 344 LINE",
"327 307 LINE"
);
},
{
nodes = (
"75 670 LINE",
"94 689 LINE",
"355 689 LINE",
"373 670 LINE",
"317 615 LINE",
"131 615 LINE"
);
},
{
nodes = (
"392 354 LINE",
"336 410 LINE",
"336 596 LINE",
"392 652 LINE",
"410 634 LINE",
"410 373 LINE"
);
}
);
width = 447;
}
);
unicode = 0038;
},
{
glyphname = nine;
layers = (
{
layerId = "14D7FEEC-2E75-40D5-AE74-B547D0DC8BA7";
paths = (
{
nodes = (
"37 0 LINE",
"111 74 LINE",
"132 75 LINE",
"317 75 LINE",
"373 19 LINE",
"354 0 LINE"
);
},
{
nodes = (
"391 37 LINE",
"335 93 LINE",
"335 280 LINE",
"391 336 LINE",
"410 317 LINE",
"410 56 LINE"
);
},
{
nodes = (
"56 354 LINE",
"37 373 LINE",
"37 634 LINE",
"56 652 LINE",
"112 597 LINE",
"112 410 LINE"
);
},
{
nodes = (
"83 345 LINE",
"121 382 LINE",
"326 382 LINE",
"364 345 LINE",
"326 308 LINE",
"121 308 LINE"
);
},
{
nodes = (
"130 615 LINE",
"74 671 LINE",
"93 690 LINE",
"354 690 LINE",
"373 671 LINE",
"317 615 LINE"
);
},
{
nodes = (
"391 354 LINE",
"335 410 LINE",
"335 596 LINE",
"391 652 LINE",
"410 634 LINE",
"410 373 LINE"
);
}
);
width = 447;
}
);
unicode = 0039;
},
{
glyphname = colon;
layers = (
{
layerId = "14D7FEEC-2E75-40D5-AE74-B547D0DC8BA7";
paths = (
{
nodes = (
"44 186 LINE",
"44 260 LINE",
"118 260 LINE",
"118 186 LINE"
);
},
{
nodes = (
"44 470 LINE",
"44 544 LINE",
"118 544 LINE",
"118 470 LINE"
);
}
);
width = 160;
}
);
unicode = 003A;
},
{
glyphname = semicolon;
layers = (
{
layerId = "14D7FEEC-2E75-40D5-AE74-B547D0DC8BA7";
paths = (
{
nodes = (
"81 99 LINE",
"43 137 LINE",
"43 262 LINE",
"118 262 LINE",
"118 137 LINE"
);
},
{
nodes = (
"44 470 LINE",
"44 544 LINE",
"118 544 LINE",
"118 470 LINE"
);
}
);
width = 160;
}
);
unicode = 003B;
},
{
glyphname = less;
layers = (
{
layerId = "14D7FEEC-2E75-40D5-AE74-B547D0DC8BA7";
paths = (
{
nodes = (
"21 359 LINE",
"100 359 LINE",
"283 202 LINE",
"285 120 LINE",
"261 119 LINE",
"22 327 LINE"
);
},
{
nodes = (
"21 377 LINE",
"22 409 LINE",
"261 617 LINE",
"285 616 LINE",
"283 534 LINE",
"100 377 LINE"
);
}
);
width = 317;
}
);
unicode = 003C;
},
{
glyphname = equal;
layers = (
{
layerId = "14D7FEEC-2E75-40D5-AE74-B547D0DC8BA7";
paths = (
{
nodes = (
"61 263 LINE",
"24 300 LINE",
"61 337 LINE",
"332 337 LINE",
"369 300 LINE",
"332 263 LINE"
);
},
{
nodes = (
"61 403 LINE",
"24 440 LINE",
"61 477 LINE",
"332 477 LINE",
"369 440 LINE",
"332 403 LINE"
);
}
);
width = 389;
}
);
unicode = 003D;
},
{
glyphname = greater;
layers = (
{
layerId = "14D7FEEC-2E75-40D5-AE74-B547D0DC8BA7";
paths = (
{
nodes = (
"21 120 LINE",
"23 202 LINE",
"206 359 LINE",
"285 359 LINE",
"284 327 LINE",
"45 119 LINE"
);
},
{
nodes = (
"23 534 LINE",
"21 616 LINE",
"45 617 LINE",
"284 409 LINE",
"285 377 LINE",
"206 377 LINE"
);
}
);
width = 317;
}
);
unicode = 003E;
},
{
glyphname = question;
layers = (
{
layerId = "14D7FEEC-2E75-40D5-AE74-B547D0DC8BA7";
paths = (
{
nodes = (
"145 102 LINE",
"127 120 LINE",
"127 317 LINE",
"145 335 LINE",
"201 279 LINE",
"201 157 LINE"
);
},
{
nodes = (
"127 0 LINE",
"127 73 LINE",
"201 73 LINE",
"201 0 LINE"
);
},
{
nodes = (
"210 307 LINE",
"173 344 LINE",
"210 382 LINE",
"292 382 LINE",
"329 344 LINE",
"292 307 LINE"
);
},
{
nodes = (
"98 615 LINE",
"24 689 LINE",
"319 689 LINE",
"338 671 LINE",
"282 615 LINE"
);
},
{
nodes = (
"357 354 LINE",
"301 410 LINE",
"301 596 LINE",
"357 652 LINE",
"375 634 LINE",
"375 373 LINE"
);
}
);
width = 414;
}
);
unicode = 003F;
},
{
glyphname = at;
layers = (
{
layerId = "14D7FEEC-2E75-40D5-AE74-B547D0DC8BA7";
paths = (
{
nodes = (
"38 56 LINE",
"38 317 LINE",
"57 336 LINE",
"113 280 LINE",
"113 93 LINE",
"57 38 LINE"
);
},
{
nodes = (
"94 0 LINE",
"75 19 LINE",
"131 75 LINE",
"550 75 LINE",
"605 19 LINE",
"587 0 LINE"
);
},
{
nodes = (
"218 169 LINE",
"218 327 LINE",
"237 346 LINE",
"293 290 LINE",
"293 206 LINE",
"237 151 LINE"
);
},
{
nodes = (
"274 113 LINE",
"255 132 LINE",
"311 188 LINE",
"659 188 LINE",
"714 132 LINE",
"696 113 LINE"
);
},
{
nodes = (
"732 136 LINE",
"676 205 LINE",
"676 280 LINE",
"732 336 LINE",
"751 317 LINE",
"751 168 LINE"
);
},
{
nodes = (
"57 354 LINE",
"38 373 LINE",
"38 634 LINE",
"57 652 LINE",
"113 597 LINE",
"113 410 LINE"
);
},
{
nodes = (
"237 364 LINE",
"218 383 LINE",
"218 527 LINE",
"237 545 LINE",
"293 490 LINE",
"293 420 LINE"
);
},
{
nodes = (
"131 615 LINE",
"75 671 LINE",
"94 690 LINE",
"695 690 LINE",
"713 671 LINE",
"658 615 LINE"
);
},
{
nodes = (
"311 508 LINE",
"255 564 LINE",
"274 583 LINE",
"539 583 LINE",
"475 508 LINE"
);
},
{
nodes = (
"549 364 LINE",
"493 420 LINE",
"493 490 LINE",
"568 574 LINE",
"568 383 LINE"
);
},
{
nodes = (
"493 206 LINE",
"493 290 LINE",
"549 346 LINE",
"568 327 LINE",
"568 204 LINE"
);
},
{
nodes = (
"732 354 LINE",
"676 410 LINE",
"676 596 LINE",
"732 652 LINE",
"751 634 LINE",
"751 373 LINE"
);
}
);
width = 785;
}
);
unicode = 0040;
},
{
glyphname = A;
layers = (
{
layerId = "14D7FEEC-2E75-40D5-AE74-B547D0DC8BA7";
paths = (
{
nodes = (
"37 0 LINE",
"37 316 LINE",
"56 335 LINE",
"111 279 LINE",
"111 74 LINE"
);
},
{
nodes = (
"335 74 LINE",
"335 279 LINE",
"391 335 LINE",
"409 316 LINE",
"409 0 LINE"
);
},
{
nodes = (
"55 354 LINE",
"37 372 LINE",
"37 670 LINE",
"111 596 LINE",
"111 409 LINE"
);
},
{
nodes = (
"120 307 LINE",
"83 344 LINE",
"120 382 LINE",
"326 382 LINE",
"363 344 LINE",
"326 307 LINE"
);
},
{
nodes = (
"130 614 LINE",
"55 689 LINE",
"391 689 LINE",
"316 614 LINE"
);
},
{
nodes = (
"335 409 LINE",
"335 596 LINE",
"409 670 LINE",
"409 372 LINE",
"391 354 LINE"
);
}
);
width = 447;
}
);
unicode = 0041;
},
{
glyphname = B;
layers = (
{
layerId = "14D7FEEC-2E75-40D5-AE74-B547D0DC8BA7";
paths = (
{
nodes = (
"131 614 LINE",
"112 633 OFFCURVE",
"75 669 OFFCURVE",
"57 689 QCURVE",
"355 689 LINE",
"373 670 LINE",
"318 614 LINE"
);
},
{
nodes = (
"38 372 LINE",
"38 670 LINE",
"113 596 LINE",
"113 410 LINE",
"57 354 LINE"
);
},
{
nodes = (
"336 409 LINE",
"336 596 LINE",
"392 652 LINE",
"411 633 LINE",
"411 372 LINE",
"392 354 LINE"
);
},
{
nodes = (
"84 344 LINE",
"122 382 LINE",
"327 382 LINE",
"365 344 LINE",
"327 307 LINE",
"122 307 LINE"
);
},
{
nodes = (
"38 18 LINE",
"38 316 LINE",
"57 335 LINE",
"113 279 LINE",
"113 93 LINE"
);
},
{
nodes = (
"392 37 LINE",
"336 93 LINE",
"336 279 LINE",
"392 335 LINE",
"411 317 LINE",
"411 56 LINE"
);
},
{
nodes = (
"57 0 LINE",
"131 74 LINE",
"318 74 LINE",
"373 18 LINE",
"355 0 LINE"
);
}
);
width = 447;
}
);
unicode = 0042;
},
{
glyphname = C;
layers = (
{
layerId = "14D7FEEC-2E75-40D5-AE74-B547D0DC8BA7";
paths = (
{
nodes = (
"55 37 LINE",
"37 55 LINE",
"37 316 LINE",
"55 335 LINE",
"111 279 LINE",
"111 93 LINE"
);
},
{
nodes = (
"74 18 LINE",
"130 74 LINE",
"316 74 LINE",
"391 0 LINE",
"93 0 LINE"
);
},
{
nodes = (
"55 354 LINE",
"37 372 LINE",
"37 633 LINE",
"55 652 LINE",
"111 596 LINE",
"111 410 LINE"
);
},
{
nodes = (
"130 615 LINE",
"74 671 LINE",
"93 689 LINE",
"391 689 LINE",
"316 615 LINE"
);
}
);
width = 405;
}
);
unicode = 0043;
},
{
glyphname = D;
layers = (
{
layerId = "14D7FEEC-2E75-40D5-AE74-B547D0DC8BA7";
paths = (
{
nodes = (
"37 19 LINE",
"37 317 LINE",
"56 335 LINE",
"112 279 LINE",
"112 93 LINE"
);
},
{
nodes = (
"56 0 LINE",
"130 74 LINE",
"317 74 LINE",
"372 18 LINE",
"354 0 LINE"
);
},
{
nodes = (
"391 37 LINE",
"335 93 LINE",
"335 279 LINE",
"391 335 LINE",
"410 317 LINE",
"410 56 LINE"
);
},
{
nodes = (
"56 354 LINE",
"37 373 LINE",
"37 671 LINE",
"112 596 LINE",
"112 410 LINE"
);
},
{
nodes = (
"130 615 LINE",
"56 689 LINE",
"354 689 LINE",
"372 671 LINE",
"317 615 LINE"
);
},
{
nodes = (
"391 354 LINE",
"335 410 LINE",
"335 596 LINE",
"391 652 LINE",
"410 634 LINE",
"410 373 LINE"
);
}
);
width = 447;
}
);
unicode = 0044;
},
{
glyphname = E;
layers = (
{
layerId = "14D7FEEC-2E75-40D5-AE74-B547D0DC8BA7";
paths = (
{
nodes = (
"38 19 LINE",
"38 317 LINE",
"57 336 LINE",
"112 280 LINE",
"112 94 LINE"
);
},
{
nodes = (
"57 0 LINE",
"131 75 LINE",
"317 75 LINE",
"392 0 LINE"
);
},
{
nodes = (
"57 354 LINE",
"38 373 LINE",
"38 671 LINE",
"112 597 LINE",
"112 410 LINE"
);
},
{
nodes = (
"121 308 LINE",
"84 345 LINE",
"121 382 LINE",
"327 382 LINE",
"364 345 LINE",
"327 308 LINE"
);
},
{
nodes = (
"131 615 LINE",
"57 690 LINE",
"392 690 LINE",
"317 615 LINE"
);
}
);
width = 412;
}
);
unicode = 0045;
},
{
glyphname = F;
layers = (
{
layerId = "14D7FEEC-2E75-40D5-AE74-B547D0DC8BA7";
paths = (
{
nodes = (
"36 0 LINE",
"36 316 LINE",
"55 335 LINE",
"110 279 LINE",
"110 74 LINE"
);
},
{
nodes = (
"36 372 LINE",
"36 670 LINE",
"110 596 LINE",
"110 409 LINE",
"55 354 LINE"
);
},
{
nodes = (
"119 307 LINE",
"82 344 LINE",
"119 382 LINE",
"325 382 LINE",
"362 344 LINE",
"325 307 LINE"
);
},
{
nodes = (
"129 614 LINE",
"55 689 LINE",
"390 689 LINE",
"315 614 LINE"
);
}
);
width = 404;
}
);
unicode = 0046;
},
{
glyphname = G;
layers = (
{
layerId = "14D7FEEC-2E75-40D5-AE74-B547D0DC8BA7";
paths = (
{
nodes = (
"57 37 LINE",
"38 56 LINE",
"38 317 LINE",
"57 335 LINE",
"112 279 LINE",
"112 93 LINE"
);
},
{
nodes = (
"94 0 LINE",
"75 19 LINE",
"131 74 LINE",
"317 74 LINE",
"373 19 LINE",
"355 0 LINE"
);
},
{
nodes = (
"392 37 LINE",
"336 93 LINE",
"336 279 LINE",
"392 335 LINE",
"411 317 LINE",
"411 56 LINE"
);
},
{
nodes = (
"57 354 LINE",
"38 373 LINE",
"38 634 LINE",
"57 652 LINE",
"112 596 LINE",
"112 410 LINE"
);
},
{
nodes = (
"209 307 LINE",
"172 345 LINE",
"209 382 LINE",
"327 382 LINE",
"364 345 LINE",
"327 307 LINE"
);
},
{
nodes = (
"131 615 LINE",
"75 671 LINE",
"94 689 LINE",
"413 689 LINE",
"338 615 LINE"
);
}
);
width = 447;
}
);
unicode = 0047;
},
{
glyphname = H;
layers = (
{
layerId = "14D7FEEC-2E75-40D5-AE74-B547D0DC8BA7";
paths = (
{
nodes = (
"39 0 LINE",
"39 317 LINE",
"57 336 LINE",
"113 280 LINE",
"113 75 LINE"
);
},
{
nodes = (
"337 75 LINE",
"337 280 LINE",
"393 336 LINE",
"411 317 LINE",
"411 0 LINE"
);
},
{
nodes = (
"57 354 LINE",
"39 373 LINE",
"39 690 LINE",
"113 615 LINE",
"113 410 LINE"
);
},
{
nodes = (
"122 308 LINE",
"85 345 LINE",
"122 382 LINE",
"328 382 LINE",
"365 345 LINE",
"328 308 LINE"
);
},
{
nodes = (
"393 354 LINE",
"337 410 LINE",
"337 615 LINE",
"411 690 LINE",
"411 373 LINE"
);
}
);
width = 447;
}
);
unicode = 0048;
},
{
glyphname = I;
layers = (
{
layerId = "14D7FEEC-2E75-40D5-AE74-B547D0DC8BA7";
paths = (
{
nodes = (
"90 0 LINE",
"34 56 LINE",
"34 279 LINE",
"90 335 LINE",
"109 316 LINE",
"109 18 LINE"
);
},
{
nodes = (
"90 354 LINE",
"34 410 LINE",
"34 633 LINE",
"90 689 LINE",
"109 670 LINE",
"109 372 LINE"
);
}
);
width = 145;
}
);
unicode = 0049;
},
{
glyphname = J;
layers = (
{
layerId = "14D7FEEC-2E75-40D5-AE74-B547D0DC8BA7";
paths = (
{
nodes = (
"38 19 LINE",
"38 273 LINE",
"112 199 LINE",
"112 93 LINE"
);
},
{
nodes = (
"56 0 LINE",
"131 75 LINE",
"317 75 LINE",
"392 0 LINE"
);
},
{
nodes = (
"336 93 LINE",
"336 279 LINE",
"392 335 LINE",
"410 317 LINE",
"410 19 LINE"
);
},
{
nodes = (
"392 354 LINE",
"336 410 LINE",
"336 615 LINE",
"410 689 LINE",
"410 373 LINE"
);
}
);
width = 447;
}
);
unicode = 004A;
},
{
glyphname = K;
layers = (
{
layerId = "14D7FEEC-2E75-40D5-AE74-B547D0DC8BA7";
paths = (
{
nodes = (
"38 0 LINE",
"38 316 LINE",
"57 335 LINE",
"112 279 LINE",
"112 74 LINE"
);
},
{
nodes = (
"410 0 LINE",
"336 74 LINE",
"336 279 LINE",
"392 335 LINE",
"410 316 LINE"
);
},
{
nodes = (
"56 354 LINE",
"38 372 LINE",
"38 689 LINE",
"112 614 LINE",
"112 409 LINE"
);
},
{
nodes = (
"121 307 LINE",
"84 344 LINE",
"121 382 LINE",
"327 382 LINE",
"364 344 LINE",
"327 307 LINE"
);
},
{
nodes = (
"138 408 LINE",
"138 470 LINE",
"358 689 LINE",
"410 689 LINE",
"410 636 LINE",
"182 408 LINE"
);
}
);
width = 447;
}
);
unicode = 004B;
},
{
glyphname = L;
layers = (
{
layerId = "14D7FEEC-2E75-40D5-AE74-B547D0DC8BA7";
paths = (
{
nodes = (
"38 19 LINE",
"38 317 LINE",
"57 336 LINE",
"112 280 LINE",
"112 94 LINE"
);
},
{
nodes = (
"57 0 LINE",
"131 75 LINE",
"317 75 LINE",
"392 0 LINE"
);
},
{
nodes = (
"57 354 LINE",
"38 373 LINE",
"38 690 LINE",
"112 615 LINE",
"112 410 LINE"
);
}
);
width = 408;
}
);
unicode = 004C;
},
{
glyphname = M;
layers = (
{
layerId = "14D7FEEC-2E75-40D5-AE74-B547D0DC8BA7";
paths = (
{
nodes = (
"34 0 LINE",
"34 317 LINE",
"53 336 LINE",
"109 280 LINE",
"109 75 LINE"
);
},
{
nodes = (
"388 75 LINE",
"388 280 LINE",
"444 336 LINE",
"463 317 LINE",
"463 0 LINE"
);
},
{
nodes = (
"53 354 LINE",
"34 373 LINE",
"34 671 LINE",
"109 596 LINE",
"109 410 LINE"
);
},
{
nodes = (
"246 336 LINE",
"209 373 LINE",
"209 589 LINE",
"284 589 LINE",
"284 373 LINE"
);
},
{
nodes = (
"128 615 LINE",
"53 690 LINE",
"444 690 LINE",
"370 615 LINE"
);
},
{
nodes = (
"444 354 LINE",
"388 410 LINE",
"388 596 LINE",
"463 671 LINE",
"463 373 LINE"
);
}
);
width = 498;
}
);
unicode = 004D;
},
{
glyphname = N;
layers = (
{
layerId = "14D7FEEC-2E75-40D5-AE74-B547D0DC8BA7";
paths = (
{
nodes = (
"57 0 LINE",
"39 18 LINE",
"39 316 LINE",
"57 335 LINE",
"113 279 LINE",
"113 56 LINE"
);
},
{
nodes = (
"393 0 LINE",
"337 56 LINE",
"337 279 LINE",
"393 335 LINE",
"411 316 LINE",
"411 18 LINE"
);
},
{
nodes = (
"57 354 LINE",
"39 372 LINE",
"39 670 LINE",
"57 689 LINE",
"113 633 LINE",
"113 410 LINE"
);
},
{
nodes = (
"139 553 LINE",
"139 633 LINE",
"165 633 LINE",
"311 487 LINE",
"311 410 LINE",
"283 410 LINE"
);
},
{
nodes = (
"393 354 LINE",
"337 410 LINE",
"337 633 LINE",
"393 689 LINE",
"411 670 LINE",
"411 372 LINE"
);
}
);
width = 447;
}
);
unicode = 004E;
},
{
glyphname = O;
layers = (
{
layerId = "14D7FEEC-2E75-40D5-AE74-B547D0DC8BA7";
paths = (
{
nodes = (
"38 56 LINE",
"38 317 LINE",
"57 336 LINE",
"113 280 LINE",
"113 93 LINE",
"57 38 LINE"
);
},
{
nodes = (
"94 0 LINE",
"75 19 LINE",
"131 75 LINE",
"318 75 LINE",
"373 19 LINE",
"355 0 LINE"
);
},
{
nodes = (
"336 93 LINE",
"336 280 LINE",
"392 336 LINE",
"411 317 LINE",
"411 56 LINE",
"392 38 LINE"
);
},
{
nodes = (
"57 354 LINE",
"38 373 LINE",
"38 634 LINE",
"57 652 LINE",
"113 597 LINE",
"113 410 LINE"
);
},
{
nodes = (
"131 615 LINE",
"75 671 LINE",
"94 690 LINE",
"355 690 LINE",
"373 671 LINE",
"318 615 LINE"
);
},
{
nodes = (
"392 354 LINE",
"336 410 LINE",
"336 596 LINE",
"392 652 LINE",
"411 634 LINE",
"411 373 LINE"
);
}
);
width = 447;
}
);
unicode = 004F;
},
{
glyphname = P;
layers = (
{
layerId = "14D7FEEC-2E75-40D5-AE74-B547D0DC8BA7";
paths = (
{
nodes = (
"130 615 LINE",
"129 616 OFFCURVE",
"128 617 QCURVE",
"127 618 LINE",
"126 619 OFFCURVE",
"125 619 QCURVE",
"124 621 LINE",
"122 622 OFFCURVE",
"121 624 QCURVE",
"119 625 LINE",
"119 626 OFFCURVE",
"118 627 QCURVE",
"117 628 LINE",
"115 629 OFFCURVE",
"113 631 QCURVE",
"112 632 LINE",
"111 633 OFFCURVE",
"110 634 QCURVE",
"109 635 LINE",
"107 637 OFFCURVE",
"105 638 QCURVE",
"104 639 LINE",
"103 640 OFFCURVE",
"103 641 QCURVE",
"101 642 LINE",
"100 644 OFFCURVE",
"98 645 QCURVE",
"97 647 LINE",
"96 647 OFFCURVE",
"95 648 QCURVE",
"94 649 LINE",
"93 650 OFFCURVE",
"92 651 QCURVE",
"73 669 OFFCURVE",
"56 689 QCURVE",
"354 689 LINE",
"373 670 LINE",
"317 615 LINE"
);
},
{
nodes = (
"37 372 LINE",
"37 670 LINE",
"112 596 LINE",
"112 410 LINE",
"56 354 LINE"
);
},
{
nodes = (
"391 354 LINE",
"335 410 LINE",
"335 596 LINE",
"391 652 LINE",
"410 634 LINE",
"410 373 LINE"
);
},
{
nodes = (
"83 344 LINE",
"121 382 LINE",
"326 382 LINE",
"364 344 LINE",
"326 307 LINE",
"121 307 LINE"
);
},
{
nodes = (
"37 0 LINE",
"37 316 LINE",
"56 335 LINE",
"112 279 LINE",
"112 74 LINE"
);
}
);
width = 437;
}
);
unicode = 0050;
},
{
glyphname = Q;
layers = (
{
layerId = "14D7FEEC-2E75-40D5-AE74-B547D0DC8BA7";
paths = (
{
nodes = (
"58 38 LINE",
"40 56 LINE",
"40 317 LINE",
"58 336 LINE",
"114 280 LINE",
"114 94 LINE"
);
},
{
nodes = (
"95 0 LINE",
"77 19 LINE",
"133 75 LINE",
"251 75 LINE",
"325 0 LINE"
);
},
{
nodes = (
"360 0 LINE",
"249 111 LINE",
"249 173 LINE",
"293 173 LINE",
"412 53 LINE",
"412 0 LINE"
);
},
{
nodes = (
"338 162 LINE",
"338 280 LINE",
"393 336 LINE",
"412 317 LINE",
"412 87 LINE"
);
},
{
nodes = (
"58 354 LINE",
"40 373 LINE",
"40 634 LINE",
"58 653 LINE",
"114 597 LINE",
"114 410 LINE"
);
},
{
nodes = (
"133 615 LINE",
"77 671 LINE",
"96 690 LINE",
"357 690 LINE",
"375 671 LINE",
"320 615 LINE"
);
},
{
nodes = (
"393 354 LINE",
"338 410 LINE",
"338 597 LINE",
"393 653 LINE",
"412 634 LINE",
"412 373 LINE"
);
}
);
width = 447;
}
);
unicode = 0051;
},
{
glyphname = R;
layers = (
{
layerId = "14D7FEEC-2E75-40D5-AE74-B547D0DC8BA7";
paths = (
{
nodes = (
"39 0 LINE",
"39 317 LINE",
"57 336 LINE",
"113 280 LINE",
"113 75 LINE"
);
},
{
nodes = (
"358 0 LINE",
"139 220 LINE",
"139 282 LINE",
"183 282 LINE",
"411 53 LINE",
"411 0 LINE"
);
},
{
nodes = (
"57 354 LINE",
"39 373 LINE",
"39 671 LINE",
"113 596 LINE",
"113 410 LINE"
);
},
{
nodes = (
"122 308 LINE",
"85 345 LINE",
"122 382 LINE",
"328 382 LINE",
"365 345 LINE",
"328 308 LINE"
);
},
{
nodes = (
"132 615 LINE",
"57 690 LINE",
"355 690 LINE",
"374 671 LINE",
"318 615 LINE"
);
},
{
nodes = (
"393 354 LINE",
"337 410 LINE",
"337 596 LINE",
"393 652 LINE",
"411 634 LINE",
"411 373 LINE"
);
}
);
width = 447;
}
);
unicode = 0052;
},
{
glyphname = S;
layers = (
{
layerId = "14D7FEEC-2E75-40D5-AE74-B547D0DC8BA7";
paths = (
{
nodes = (
"38 0 LINE",
"112 74 LINE",
"132 75 LINE",
"317 75 LINE",
"373 19 LINE",
"355 0 LINE"
);
},
{
nodes = (
"392 37 LINE",
"336 93 LINE",
"336 279 LINE",
"392 335 LINE",
"411 317 LINE",
"411 56 LINE"
);
},
{
nodes = (
"57 354 LINE",
"38 373 LINE",
"38 634 LINE",
"57 652 LINE",
"112 596 LINE",
"112 410 LINE"
);
},
{
nodes = (
"121 307 LINE",
"84 344 LINE",
"121 382 LINE",
"327 382 LINE",
"364 344 LINE",
"327 307 LINE"
);
},
{
nodes = (
"131 615 LINE",
"75 671 LINE",
"94 689 LINE",
"411 689 LINE",
"336 615 LINE"
);
}
);
width = 447;
}
);
unicode = 0053;
},
{
glyphname = T;
layers = (
{
layerId = "14D7FEEC-2E75-40D5-AE74-B547D0DC8BA7";
paths = (
{
nodes = (
"236 0 LINE",
"180 56 LINE",
"180 279 LINE",
"236 335 LINE",
"255 316 LINE",
"255 18 LINE"
);
},
{
nodes = (
"236 354 LINE",
"180 410 LINE",
"180 591 LINE",
"255 591 LINE",
"255 373 LINE"
);
},
{
nodes = (
"74 615 LINE",
"18 671 LINE",
"36 689 LINE",
"399 689 LINE",
"418 671 LINE",
"362 615 LINE"
);
}
);
width = 435;
}
);
unicode = 0054;
},
{
glyphname = U;
layers = (
{
layerId = "14D7FEEC-2E75-40D5-AE74-B547D0DC8BA7";
paths = (
{
nodes = (
"36 19 LINE",
"36 317 LINE",
"55 335 LINE",
"111 279 LINE",
"111 93 LINE"
);
},
{
nodes = (
"55 0 LINE",
"129 74 LINE",
"316 74 LINE",
"390 0 LINE"
);
},
{
nodes = (
"334 93 LINE",
"334 279 LINE",
"390 335 LINE",
"409 317 LINE",
"409 19 LINE"
);
},
{
nodes = (
"55 354 LINE",
"36 373 LINE",
"36 689 LINE",
"111 615 LINE",
"111 410 LINE"
);
},
{
nodes = (
"390 354 LINE",
"334 410 LINE",
"334 615 LINE",
"409 689 LINE",
"409 373 LINE"
);
}
);
width = 447;
}
);
unicode = 0055;
},
{
glyphname = V;
layers = (
{
layerId = "14D7FEEC-2E75-40D5-AE74-B547D0DC8BA7";
paths = (
{
nodes = (
"54 354 LINE",
"36 373 LINE",
"36 690 LINE",
"110 615 LINE",
"110 410 LINE"
);
},
{
nodes = (
"390 354 LINE",
"334 410 LINE",
"334 615 LINE",
"408 690 LINE",
"408 373 LINE"
);
},
{
nodes = (
"187 0 LINE",
"41 314 LINE",
"50 339 LINE",
"124 312 LINE",
"128 303 OFFCURVE",
"156 246 OFFCURVE",
"186 182 OFFCURVE",
"210 130 OFFCURVE",
"210 127 QCURVE SMOOTH",
"210 0 LINE"
);
},
{
nodes = (
"234 0 LINE",
"234 127 LINE SMOOTH",
"234 130 OFFCURVE",
"258 182 OFFCURVE",
"288 246 OFFCURVE",
"316 303 OFFCURVE",
"320 312 QCURVE",
"395 339 LINE",
"404 314 LINE",
"366 236 OFFCURVE",
"293 79 OFFCURVE",
"257 0 QCURVE"
);
}
);
width = 439;
}
);
unicode = 0056;
},
{
glyphname = W;
layers = (
{
layerId = "14D7FEEC-2E75-40D5-AE74-B547D0DC8BA7";
paths = (
{
nodes = (
"35 19 LINE",
"35 317 LINE",
"54 336 LINE",
"110 280 LINE",
"110 94 LINE"
);
},
{
nodes = (
"54 0 LINE",
"129 75 LINE",
"371 75 LINE",
"445 0 LINE"
);
},
{
nodes = (
"215 101 LINE",
"215 317 LINE",
"252 354 LINE",
"289 317 LINE",
"289 101 LINE"
);
},
{
nodes = (
"464 19 LINE",
"389 94 LINE",
"389 280 LINE",
"445 336 LINE",
"464 317 LINE"
);
},
{
nodes = (
"54 354 LINE",
"35 373 LINE",
"35 690 LINE",
"110 615 LINE",
"110 410 LINE"
);
},
{
nodes = (
"445 354 LINE",
"389 410 LINE",
"389 615 LINE",
"464 690 LINE",
"464 373 LINE"
);
}
);
width = 498;
}
);
unicode = 0057;
},
{
glyphname = X;
layers = (
{
layerId = "14D7FEEC-2E75-40D5-AE74-B547D0DC8BA7";
paths = (
{
nodes = (
"159 357 LINE",
"30 665 LINE",
"40 689 LINE",
"100 689 LINE",
"102 683 OFFCURVE",
"119 645 OFFCURVE",
"141 593 OFFCURVE",
"165 536 OFFCURVE",
"185 488 OFFCURVE",
"198 456 OFFCURVE",
"198 456 QCURVE",
"198 357 LINE"
);
},
{
nodes = (
"222 357 LINE",
"222 456 LINE",
"222 456 OFFCURVE",
"235 488 OFFCURVE",
"255 536 OFFCURVE",
"279 593 OFFCURVE",
"301 645 OFFCURVE",
"318 683 OFFCURVE",
"320 689 QCURVE",
"380 689 LINE",
"390 665 LINE",
"261 357 LINE"
);
},
{
nodes = (
"40 0 LINE",
"30 24 LINE",
"159 333 LINE",
"198 333 LINE",
"198 233 LINE",
"198 232 OFFCURVE",
"185 201 OFFCURVE",
"165 153 OFFCURVE",
"141 96 OFFCURVE",
"119 44 OFFCURVE",
"103 6 OFFCURVE",
"100 0 QCURVE"
);
},
{
nodes = (
"320 0 LINE",
"317 6 OFFCURVE",
"301 44 OFFCURVE",
"279 96 OFFCURVE",
"255 153 OFFCURVE",
"235 201 OFFCURVE",
"222 232 OFFCURVE",
"222 233 QCURVE",
"222 333 LINE",
"261 333 LINE",
"390 24 LINE",
"380 0 LINE"
);
}
);
width = 416;
}
);
unicode = 0058;
},
{
glyphname = Y;
layers = (
{
layerId = "14D7FEEC-2E75-40D5-AE74-B547D0DC8BA7";
paths = (
{
nodes = (
"37 0 LINE",
"112 74 LINE",
"317 74 LINE",
"373 18 LINE",
"354 0 LINE"
);
},
{
nodes = (
"391 37 LINE",
"335 93 LINE",
"335 279 LINE",
"391 335 LINE",
"410 317 LINE",
"410 56 LINE"
);
},
{
nodes = (
"55 354 LINE",
"37 372 LINE",
"37 689 LINE",
"111 614 LINE",
"111 409 LINE"
);
},
{
nodes = (
"120 307 LINE",
"83 344 LINE",
"120 382 LINE",
"326 382 LINE",
"363 344 LINE",
"326 307 LINE"
);
},
{
nodes = (
"391 354 LINE",
"335 410 LINE",
"335 615 LINE",
"410 689 LINE",
"410 373 LINE"
);
}
);
width = 447;
}
);
unicode = 0059;
},
{
glyphname = Z;
layers = (
{
layerId = "14D7FEEC-2E75-40D5-AE74-B547D0DC8BA7";
paths = (
{
nodes = (
"81 615 LINE",
"25 671 LINE",
"44 689 LINE",
"362 689 LINE",
"393 658 LINE",
"373 615 LINE"
);
},
{
nodes = (
"190 356 LINE",
"182 375 LINE",
"280 590 LINE",
"362 590 LINE",
"356 576 OFFCURVE",
"331 517 OFFCURVE",
"304 454 OFFCURVE",
"278 401 OFFCURVE",
"271 392 QCURVE",
"270 391 OFFCURVE",
"256 381 OFFCURVE",
"239 369 OFFCURVE",
"224 358 OFFCURVE",
"221 356 QCURVE"
);
},
{
nodes = (
"56 99 LINE",
"154 314 LINE",
"186 333 LINE",
"209 333 LINE",
"226 292 LINE",
"138 99 LINE"
);
},
{
nodes = (
"55 0 LINE",
"25 30 LINE",
"45 74 LINE",
"337 74 LINE",
"393 18 LINE",
"374 0 LINE"
);
}
);
width = 422;
}
);
unicode = 005A;
},
{
glyphname = bracketleft;
layers = (
{
layerId = "14D7FEEC-2E75-40D5-AE74-B547D0DC8BA7";
paths = (
{
nodes = (
"130 763 LINE",
"129 764 OFFCURVE",
"128 765 QCURVE",
"127 766 LINE",
"126 767 OFFCURVE",
"125 767 QCURVE",
"124 769 LINE",
"122 770 OFFCURVE",
"121 772 QCURVE",
"119 773 LINE",
"119 774 OFFCURVE",
"118 775 QCURVE",
"117 776 LINE",
"115 777 OFFCURVE",
"113 779 QCURVE",
"112 780 LINE",
"111 781 OFFCURVE",
"110 782 QCURVE",
"109 783 LINE",
"108 784 OFFCURVE",
"107 785 QCURVE",
"106 786 LINE",
"106 786 OFFCURVE",
"105 786 QCURVE",
"104 787 LINE",
"103 788 OFFCURVE",
"103 789 QCURVE",
"101 790 LINE",
"100 792 OFFCURVE",
"98 793 QCURVE",
"97 795 LINE",
"96 795 OFFCURVE",
"95 796 QCURVE",
"94 797 LINE",
"93 798 OFFCURVE",
"92 799 QCURVE",
"73 817 OFFCURVE",
"56 837 QCURVE",
"308 837 LINE",
"252 763 LINE"
);
},
{
nodes = (
"37 372 LINE",
"37 818 LINE",
"112 744 LINE",
"112 410 LINE",
"56 354 LINE"
);
},
{
nodes = (
"37 -126 LINE",
"37 318 LINE",
"56 336 LINE",
"112 280 LINE",
"112 -52 LINE"
);
},
{
nodes = (
"56 -145 LINE",
"73 -125 OFFCURVE",
"92 -107 QCURVE",
"93 -106 OFFCURVE",
"94 -105 QCURVE",
"95 -104 LINE",
"96 -103 OFFCURVE",
"97 -103 QCURVE",
"98 -101 LINE",
"100 -100 OFFCURVE",
"101 -98 QCURVE",
"103 -97 LINE",
"103 -96 OFFCURVE",
"104 -95 QCURVE",
"105 -94 LINE",
"107 -93 OFFCURVE",
"109 -91 QCURVE",
"110 -90 LINE",
"111 -89 OFFCURVE",
"112 -88 QCURVE",
"113 -87 LINE",
"114 -86 OFFCURVE",
"115 -85 QCURVE",
"116 -84 LINE",
"116 -84 OFFCURVE",
"117 -84 QCURVE",
"118 -83 LINE",
"119 -82 OFFCURVE",
"119 -81 QCURVE",
"121 -80 LINE",
"122 -78 OFFCURVE",
"124 -77 QCURVE",
"125 -75 LINE",
"126 -75 OFFCURVE",
"127 -74 QCURVE",
"128 -73 LINE",
"129 -72 OFFCURVE",
"130 -71 QCURVE",
"252 -71 LINE",
"308 -145 LINE"
);
}
);
width = 333;
}
);
unicode = 005B;
},
{
glyphname = backslash;
layers = (
{
layerId = "14D7FEEC-2E75-40D5-AE74-B547D0DC8BA7";
paths = (
{
nodes = (
"331 18 LINE",
"190 314 LINE",
"199 339 LINE",
"273 311 LINE",
"384 84 LINE",
"356 10 LINE"
);
},
{
nodes = (
"167 365 LINE",
"26 665 LINE",
"35 690 LINE",
"109 663 LINE",
"219 430 LINE",
"191 356 LINE"
);
}
);
width = 413;
}
);
unicode = 005C;
},
{
glyphname = bracketright;
layers = (
{
layerId = "14D7FEEC-2E75-40D5-AE74-B547D0DC8BA7";
paths = (
{
nodes = (
"93 763 LINE",
"37 837 LINE",
"289 837 LINE",
"272 817 OFFCURVE",
"253 799 QCURVE",
"252 798 OFFCURVE",
"251 797 QCURVE",
"250 796 LINE",
"249 795 OFFCURVE",
"248 795 QCURVE",
"247 793 LINE",
"247 793 OFFCURVE",
"247 793 QCURVE",
"245 792 LINE",
"245 791 OFFCURVE",
"244 790 QCURVE",
"242 789 LINE",
"242 788 OFFCURVE",
"241 787 QCURVE",
"240 786 LINE",
"238 785 OFFCURVE",
"236 783 QCURVE",
"235 782 LINE",
"234 781 OFFCURVE",
"233 780 QCURVE",
"232 779 LINE",
"232 779 OFFCURVE",
"231 779 QCURVE",
"230 777 LINE",
"229 777 OFFCURVE",
"228 776 QCURVE",
"227 775 LINE",
"226 774 OFFCURVE",
"226 773 QCURVE",
"224 772 LINE",
"224 772 OFFCURVE",
"224 771 QCURVE",
"223 770 LINE",
"222 769 OFFCURVE",
"221 769 QCURVE",
"220 767 LINE",
"219 767 OFFCURVE",
"218 766 QCURVE",
"215 763 LINE"
);
},
{
nodes = (
"289 354 LINE",
"233 410 LINE",
"233 744 LINE",
"308 818 LINE",
"308 372 LINE"
);
},
{
nodes = (
"233 -52 LINE",
"233 280 LINE",
"289 336 LINE",
"308 318 LINE",
"308 -126 LINE"
);
},
{
nodes = (
"37 -145 LINE",
"93 -71 LINE",
"215 -71 LINE",
"216 -72 LINE",
"216 -72 OFFCURVE",
"217 -73 QCURVE",
"218 -74 LINE",
"219 -75 OFFCURVE",
"220 -75 QCURVE",
"221 -77 LINE",
"222 -77 OFFCURVE",
"223 -78 QCURVE",
"224 -79 LINE",
"224 -80 OFFCURVE",
"224 -80 QCURVE",
"226 -81 LINE",
"226 -82 OFFCURVE",
"227 -83 QCURVE",
"228 -84 LINE",
"229 -85 OFFCURVE",
"230 -85 QCURVE",
"231 -87 LINE",
"232 -87 OFFCURVE",
"232 -87 QCURVE",
"233 -88 LINE",
"234 -89 OFFCURVE",
"235 -90 QCURVE",
"236 -91 LINE",
"237 -92 OFFCURVE",
"238 -93 QCURVE",
"239 -94 LINE",
"239 -94 OFFCURVE",
"240 -94 QCURVE",
"241 -95 LINE",
"242 -96 OFFCURVE",
"242 -97 QCURVE",
"244 -98 LINE",
"245 -99 OFFCURVE",
"245 -100 QCURVE",
"247 -101 LINE",
"247 -101 OFFCURVE",
"247 -101 QCURVE",
"248 -103 LINE",
"249 -103 OFFCURVE",
"250 -104 QCURVE",
"251 -105 LINE",
"252 -106 OFFCURVE",
"253 -107 QCURVE",
"272 -125 OFFCURVE",
"289 -145 QCURVE"
);
}
);
width = 333;
}
);
unicode = 005D;
},
{
glyphname = asciicircum;
layers = (
{
layerId = "14D7FEEC-2E75-40D5-AE74-B547D0DC8BA7";
paths = (
{
nodes = (
"20 409 LINE",
"19 433 LINE",
"227 672 LINE",
"259 672 LINE",
"259 594 LINE",
"102 411 LINE"
);
},
{
nodes = (
"434 411 LINE",
"277 594 LINE",
"277 673 LINE",
"309 672 LINE",
"517 433 LINE",
"516 409 LINE"
);
}
);
width = 533;
}
);
unicode = 005E;
},
{
glyphname = underscore;
layers = (
{
layerId = "14D7FEEC-2E75-40D5-AE74-B547D0DC8BA7";
paths = (
{
nodes = (
"59 -87 LINE",
"22 -50 LINE",
"59 -13 LINE",
"412 -13 LINE",
"449 -50 LINE",
"412 -87 LINE"
);
}
);
width = 467;
}
);
unicode = 005F;
},
{
glyphname = grave;
layers = (
{
layerId = "14D7FEEC-2E75-40D5-AE74-B547D0DC8BA7";
paths = (
{
nodes = (
"30 795 LINE",
"28 851 LINE",
"79 851 LINE",
"165 749 LINE",
"132 723 LINE"
);
}
);
width = 188;
}
);
unicode = 0060;
},
{
glyphname = a;
layers = (
{
layerId = "14D7FEEC-2E75-40D5-AE74-B547D0DC8BA7";
paths = (
{
nodes = (
"37 0 LINE",
"37 316 LINE",
"56 335 LINE",
"111 279 LINE",
"111 74 LINE"
);
},
{
nodes = (
"335 74 LINE",
"335 279 LINE",
"391 335 LINE",
"409 316 LINE",
"409 0 LINE"
);
},
{
nodes = (
"55 354 LINE",
"37 372 LINE",
"37 670 LINE",
"111 596 LINE",
"111 409 LINE"
);
},
{
nodes = (
"120 307 LINE",
"83 344 LINE",
"120 382 LINE",
"326 382 LINE",
"363 344 LINE",
"326 307 LINE"
);
},
{
nodes = (
"130 614 LINE",
"55 689 LINE",
"391 689 LINE",
"316 614 LINE"
);
},
{
nodes = (
"335 409 LINE",
"335 596 LINE",
"409 670 LINE",
"409 372 LINE",
"391 354 LINE"
);
}
);
width = 447;
}
);
unicode = 0061;
},
{
glyphname = b;
layers = (
{
layerId = "14D7FEEC-2E75-40D5-AE74-B547D0DC8BA7";
paths = (
{
nodes = (
"131 614 LINE",
"112 633 OFFCURVE",
"75 669 OFFCURVE",
"57 689 QCURVE",
"355 689 LINE",
"373 670 LINE",
"318 614 LINE"
);
},
{
nodes = (
"38 372 LINE",
"38 670 LINE",
"113 596 LINE",
"113 410 LINE",
"57 354 LINE"
);
},
{
nodes = (
"336 409 LINE",
"336 596 LINE",
"392 652 LINE",
"411 633 LINE",
"411 372 LINE",
"392 354 LINE"
);
},
{
nodes = (
"84 344 LINE",
"122 382 LINE",
"327 382 LINE",
"365 344 LINE",
"327 307 LINE",
"122 307 LINE"
);
},
{
nodes = (
"38 18 LINE",
"38 316 LINE",
"57 335 LINE",
"113 279 LINE",
"113 93 LINE"
);
},
{
nodes = (
"392 37 LINE",
"336 93 LINE",
"336 279 LINE",
"392 335 LINE",
"411 317 LINE",
"411 56 LINE"
);
},
{
nodes = (
"57 0 LINE",
"131 74 LINE",
"318 74 LINE",
"373 18 LINE",
"355 0 LINE"
);
}
);
width = 447;
}
);
unicode = 0062;
},
{
glyphname = c;
layers = (
{
layerId = "14D7FEEC-2E75-40D5-AE74-B547D0DC8BA7";
paths = (
{
nodes = (
"55 37 LINE",
"37 55 LINE",
"37 316 LINE",
"55 335 LINE",
"111 279 LINE",
"111 93 LINE"
);
},
{
nodes = (
"74 18 LINE",
"130 74 LINE",
"316 74 LINE",
"391 0 LINE",
"93 0 LINE"
);
},
{
nodes = (
"55 354 LINE",
"37 372 LINE",
"37 633 LINE",
"55 652 LINE",
"111 596 LINE",
"111 410 LINE"
);
},
{
nodes = (
"130 615 LINE",
"74 671 LINE",
"93 689 LINE",
"391 689 LINE",
"316 615 LINE"
);
}
);
width = 405;
}
);
unicode = 0063;
},
{
glyphname = d;
layers = (
{
layerId = "14D7FEEC-2E75-40D5-AE74-B547D0DC8BA7";
paths = (
{
nodes = (
"37 19 LINE",
"37 317 LINE",
"56 335 LINE",
"112 279 LINE",
"112 93 LINE"
);
},
{
nodes = (
"56 0 LINE",
"130 74 LINE",
"317 74 LINE",
"372 18 LINE",
"354 0 LINE"
);
},
{
nodes = (
"391 37 LINE",
"335 93 LINE",
"335 279 LINE",
"391 335 LINE",
"410 317 LINE",
"410 56 LINE"
);
},
{
nodes = (
"56 354 LINE",
"37 373 LINE",
"37 671 LINE",
"112 596 LINE",
"112 410 LINE"
);
},
{
nodes = (
"130 615 LINE",
"56 689 LINE",
"354 689 LINE",
"372 671 LINE",
"317 615 LINE"
);
},
{
nodes = (
"391 354 LINE",
"335 410 LINE",
"335 596 LINE",
"391 652 LINE",
"410 634 LINE",
"410 373 LINE"
);
}
);
width = 447;
}
);
unicode = 0064;
},
{
glyphname = e;
layers = (
{
layerId = "14D7FEEC-2E75-40D5-AE74-B547D0DC8BA7";
paths = (
{
nodes = (
"38 19 LINE",
"38 317 LINE",
"57 336 LINE",
"112 280 LINE",
"112 94 LINE"
);
},
{
nodes = (
"57 0 LINE",
"131 75 LINE",
"317 75 LINE",
"392 0 LINE"
);
},
{
nodes = (
"57 354 LINE",
"38 373 LINE",
"38 671 LINE",
"112 597 LINE",
"112 410 LINE"
);
},
{
nodes = (
"121 308 LINE",
"84 345 LINE",
"121 382 LINE",
"327 382 LINE",
"364 345 LINE",
"327 308 LINE"
);
},
{
nodes = (
"131 615 LINE",
"57 690 LINE",
"392 690 LINE",
"317 615 LINE"
);
}
);
width = 412;
}
);
unicode = 0065;
},
{
glyphname = f;
layers = (
{
layerId = "14D7FEEC-2E75-40D5-AE74-B547D0DC8BA7";
paths = (
{
nodes = (
"36 0 LINE",
"36 316 LINE",
"55 335 LINE",
"110 279 LINE",
"110 74 LINE"
);
},
{
nodes = (
"36 372 LINE",
"36 670 LINE",
"110 596 LINE",
"110 409 LINE",
"55 354 LINE"
);
},
{
nodes = (
"119 307 LINE",
"82 344 LINE",
"119 382 LINE",
"325 382 LINE",
"362 344 LINE",
"325 307 LINE"
);
},
{
nodes = (
"129 614 LINE",
"55 689 LINE",
"390 689 LINE",
"315 614 LINE"
);
}
);
width = 404;
}
);
unicode = 0066;
},
{
glyphname = g;
layers = (
{
layerId = "14D7FEEC-2E75-40D5-AE74-B547D0DC8BA7";
paths = (
{
nodes = (
"57 37 LINE",
"38 56 LINE",
"38 317 LINE",
"57 335 LINE",
"112 279 LINE",
"112 93 LINE"
);
},
{
nodes = (
"94 0 LINE",
"75 19 LINE",
"131 74 LINE",
"317 74 LINE",
"373 19 LINE",
"355 0 LINE"
);
},
{
nodes = (
"392 37 LINE",
"336 93 LINE",
"336 279 LINE",
"392 335 LINE",
"411 317 LINE",
"411 56 LINE"
);
},
{
nodes = (
"57 354 LINE",
"38 373 LINE",
"38 634 LINE",
"57 652 LINE",
"112 596 LINE",
"112 410 LINE"
);
},
{
nodes = (
"209 307 LINE",
"172 345 LINE",
"209 382 LINE",
"327 382 LINE",
"364 345 LINE",
"327 307 LINE"
);
},
{
nodes = (
"131 615 LINE",
"75 671 LINE",
"94 689 LINE",
"413 689 LINE",
"338 615 LINE"
);
}
);
width = 447;
}
);
unicode = 0067;
},
{
glyphname = h;
layers = (
{
layerId = "14D7FEEC-2E75-40D5-AE74-B547D0DC8BA7";
paths = (
{
nodes = (
"39 0 LINE",
"39 317 LINE",
"57 336 LINE",
"113 280 LINE",
"113 75 LINE"
);
},
{
nodes = (
"337 75 LINE",
"337 280 LINE",
"393 336 LINE",
"411 317 LINE",
"411 0 LINE"
);
},
{
nodes = (
"57 354 LINE",
"39 373 LINE",
"39 690 LINE",
"113 615 LINE",
"113 410 LINE"
);
},
{
nodes = (
"122 308 LINE",
"85 345 LINE",
"122 382 LINE",
"328 382 LINE",
"365 345 LINE",
"328 308 LINE"
);
},
{
nodes = (
"393 354 LINE",
"337 410 LINE",
"337 615 LINE",
"411 690 LINE",
"411 373 LINE"
);
}
);
width = 447;
}
);
unicode = 0068;
},
{
glyphname = i;
layers = (
{
layerId = "14D7FEEC-2E75-40D5-AE74-B547D0DC8BA7";
paths = (
{
nodes = (
"90 0 LINE",
"34 56 LINE",
"34 279 LINE",
"90 335 LINE",
"109 316 LINE",
"109 18 LINE"
);
},
{
nodes = (
"90 354 LINE",
"34 410 LINE",
"34 633 LINE",
"90 689 LINE",
"109 670 LINE",
"109 372 LINE"
);
}
);
width = 145;
}
);
unicode = 0069;
},
{
glyphname = j;
layers = (
{
layerId = "14D7FEEC-2E75-40D5-AE74-B547D0DC8BA7";
paths = (
{
nodes = (
"38 19 LINE",
"38 273 LINE",
"112 199 LINE",
"112 93 LINE"
);
},
{
nodes = (
"56 0 LINE",
"131 75 LINE",
"317 75 LINE",
"392 0 LINE"
);
},
{
nodes = (
"336 93 LINE",
"336 279 LINE",
"392 335 LINE",
"410 317 LINE",
"410 19 LINE"
);
},
{
nodes = (
"392 354 LINE",
"336 410 LINE",
"336 615 LINE",
"410 689 LINE",
"410 373 LINE"
);
}
);
width = 447;
}
);
unicode = 006A;
},
{
glyphname = k;
layers = (
{
layerId = "14D7FEEC-2E75-40D5-AE74-B547D0DC8BA7";
paths = (
{
nodes = (
"38 0 LINE",
"38 316 LINE",
"57 335 LINE",
"112 279 LINE",
"112 74 LINE"
);
},
{
nodes = (
"410 0 LINE",
"336 74 LINE",
"336 279 LINE",
"392 335 LINE",
"410 316 LINE"
);
},
{
nodes = (
"56 354 LINE",
"38 372 LINE",
"38 689 LINE",
"112 614 LINE",
"112 409 LINE"
);
},
{
nodes = (
"121 307 LINE",
"84 344 LINE",
"121 382 LINE",
"327 382 LINE",
"364 344 LINE",
"327 307 LINE"
);
},
{
nodes = (
"138 408 LINE",
"138 470 LINE",
"358 689 LINE",
"410 689 LINE",
"410 636 LINE",
"182 408 LINE"
);
}
);
width = 447;
}
);
unicode = 006B;
},
{
glyphname = l;
layers = (
{
layerId = "14D7FEEC-2E75-40D5-AE74-B547D0DC8BA7";
paths = (
{
nodes = (
"38 19 LINE",
"38 317 LINE",
"57 336 LINE",
"112 280 LINE",
"112 94 LINE"
);
},
{
nodes = (
"57 0 LINE",
"131 75 LINE",
"317 75 LINE",
"392 0 LINE"
);
},
{
nodes = (
"57 354 LINE",
"38 373 LINE",
"38 690 LINE",
"112 615 LINE",
"112 410 LINE"
);
}
);
width = 408;
}
);
unicode = 006C;
},
{
glyphname = m;
layers = (
{
layerId = "14D7FEEC-2E75-40D5-AE74-B547D0DC8BA7";
paths = (
{
nodes = (
"34 0 LINE",
"34 317 LINE",
"53 336 LINE",
"109 280 LINE",
"109 75 LINE"
);
},
{
nodes = (
"388 75 LINE",
"388 280 LINE",
"444 336 LINE",
"463 317 LINE",
"463 0 LINE"
);
},
{
nodes = (
"53 354 LINE",
"34 373 LINE",
"34 671 LINE",
"109 596 LINE",
"109 410 LINE"
);
},
{
nodes = (
"246 336 LINE",
"209 373 LINE",
"209 589 LINE",
"284 589 LINE",
"284 373 LINE"
);
},
{
nodes = (
"128 615 LINE",
"53 690 LINE",
"444 690 LINE",
"370 615 LINE"
);
},
{
nodes = (
"444 354 LINE",
"388 410 LINE",
"388 596 LINE",
"463 671 LINE",
"463 373 LINE"
);
}
);
width = 498;
}
);
unicode = 006D;
},
{
glyphname = n;
layers = (
{
layerId = "14D7FEEC-2E75-40D5-AE74-B547D0DC8BA7";
paths = (
{
nodes = (
"57 0 LINE",
"39 18 LINE",
"39 316 LINE",
"57 335 LINE",
"113 279 LINE",
"113 56 LINE"
);
},
{
nodes = (
"393 0 LINE",
"337 56 LINE",
"337 279 LINE",
"393 335 LINE",
"411 316 LINE",
"411 18 LINE"
);
},
{
nodes = (
"57 354 LINE",
"39 372 LINE",
"39 670 LINE",
"57 689 LINE",
"113 633 LINE",
"113 410 LINE"
);
},
{
nodes = (
"139 553 LINE",
"139 633 LINE",
"165 633 LINE",
"311 487 LINE",
"311 410 LINE",
"283 410 LINE"
);
},
{
nodes = (
"393 354 LINE",
"337 410 LINE",
"337 633 LINE",
"393 689 LINE",
"411 670 LINE",
"411 372 LINE"
);
}
);
width = 447;
}
);
unicode = 006E;
},
{
glyphname = o;
layers = (
{
layerId = "14D7FEEC-2E75-40D5-AE74-B547D0DC8BA7";
paths = (
{
nodes = (
"38 56 LINE",
"38 317 LINE",
"57 336 LINE",
"113 280 LINE",
"113 93 LINE",
"57 38 LINE"
);
},
{
nodes = (
"94 0 LINE",
"75 19 LINE",
"131 75 LINE",
"318 75 LINE",
"373 19 LINE",
"355 0 LINE"
);
},
{
nodes = (
"336 93 LINE",
"336 280 LINE",
"392 336 LINE",
"411 317 LINE",
"411 56 LINE",
"392 38 LINE"
);
},
{
nodes = (
"57 354 LINE",
"38 373 LINE",
"38 634 LINE",
"57 652 LINE",
"113 597 LINE",
"113 410 LINE"
);
},
{
nodes = (
"131 615 LINE",
"75 671 LINE",
"94 690 LINE",
"355 690 LINE",
"373 671 LINE",
"318 615 LINE"
);
},
{
nodes = (
"392 354 LINE",
"336 410 LINE",
"336 596 LINE",
"392 652 LINE",
"411 634 LINE",
"411 373 LINE"
);
}
);
width = 447;
}
);
unicode = 006F;
},
{
glyphname = p;
layers = (
{
layerId = "14D7FEEC-2E75-40D5-AE74-B547D0DC8BA7";
paths = (
{
nodes = (
"130 615 LINE",
"129 616 OFFCURVE",
"128 617 QCURVE",
"127 618 LINE",
"126 619 OFFCURVE",
"125 619 QCURVE",
"124 621 LINE",
"122 622 OFFCURVE",
"121 624 QCURVE",
"119 625 LINE",
"119 626 OFFCURVE",
"118 627 QCURVE",
"117 628 LINE",
"115 629 OFFCURVE",
"113 631 QCURVE",
"112 632 LINE",
"111 633 OFFCURVE",
"110 634 QCURVE",
"109 635 LINE",
"107 637 OFFCURVE",
"105 638 QCURVE",
"104 639 LINE",
"103 640 OFFCURVE",
"103 641 QCURVE",
"101 642 LINE",
"100 644 OFFCURVE",
"98 645 QCURVE",
"97 647 LINE",
"96 647 OFFCURVE",
"95 648 QCURVE",
"94 649 LINE",
"93 650 OFFCURVE",
"92 651 QCURVE",
"73 669 OFFCURVE",
"56 689 QCURVE",
"354 689 LINE",
"373 670 LINE",
"317 615 LINE"
);
},
{
nodes = (
"37 372 LINE",
"37 670 LINE",
"112 596 LINE",
"112 410 LINE",
"56 354 LINE"
);
},
{
nodes = (
"391 354 LINE",
"335 410 LINE",
"335 596 LINE",
"391 652 LINE",
"410 634 LINE",
"410 373 LINE"
);
},
{
nodes = (
"83 344 LINE",
"121 382 LINE",
"326 382 LINE",
"364 344 LINE",
"326 307 LINE",
"121 307 LINE"
);
},
{
nodes = (
"37 0 LINE",
"37 316 LINE",
"56 335 LINE",
"112 279 LINE",
"112 74 LINE"
);
}
);
width = 437;
}
);
unicode = 0070;
},
{
glyphname = q;
layers = (
{
layerId = "14D7FEEC-2E75-40D5-AE74-B547D0DC8BA7";
paths = (
{
nodes = (
"58 38 LINE",
"40 56 LINE",
"40 317 LINE",
"58 336 LINE",
"114 280 LINE",
"114 94 LINE"
);
},
{
nodes = (
"95 0 LINE",
"77 19 LINE",
"133 75 LINE",
"251 75 LINE",
"325 0 LINE"
);
},
{
nodes = (
"360 0 LINE",
"249 111 LINE",
"249 173 LINE",
"293 173 LINE",
"412 53 LINE",
"412 0 LINE"
);
},
{
nodes = (
"338 162 LINE",
"338 280 LINE",
"393 336 LINE",
"412 317 LINE",
"412 87 LINE"
);
},
{
nodes = (
"58 354 LINE",
"40 373 LINE",
"40 634 LINE",
"58 653 LINE",
"114 597 LINE",
"114 410 LINE"
);
},
{
nodes = (
"133 615 LINE",
"77 671 LINE",
"96 690 LINE",
"357 690 LINE",
"375 671 LINE",
"320 615 LINE"
);
},
{
nodes = (
"393 354 LINE",
"338 410 LINE",
"338 597 LINE",
"393 653 LINE",
"412 634 LINE",
"412 373 LINE"
);
}
);
width = 447;
}
);
unicode = 0071;
},
{
glyphname = r;
layers = (
{
layerId = "14D7FEEC-2E75-40D5-AE74-B547D0DC8BA7";
paths = (
{
nodes = (
"39 0 LINE",
"39 317 LINE",
"57 336 LINE",
"113 280 LINE",
"113 75 LINE"
);
},
{
nodes = (
"358 0 LINE",
"139 220 LINE",
"139 282 LINE",
"183 282 LINE",
"411 53 LINE",
"411 0 LINE"
);
},
{
nodes = (
"57 354 LINE",
"39 373 LINE",
"39 671 LINE",
"113 596 LINE",
"113 410 LINE"
);
},
{
nodes = (
"122 308 LINE",
"85 345 LINE",
"122 382 LINE",
"328 382 LINE",
"365 345 LINE",
"328 308 LINE"
);
},
{
nodes = (
"132 615 LINE",
"57 690 LINE",
"355 690 LINE",
"374 671 LINE",
"318 615 LINE"
);
},
{
nodes = (
"393 354 LINE",
"337 410 LINE",
"337 596 LINE",
"393 652 LINE",
"411 634 LINE",
"411 373 LINE"
);
}
);
width = 447;
}
);
unicode = 0072;
},
{
glyphname = s;
layers = (
{
layerId = "14D7FEEC-2E75-40D5-AE74-B547D0DC8BA7";
paths = (
{
nodes = (
"38 0 LINE",
"112 74 LINE",
"132 75 LINE",
"317 75 LINE",
"373 19 LINE",
"355 0 LINE"
);
},
{
nodes = (
"392 37 LINE",
"336 93 LINE",
"336 279 LINE",
"392 335 LINE",
"411 317 LINE",
"411 56 LINE"
);
},
{
nodes = (
"57 354 LINE",
"38 373 LINE",
"38 634 LINE",
"57 652 LINE",
"112 596 LINE",
"112 410 LINE"
);
},
{
nodes = (
"121 307 LINE",
"84 344 LINE",
"121 382 LINE",
"327 382 LINE",
"364 344 LINE",
"327 307 LINE"
);
},
{
nodes = (
"131 615 LINE",
"75 671 LINE",
"94 689 LINE",
"411 689 LINE",
"336 615 LINE"
);
}
);
width = 447;
}
);
unicode = 0073;
},
{
glyphname = t;
layers = (
{
layerId = "14D7FEEC-2E75-40D5-AE74-B547D0DC8BA7";
paths = (
{
nodes = (
"236 0 LINE",
"180 56 LINE",
"180 279 LINE",
"236 335 LINE",
"255 316 LINE",
"255 18 LINE"
);
},
{
nodes = (
"236 354 LINE",
"180 410 LINE",
"180 591 LINE",
"255 591 LINE",
"255 373 LINE"
);
},
{
nodes = (
"74 615 LINE",
"18 671 LINE",
"36 689 LINE",
"399 689 LINE",
"418 671 LINE",
"362 615 LINE"
);
}
);
width = 435;
}
);
unicode = 0074;
},
{
glyphname = u;
layers = (
{
layerId = "14D7FEEC-2E75-40D5-AE74-B547D0DC8BA7";
paths = (
{
nodes = (
"36 19 LINE",
"36 317 LINE",
"55 335 LINE",
"111 279 LINE",
"111 93 LINE"
);
},
{
nodes = (
"55 0 LINE",
"129 74 LINE",
"316 74 LINE",
"390 0 LINE"
);
},
{
nodes = (
"334 93 LINE",
"334 279 LINE",
"390 335 LINE",
"409 317 LINE",
"409 19 LINE"
);
},
{
nodes = (
"55 354 LINE",
"36 373 LINE",
"36 689 LINE",
"111 615 LINE",
"111 410 LINE"
);
},
{
nodes = (
"390 354 LINE",
"334 410 LINE",
"334 615 LINE",
"409 689 LINE",
"409 373 LINE"
);
}
);
width = 447;
}
);
unicode = 0075;
},
{
glyphname = v;
layers = (
{
layerId = "14D7FEEC-2E75-40D5-AE74-B547D0DC8BA7";
paths = (
{
nodes = (
"54 354 LINE",
"36 373 LINE",
"36 690 LINE",
"110 615 LINE",
"110 410 LINE"
);
},
{
nodes = (
"390 354 LINE",
"334 410 LINE",
"334 615 LINE",
"408 690 LINE",
"408 373 LINE"
);
},
{
nodes = (
"187 0 LINE",
"41 314 LINE",
"50 339 LINE",
"124 312 LINE",
"128 303 OFFCURVE",
"156 246 OFFCURVE",
"186 182 OFFCURVE",
"210 130 OFFCURVE",
"210 127 QCURVE SMOOTH",
"210 0 LINE"
);
},
{
nodes = (
"234 0 LINE",
"234 127 LINE SMOOTH",
"234 130 OFFCURVE",
"258 182 OFFCURVE",
"288 246 OFFCURVE",
"316 303 OFFCURVE",
"320 312 QCURVE",
"395 339 LINE",
"404 314 LINE",
"366 236 OFFCURVE",
"293 79 OFFCURVE",
"257 0 QCURVE"
);
}
);
width = 439;
}
);
unicode = 0076;
},
{
glyphname = w;
layers = (
{
layerId = "14D7FEEC-2E75-40D5-AE74-B547D0DC8BA7";
paths = (
{
nodes = (
"35 19 LINE",
"35 317 LINE",
"54 336 LINE",
"110 280 LINE",
"110 94 LINE"
);
},
{
nodes = (
"54 0 LINE",
"129 75 LINE",
"371 75 LINE",
"445 0 LINE"
);
},
{
nodes = (
"215 101 LINE",
"215 317 LINE",
"252 354 LINE",
"289 317 LINE",
"289 101 LINE"
);
},
{
nodes = (
"464 19 LINE",
"389 94 LINE",
"389 280 LINE",
"445 336 LINE",
"464 317 LINE"
);
},
{
nodes = (
"54 354 LINE",
"35 373 LINE",
"35 690 LINE",
"110 615 LINE",
"110 410 LINE"
);
},
{
nodes = (
"445 354 LINE",
"389 410 LINE",
"389 615 LINE",
"464 690 LINE",
"464 373 LINE"
);
}
);
width = 498;
}
);
unicode = 0077;
},
{
glyphname = x;
layers = (
{
layerId = "14D7FEEC-2E75-40D5-AE74-B547D0DC8BA7";
paths = (
{
nodes = (
"159 357 LINE",
"30 665 LINE",
"40 689 LINE",
"100 689 LINE",
"102 683 OFFCURVE",
"119 645 OFFCURVE",
"141 593 OFFCURVE",
"165 536 OFFCURVE",
"185 488 OFFCURVE",
"198 456 OFFCURVE",
"198 456 QCURVE",
"198 357 LINE"
);
},
{
nodes = (
"222 357 LINE",
"222 456 LINE",
"222 456 OFFCURVE",
"235 488 OFFCURVE",
"255 536 OFFCURVE",
"279 593 OFFCURVE",
"301 645 OFFCURVE",
"318 683 OFFCURVE",
"320 689 QCURVE",
"380 689 LINE",
"390 665 LINE",
"261 357 LINE"
);
},
{
nodes = (
"40 0 LINE",
"30 24 LINE",
"159 333 LINE",
"198 333 LINE",
"198 233 LINE",
"198 232 OFFCURVE",
"185 201 OFFCURVE",
"165 153 OFFCURVE",
"141 96 OFFCURVE",
"119 44 OFFCURVE",
"103 6 OFFCURVE",
"100 0 QCURVE"
);
},
{
nodes = (
"320 0 LINE",
"317 6 OFFCURVE",
"301 44 OFFCURVE",
"279 96 OFFCURVE",
"255 153 OFFCURVE",
"235 201 OFFCURVE",
"222 232 OFFCURVE",
"222 233 QCURVE",
"222 333 LINE",
"261 333 LINE",
"390 24 LINE",
"380 0 LINE"
);
}
);
width = 416;
}
);
unicode = 0078;
},
{
glyphname = y;
layers = (
{
layerId = "14D7FEEC-2E75-40D5-AE74-B547D0DC8BA7";
paths = (
{
nodes = (
"37 0 LINE",
"112 74 LINE",
"317 74 LINE",
"373 18 LINE",
"354 0 LINE"
);
},
{
nodes = (
"391 37 LINE",
"335 93 LINE",
"335 279 LINE",
"391 335 LINE",
"410 317 LINE",
"410 56 LINE"
);
},
{
nodes = (
"55 354 LINE",
"37 372 LINE",
"37 689 LINE",
"111 614 LINE",
"111 409 LINE"
);
},
{
nodes = (
"120 307 LINE",
"83 344 LINE",
"120 382 LINE",
"326 382 LINE",
"363 344 LINE",
"326 307 LINE"
);
},
{
nodes = (
"391 354 LINE",
"335 410 LINE",
"335 615 LINE",
"410 689 LINE",
"410 373 LINE"
);
}
);
width = 447;
}
);
unicode = 0079;
},
{
glyphname = z;
layers = (
{
layerId = "14D7FEEC-2E75-40D5-AE74-B547D0DC8BA7";
paths = (
{
nodes = (
"81 615 LINE",
"25 671 LINE",
"44 689 LINE",
"362 689 LINE",
"393 658 LINE",
"373 615 LINE"
);
},
{
nodes = (
"190 356 LINE",
"182 375 LINE",
"280 590 LINE",
"362 590 LINE",
"356 576 OFFCURVE",
"331 517 OFFCURVE",
"304 454 OFFCURVE",
"278 401 OFFCURVE",
"271 392 QCURVE",
"270 391 OFFCURVE",
"256 381 OFFCURVE",
"239 369 OFFCURVE",
"224 358 OFFCURVE",
"221 356 QCURVE"
);
},
{
nodes = (
"56 99 LINE",
"154 314 LINE",
"186 333 LINE",
"209 333 LINE",
"226 292 LINE",
"138 99 LINE"
);
},
{
nodes = (
"55 0 LINE",
"25 30 LINE",
"45 74 LINE",
"337 74 LINE",
"393 18 LINE",
"374 0 LINE"
);
}
);
width = 422;
}
);
unicode = 007A;
},
{
glyphname = braceleft;
layers = (
{
layerId = "14D7FEEC-2E75-40D5-AE74-B547D0DC8BA7";
paths = (
{
nodes = (
"156 -56 LINE",
"156 293 LINE",
"191 336 LINE",
"231 299 LINE",
"231 -19 LINE",
"175 -74 LINE"
);
},
{
nodes = (
"65 302 LINE",
"28 339 LINE",
"65 376 LINE",
"138 376 LINE",
"175 339 LINE",
"138 302 LINE"
);
},
{
nodes = (
"191 354 LINE",
"156 391 LINE",
"156 739 LINE",
"175 757 LINE",
"231 702 LINE",
"231 400 LINE"
);
},
{
nodes = (
"249 720 LINE",
"193 776 LINE",
"212 795 LINE",
"398 795 LINE",
"416 776 LINE",
"361 720 LINE"
);
},
{
nodes = (
"212 -112 LINE",
"193 -93 LINE",
"249 -37 LINE",
"361 -37 LINE",
"416 -93 LINE",
"398 -112 LINE"
);
}
);
width = 353;
}
);
unicode = 007B;
},
{
glyphname = bar;
layers = (
{
layerId = "14D7FEEC-2E75-40D5-AE74-B547D0DC8BA7";
paths = (
{
nodes = (
"34 -126 LINE",
"34 294 LINE",
"73 338 LINE",
"109 298 LINE",
"109 -128 LINE",
"73 -164 LINE"
);
},
{
nodes = (
"34 391 LINE",
"34 812 LINE",
"73 856 LINE",
"109 816 LINE",
"109 389 LINE",
"73 353 LINE"
);
}
);
width = 145;
}
);
unicode = 007C;
},
{
glyphname = braceright;
layers = (
{
layerId = "14D7FEEC-2E75-40D5-AE74-B547D0DC8BA7";
paths = (
{
nodes = (
"130 -19 LINE",
"130 299 LINE",
"170 336 LINE",
"205 293 LINE",
"205 -56 LINE",
"186 -74 LINE"
);
},
{
nodes = (
"223 302 LINE",
"186 339 LINE",
"223 376 LINE",
"296 376 LINE",
"333 339 LINE",
"296 302 LINE"
);
},
{
nodes = (
"170 354 LINE",
"130 400 LINE",
"130 702 LINE",
"186 757 LINE",
"205 739 LINE",
"205 391 LINE"
);
},
{
nodes = (
"0 720 LINE",
"-55 776 LINE",
"-37 795 LINE",
"149 795 LINE",
"168 776 LINE",
"112 720 LINE"
);
},
{
nodes = (
"-37 -112 LINE",
"-55 -93 LINE",
"0 -37 LINE",
"112 -37 LINE",
"168 -93 LINE",
"149 -112 LINE"
);
}
);
width = 353;
}
);
unicode = 007D;
},
{
glyphname = asciitilde;
layers = (
{
layerId = "14D7FEEC-2E75-40D5-AE74-B547D0DC8BA7";
paths = (
{
nodes = (
"13 296 LINE",
"119 417 LINE",
"187 417 LINE",
"236 362 LINE",
"317 417 LINE",
"359 386 LINE",
"252 265 LINE",
"153 332 LINE",
"54 265 LINE"
);
}
);
width = 372;
}
);
unicode = 007E;
},
{
glyphname = exclamdown;
layers = (
{
layerId = "14D7FEEC-2E75-40D5-AE74-B547D0DC8BA7";
paths = (
{
nodes = (
"96 0 LINE",
"40 56 LINE",
"40 279 LINE",
"96 335 LINE",
"114 316 LINE",
"114 18 LINE"
);
},
{
nodes = (
"96 354 LINE",
"40 410 LINE",
"40 532 LINE",
"96 588 LINE",
"114 569 LINE",
"114 373 LINE"
);
},
{
nodes = (
"40 616 LINE",
"40 690 LINE",
"114 690 LINE",
"114 616 LINE"
);
}
);
width = 153;
}
);
unicode = 00A1;
},
{
glyphname = cent;
layers = (
{
layerId = "14D7FEEC-2E75-40D5-AE74-B547D0DC8BA7";
paths = (
{
nodes = (
"55 37 LINE",
"37 55 LINE",
"37 316 LINE",
"55 335 LINE",
"111 279 LINE",
"111 93 LINE"
);
},
{
nodes = (
"177 95 LINE",
"177 294 LINE",
"216 338 LINE",
"252 298 LINE",
"252 95 LINE"
);
},
{
nodes = (
"74 18 LINE",
"130 74 LINE",
"316 74 LINE",
"391 0 LINE",
"93 0 LINE"
);
},
{
nodes = (
"55 354 LINE",
"37 372 LINE",
"37 633 LINE",
"55 652 LINE",
"111 596 LINE",
"111 410 LINE"
);
},
{
nodes = (
"177 391 LINE",
"177 594 LINE",
"252 594 LINE",
"252 389 LINE",
"216 353 LINE"
);
},
{
nodes = (
"177 709 LINE",
"177 812 LINE",
"216 856 LINE",
"252 816 LINE",
"252 709 LINE"
);
},
{
nodes = (
"130 615 LINE",
"74 671 LINE",
"93 689 LINE",
"391 689 LINE",
"316 615 LINE"
);
},
{
nodes = (
"177 -126 LINE",
"177 -20 LINE",
"252 -20 LINE",
"252 -128 LINE",
"216 -164 LINE"
);
}
);
width = 405;
}
);
unicode = 00A2;
},
{
glyphname = sterling;
layers = (
{
layerId = "14D7FEEC-2E75-40D5-AE74-B547D0DC8BA7";
paths = (
{
nodes = (
"38 19 LINE",
"38 317 LINE",
"57 336 LINE",
"112 280 LINE",
"112 94 LINE"
);
},
{
nodes = (
"57 0 LINE",
"131 75 LINE",
"317 75 LINE",
"392 0 LINE"
);
},
{
nodes = (
"57 354 LINE",
"38 373 LINE",
"38 690 LINE",
"112 615 LINE",
"112 410 LINE"
);
},
{
nodes = (
"130 489 LINE",
"130 563 LINE",
"278 563 LINE",
"315 526 LINE",
"278 489 LINE"
);
}
);
width = 408;
}
);
unicode = 00A3;
},
{
glyphname = currency;
layers = (
{
layerId = "14D7FEEC-2E75-40D5-AE74-B547D0DC8BA7";
paths = (
{
nodes = (
"43 37 LINE",
"23 83 LINE",
"109 210 LINE",
"154 194 LINE",
"153 143 LINE",
"89 46 LINE"
);
},
{
nodes = (
"492 46 LINE",
"428 143 LINE",
"427 194 LINE",
"472 210 LINE",
"558 83 LINE",
"538 37 LINE"
);
},
{
nodes = (
"117 231 LINE",
"117 483 LINE",
"157 497 LINE",
"192 476 LINE",
"192 238 LINE",
"157 217 LINE"
);
},
{
nodes = (
"179 145 LINE",
"180 199 LINE",
"210 220 LINE",
"371 220 LINE",
"401 199 LINE",
"402 145 LINE"
);
},
{
nodes = (
"389 238 LINE",
"389 476 LINE",
"424 497 LINE",
"464 483 LINE",
"464 231 LINE",
"424 217 LINE"
);
},
{
nodes = (
"109 504 LINE",
"23 631 LINE",
"43 677 LINE",
"89 668 LINE",
"153 571 LINE",
"154 520 LINE"
);
},
{
nodes = (
"210 494 LINE",
"180 515 LINE",
"179 569 LINE",
"402 569 LINE",
"401 515 LINE",
"371 494 LINE"
);
},
{
nodes = (
"427 520 LINE",
"428 571 LINE",
"492 668 LINE",
"538 677 LINE",
"558 631 LINE",
"472 504 LINE"
);
}
);
width = 583;
}
);
unicode = 00A4;
},
{
glyphname = yen;
layers = (
{
layerId = "14D7FEEC-2E75-40D5-AE74-B547D0DC8BA7";
paths = (
{
nodes = (
"141 354 LINE",
"122 373 LINE",
"122 689 LINE",
"197 615 LINE",
"197 410 LINE"
);
},
{
nodes = (
"476 354 LINE",
"420 410 LINE",
"420 615 LINE",
"495 689 LINE",
"495 373 LINE"
);
},
{
nodes = (
"169 344 LINE",
"207 382 LINE",
"412 382 LINE",
"450 344 LINE",
"412 307 LINE",
"207 307 LINE"
);
},
{
nodes = (
"50 302 LINE",
"13 339 LINE",
"50 376 LINE",
"108 376 LINE",
"108 372 OFFCURVE",
"109 365 OFFCURVE",
"109 363 QCURVE",
"109 357 LINE",
"177 302 LINE"
);
},
{
nodes = (
"446 302 LINE",
"514 357 LINE",
"514 363 LINE",
"514 363 OFFCURVE",
"514 364 QCURVE",
"514 364 OFFCURVE",
"514 364 QCURVE",
"514 364 OFFCURVE",
"514 364 QCURVE",
"514 365 LINE",
"514 365 OFFCURVE",
"514 365 QCURVE",
"514 369 LINE SMOOTH",
"514 372 OFFCURVE",
"515 376 QCURVE",
"573 376 LINE",
"610 339 LINE",
"573 302 LINE"
);
},
{
nodes = (
"326 0 LINE",
"270 56 LINE",
"270 284 LINE",
"345 285 LINE",
"345 18 LINE"
);
},
{
nodes = (
"50 172 LINE",
"13 209 LINE",
"50 246 LINE",
"249 246 LINE",
"249 172 LINE"
);
},
{
nodes = (
"374 172 LINE",
"374 246 LINE",
"573 246 LINE",
"610 209 LINE",
"573 172 LINE"
);
}
);
width = 633;
}
);
unicode = 00A5;
},
{
glyphname = brokenbar;
layers = (
{
layerId = "14D7FEEC-2E75-40D5-AE74-B547D0DC8BA7";
paths = (
{
nodes = (
"34 -126 LINE",
"34 187 LINE",
"73 231 LINE",
"109 191 LINE",
"109 -128 LINE",
"73 -164 LINE"
);
},
{
nodes = (
"34 519 LINE",
"34 812 LINE",
"73 856 LINE",
"109 816 LINE",
"109 517 LINE",
"73 481 LINE"
);
}
);
width = 145;
}
);
unicode = 00A6;
},
{
glyphname = section;
layers = (
{
layerId = "14D7FEEC-2E75-40D5-AE74-B547D0DC8BA7";
paths = (
{
nodes = (
"125 24 LINE",
"135 -12 OFFCURVE",
"198 -46 OFFCURVE",
"232 -46 QCURVE SMOOTH",
"247 -46 OFFCURVE",
"276 -39 OFFCURVE",
"300 -23 OFFCURVE",
"314 3 OFFCURVE",
"314 21 QCURVE SMOOTH",
"314 43 OFFCURVE",
"291 72 OFFCURVE",
"255 91 OFFCURVE",
"212 102 OFFCURVE",
"192 105 QCURVE",
"180 108 LINE SMOOTH",
"172 110 OFFCURVE",
"154 113 OFFCURVE",
"147 115 QCURVE",
"95 136 OFFCURVE",
"28 219 OFFCURVE",
"28 280 QCURVE SMOOTH",
"28 313 OFFCURVE",
"49 377 OFFCURVE",
"78 403 QCURVE",
"55 429 OFFCURVE",
"32 492 OFFCURVE",
"32 521 QCURVE SMOOTH",
"32 559 OFFCURVE",
"60 617 OFFCURVE",
"108 657 OFFCURVE",
"170 678 OFFCURVE",
"204 678 QCURVE SMOOTH",
"240 678 OFFCURVE",
"309 656 OFFCURVE",
"365 615 OFFCURVE",
"405 556 OFFCURVE",
"413 519 QCURVE",
"311 519 LINE",
"300 548 OFFCURVE",
"245 582 OFFCURVE",
"216 582 QCURVE SMOOTH",
"202 582 OFFCURVE",
"172 575 OFFCURVE",
"148 558 OFFCURVE",
"132 533 OFFCURVE",
"132 515 QCURVE SMOOTH",
"132 494 OFFCURVE",
"150 467 OFFCURVE",
"181 449 OFFCURVE",
"221 438 OFFCURVE",
"243 433 QCURVE SMOOTH",
"271 426 OFFCURVE",
"331 408 OFFCURVE",
"380 372 OFFCURVE",
"411 312 OFFCURVE",
"411 263 QCURVE SMOOTH",
"411 229 OFFCURVE",
"382 163 OFFCURVE",
"353 137 QCURVE",
"378 114 OFFCURVE",
"414 49 OFFCURVE",
"414 21 QCURVE SMOOTH",
"414 -18 OFFCURVE",
"386 -79 OFFCURVE",
"338 -120 OFFCURVE",
"274 -142 OFFCURVE",
"239 -142 QCURVE SMOOTH",
"201 -142 OFFCURVE",
"130 -119 OFFCURVE",
"73 -76 OFFCURVE",
"32 -15 OFFCURVE",
"24 24 QCURVE"
);
},
{
nodes = (
"127 257 OFFCURVE",
"147 226 OFFCURVE",
"176 205 OFFCURVE",
"211 195 OFFCURVE",
"226 195 QCURVE SMOOTH",
"241 195 OFFCURVE",
"271 204 OFFCURVE",
"296 222 OFFCURVE",
"311 249 OFFCURVE",
"311 267 QCURVE SMOOTH",
"311 290 OFFCURVE",
"288 319 OFFCURVE",
"254 335 OFFCURVE",
"215 341 OFFCURVE",
"199 341 QCURVE SMOOTH",
"186 341 OFFCURVE",
"160 334 OFFCURVE",
"140 318 OFFCURVE",
"127 294 OFFCURVE",
"127 277 QCURVE SMOOTH"
);
}
);
width = 430;
}
);
unicode = 00A7;
},
{
glyphname = copyright;
layers = (
{
layerId = "14D7FEEC-2E75-40D5-AE74-B547D0DC8BA7";
paths = (
{
nodes = (
"12 531 OFFCURVE",
"42 601 OFFCURVE",
"95 653 OFFCURVE",
"165 684 OFFCURVE",
"205 684 QCURVE SMOOTH",
"245 684 OFFCURVE",
"315 653 OFFCURVE",
"367 601 OFFCURVE",
"398 531 OFFCURVE",
"398 491 QCURVE SMOOTH",
"398 451 OFFCURVE",
"367 381 OFFCURVE",
"315 329 OFFCURVE",
"245 299 OFFCURVE",
"205 299 QCURVE SMOOTH",
"165 299 OFFCURVE",
"95 329 OFFCURVE",
"42 381 OFFCURVE",
"12 451 OFFCURVE",
"12 491 QCURVE SMOOTH"
);
},
{
nodes = (
"57 460 OFFCURVE",
"80 406 OFFCURVE",
"120 366 OFFCURVE",
"174 343 OFFCURVE",
"205 343 QCURVE SMOOTH",
"236 343 OFFCURVE",
"290 366 OFFCURVE",
"330 406 OFFCURVE",
"353 460 OFFCURVE",
"353 491 QCURVE SMOOTH",
"353 522 OFFCURVE",
"330 576 OFFCURVE",
"290 616 OFFCURVE",
"236 639 OFFCURVE",
"205 639 QCURVE SMOOTH",
"174 639 OFFCURVE",
"120 616 OFFCURVE",
"80 576 OFFCURVE",
"57 522 OFFCURVE",
"57 491 QCURVE SMOOTH"
);
},
{
nodes = (
"241 547 LINE",
"225 558 OFFCURVE",
"205 558 QCURVE SMOOTH",
"177 558 OFFCURVE",
"139 518 OFFCURVE",
"139 491 QCURVE SMOOTH",
"139 463 OFFCURVE",
"177 425 OFFCURVE",
"205 425 QCURVE SMOOTH",
"235 425 OFFCURVE",
"254 447 QCURVE",
"288 418 LINE",
"273 400 OFFCURVE",
"229 380 OFFCURVE",
"205 380 QCURVE SMOOTH",
"182 380 OFFCURVE",
"142 398 OFFCURVE",
"112 428 OFFCURVE",
"94 468 OFFCURVE",
"94 491 QCURVE SMOOTH",
"94 514 OFFCURVE",
"112 554 OFFCURVE",
"142 584 OFFCURVE",
"182 602 OFFCURVE",
"205 602 QCURVE SMOOTH",
"245 602 OFFCURVE",
"277 576 QCURVE"
);
}
);
width = 411;
}
);
unicode = 00A9;
},
{
glyphname = ordfeminine;
layers = (
{
layerId = "14D7FEEC-2E75-40D5-AE74-B547D0DC8BA7";
paths = (
{
nodes = (
"21 333 LINE",
"21 470 LINE",
"37 486 LINE",
"85 439 LINE",
"85 366 LINE",
"37 318 LINE"
);
},
{
nodes = (
"61 494 LINE",
"93 527 LINE",
"257 527 LINE",
"289 494 LINE",
"257 463 LINE",
"93 463 LINE"
);
},
{
nodes = (
"53 302 LINE",
"102 350 LINE",
"248 350 LINE",
"308 286 LINE",
"70 286 LINE"
);
},
{
nodes = (
"329 297 LINE",
"265 366 LINE",
"265 439 LINE",
"314 486 LINE",
"329 470 LINE"
);
},
{
nodes = (
"84 621 LINE",
"20 685 LINE",
"281 685 LINE",
"297 669 LINE",
"248 621 LINE"
);
},
{
nodes = (
"265 550 LINE",
"265 605 LINE",
"314 653 LINE",
"329 637 LINE",
"329 518 LINE",
"314 503 LINE"
);
}
);
width = 350;
}
);
unicode = 00AA;
},
{
glyphname = uni00AD;
layers = (
{
layerId = "14D7FEEC-2E75-40D5-AE74-B547D0DC8BA7";
paths = (
{
nodes = (
"61 302 LINE",
"24 339 LINE",
"61 376 LINE",
"270 376 LINE",
"307 339 LINE",
"270 302 LINE"
);
}
);
width = 329;
}
);
unicode = 00AD;
},
{
glyphname = registered;
layers = (
{
layerId = "14D7FEEC-2E75-40D5-AE74-B547D0DC8BA7";
paths = (
{
nodes = (
"24 503 OFFCURVE",
"59 585 OFFCURVE",
"121 646 OFFCURVE",
"203 681 OFFCURVE",
"251 681 QCURVE SMOOTH",
"298 681 OFFCURVE",
"380 646 OFFCURVE",
"440 585 OFFCURVE",
"475 503 OFFCURVE",
"475 456 QCURVE SMOOTH",
"475 410 OFFCURVE",
"440 329 OFFCURVE",
"380 268 OFFCURVE",
"298 232 OFFCURVE",
"251 232 QCURVE SMOOTH",
"203 232 OFFCURVE",
"121 268 OFFCURVE",
"59 329 OFFCURVE",
"24 410 OFFCURVE",
"24 456 QCURVE SMOOTH"
);
},
{
nodes = (
"81 423 OFFCURVE",
"109 361 OFFCURVE",
"156 315 OFFCURVE",
"217 287 OFFCURVE",
"251 287 QCURVE SMOOTH",
"284 287 OFFCURVE",
"346 315 OFFCURVE",
"392 361 OFFCURVE",
"420 423 OFFCURVE",
"420 456 QCURVE SMOOTH",
"420 490 OFFCURVE",
"392 551 OFFCURVE",
"346 598 OFFCURVE",
"284 626 OFFCURVE",
"251 626 QCURVE SMOOTH",
"217 626 OFFCURVE",
"156 598 OFFCURVE",
"109 551 OFFCURVE",
"81 490 OFFCURVE",
"81 456 QCURVE SMOOTH"
);
},
{
nodes = (
"144 352 LINE",
"193 579 LINE",
"286 579 LINE SMOOTH",
"318 579 OFFCURVE",
"359 540 OFFCURVE",
"359 508 QCURVE SMOOTH",
"359 478 OFFCURVE",
"325 432 OFFCURVE",
"299 424 QCURVE",
"330 352 LINE",
"275 352 LINE",
"246 417 LINE",
"207 417 LINE",
"193 352 LINE"
);
},
{
nodes = (
"217 465 LINE",
"274 465 LINE SMOOTH",
"290 465 OFFCURVE",
"310 487 OFFCURVE",
"310 502 QCURVE SMOOTH",
"310 515 OFFCURVE",
"293 532 OFFCURVE",
"279 532 QCURVE SMOOTH",
"231 532 LINE"
);
}
);
width = 490;
}
);
unicode = 00AE;
},
{
glyphname = degree;
layers = (
{
layerId = "14D7FEEC-2E75-40D5-AE74-B547D0DC8BA7";
paths = (
{
nodes = (
"15 581 OFFCURVE",
"40 639 OFFCURVE",
"83 682 OFFCURVE",
"142 707 OFFCURVE",
"176 707 QCURVE SMOOTH",
"209 707 OFFCURVE",
"267 682 OFFCURVE",
"310 639 OFFCURVE",
"335 581 OFFCURVE",
"335 548 QCURVE SMOOTH",
"335 515 OFFCURVE",
"310 457 OFFCURVE",
"267 414 OFFCURVE",
"209 388 OFFCURVE",
"176 388 QCURVE SMOOTH",
"142 388 OFFCURVE",
"83 414 OFFCURVE",
"40 457 OFFCURVE",
"15 515 OFFCURVE",
"15 548 QCURVE SMOOTH"
);
},
{
nodes = (
"81 529 OFFCURVE",
"96 495 OFFCURVE",
"122 469 OFFCURVE",
"157 454 OFFCURVE",
"176 454 QCURVE SMOOTH",
"195 454 OFFCURVE",
"229 469 OFFCURVE",
"255 495 OFFCURVE",
"270 529 OFFCURVE",
"270 548 QCURVE SMOOTH",
"270 567 OFFCURVE",
"255 601 OFFCURVE",
"229 627 OFFCURVE",
"195 642 OFFCURVE",
"176 642 QCURVE SMOOTH",
"157 642 OFFCURVE",
"122 627 OFFCURVE",
"96 601 OFFCURVE",
"81 567 OFFCURVE",
"81 548 QCURVE SMOOTH"
);
}
);
width = 358;
}
);
unicode = 00B0;
},
{
glyphname = plusminus;
layers = (
{
layerId = "14D7FEEC-2E75-40D5-AE74-B547D0DC8BA7";
paths = (
{
nodes = (
"58 117 LINE",
"21 154 LINE",
"58 191 LINE",
"349 191 LINE",
"386 154 LINE",
"349 117 LINE"
);
},
{
nodes = (
"61 381 LINE",
"24 418 LINE",
"61 455 LINE",
"153 455 LINE",
"191 418 LINE",
"153 381 LINE"
);
},
{
nodes = (
"201 432 LINE",
"173 460 LINE",
"173 568 LINE",
"210 606 LINE",
"248 568 LINE",
"248 479 LINE"
);
},
{
nodes = (
"173 285 LINE",
"173 375 LINE",
"201 404 LINE",
"248 357 LINE",
"248 285 LINE",
"210 247 LINE"
);
},
{
nodes = (
"252 381 LINE",
"215 418 LINE",
"252 455 LINE",
"344 455 LINE",
"382 418 LINE",
"344 381 LINE"
);
}
);
width = 413;
}
);
unicode = 00B1;
},
{
glyphname = acute;
layers = (
{
layerId = "14D7FEEC-2E75-40D5-AE74-B547D0DC8BA7";
paths = (
{
nodes = (
"20 749 LINE",
"106 851 LINE",
"157 851 LINE",
"155 795 LINE",
"53 723 LINE"
);
}
);
width = 181;
}
);
unicode = 00B4;
},
{
glyphname = paragraph;
layers = (
{
layerId = "14D7FEEC-2E75-40D5-AE74-B547D0DC8BA7";
paths = (
{
nodes = (
"264 -128 LINE",
"264 279 LINE",
"320 335 LINE",
"339 316 LINE",
"339 -202 LINE"
);
},
{
nodes = (
"460 -128 LINE",
"460 279 LINE",
"516 335 LINE",
"535 316 LINE",
"535 -202 LINE"
);
},
{
nodes = (
"37 372 LINE",
"37 633 LINE",
"56 652 LINE",
"112 596 LINE",
"112 409 LINE",
"56 354 LINE"
);
},
{
nodes = (
"83 344 LINE",
"121 382 LINE",
"255 382 LINE",
"293 344 LINE",
"255 307 LINE",
"121 307 LINE"
);
},
{
nodes = (
"320 354 LINE",
"264 410 LINE",
"264 596 LINE",
"339 596 LINE",
"339 372 LINE"
);
},
{
nodes = (
"74 670 LINE",
"93 689 LINE",
"621 689 LINE",
"547 615 LINE",
"130 615 LINE"
);
},
{
nodes = (
"516 354 LINE",
"460 410 LINE",
"460 593 LINE",
"535 593 LINE",
"535 372 LINE"
);
}
);
width = 641;
}
);
unicode = 00B6;
},
{
glyphname = periodcentered;
layers = (
{
layerId = "14D7FEEC-2E75-40D5-AE74-B547D0DC8BA7";
paths = (
{
nodes = (
"26 333 LINE",
"26 423 LINE",
"117 423 LINE",
"117 333 LINE"
);
}
);
width = 140;
}
);
unicode = 00B7;
},
{
glyphname = cedilla;
layers = (
{
layerId = "14D7FEEC-2E75-40D5-AE74-B547D0DC8BA7";
paths = (
{
nodes = (
"31 -200 LINE",
"73 -148 LINE",
"149 -148 LINE",
"149 -81 LINE",
"62 -80 LINE",
"29 -68 LINE",
"29 6 LINE",
"85 6 LINE",
"85 -45 LINE",
"178 -45 LINE",
"204 -93 LINE",
"204 -160 LINE",
"162 -200 LINE"
);
}
);
width = 218;
}
);
unicode = 00B8;
},
{
glyphname = ordmasculine;
layers = (
{
layerId = "14D7FEEC-2E75-40D5-AE74-B547D0DC8BA7";
paths = (
{
nodes = (
"292 605 LINE",
"341 653 LINE",
"356 637 LINE",
"356 334 LINE",
"341 318 LINE",
"292 366 LINE"
);
},
{
nodes = (
"86 366 LINE",
"37 318 LINE",
"22 334 LINE",
"22 637 LINE",
"37 653 LINE",
"86 605 LINE"
);
},
{
nodes = (
"275 350 LINE",
"324 302 LINE",
"308 286 LINE",
"70 286 LINE",
"54 302 LINE",
"103 350 LINE"
);
},
{
nodes = (
"103 621 LINE",
"54 669 LINE",
"70 685 LINE",
"308 685 LINE",
"324 669 LINE",
"275 621 LINE"
);
}
);
width = 376;
}
);
unicode = 00BA;
},
{
glyphname = questiondown;
layers = (
{
layerId = "14D7FEEC-2E75-40D5-AE74-B547D0DC8BA7";
paths = (
{
nodes = (
"42 37 LINE",
"24 55 LINE",
"24 316 LINE",
"42 335 LINE",
"98 279 LINE",
"98 93 LINE"
);
},
{
nodes = (
"80 0 LINE",
"61 18 LINE",
"117 74 LINE",
"301 74 LINE",
"375 0 LINE"
);
},
{
nodes = (
"70 345 LINE",
"107 382 LINE",
"189 382 LINE",
"226 345 LINE",
"189 307 LINE",
"107 307 LINE"
);
},
{
nodes = (
"254 354 LINE",
"198 410 LINE",
"198 532 LINE",
"254 587 LINE",
"272 569 LINE",
"272 372 LINE"
);
},
{
nodes = (
"198 689 LINE",
"272 689 LINE",
"272 616 LINE",
"198 616 LINE"
);
}
);
width = 414;
}
);
unicode = 00BF;
},
{
glyphname = Agrave;
layers = (
{
layerId = "14D7FEEC-2E75-40D5-AE74-B547D0DC8BA7";
paths = (
{
nodes = (
"37 0 LINE",
"37 316 LINE",
"56 335 LINE",
"111 279 LINE",
"111 74 LINE"
);
},
{
nodes = (
"120 307 LINE",
"83 344 LINE",
"120 382 LINE",
"326 382 LINE",
"363 344 LINE",
"326 307 LINE"
);
},
{
nodes = (
"335 74 LINE",
"335 279 LINE",
"391 335 LINE",
"409 316 LINE",
"409 0 LINE"
);
},
{
nodes = (
"55 354 LINE",
"37 372 LINE",
"37 670 LINE",
"111 596 LINE",
"111 409 LINE"
);
},
{
nodes = (
"130 614 LINE",
"55 689 LINE",
"391 689 LINE",
"316 614 LINE"
);
},
{
nodes = (
"335 409 LINE",
"335 596 LINE",
"409 670 LINE",
"409 372 LINE",
"391 354 LINE"
);
},
{
nodes = (
"157 795 LINE",
"155 851 LINE",
"206 851 LINE",
"292 749 LINE",
"259 723 LINE"
);
}
);
width = 447;
}
);
unicode = 00C0;
},
{
glyphname = Aacute;
layers = (
{
layerId = "14D7FEEC-2E75-40D5-AE74-B547D0DC8BA7";
paths = (
{
nodes = (
"37 0 LINE",
"37 316 LINE",
"56 335 LINE",
"111 279 LINE",
"111 74 LINE"
);
},
{
nodes = (
"120 307 LINE",
"83 344 LINE",
"120 382 LINE",
"326 382 LINE",
"363 344 LINE",
"326 307 LINE"
);
},
{
nodes = (
"335 74 LINE",
"335 279 LINE",
"391 335 LINE",
"409 316 LINE",
"409 0 LINE"
);
},
{
nodes = (
"55 354 LINE",
"37 372 LINE",
"37 670 LINE",
"111 596 LINE",
"111 409 LINE"
);
},
{
nodes = (
"130 614 LINE",
"55 689 LINE",
"391 689 LINE",
"316 614 LINE"
);
},
{
nodes = (
"335 409 LINE",
"335 596 LINE",
"409 670 LINE",
"409 372 LINE",
"391 354 LINE"
);
},
{
nodes = (
"155 749 LINE",
"241 851 LINE",
"292 851 LINE",
"290 795 LINE",
"188 723 LINE"
);
}
);
width = 447;
}
);
unicode = 00C1;
},
{
glyphname = Acircumflex;
layers = (
{
layerId = "14D7FEEC-2E75-40D5-AE74-B547D0DC8BA7";
paths = (
{
nodes = (
"37 0 LINE",
"37 316 LINE",
"56 335 LINE",
"111 279 LINE",
"111 74 LINE"
);
},
{
nodes = (
"120 307 LINE",
"83 344 LINE",
"120 382 LINE",
"326 382 LINE",
"363 344 LINE",
"326 307 LINE"
);
},
{
nodes = (
"335 74 LINE",
"335 279 LINE",
"391 335 LINE",
"409 316 LINE",
"409 0 LINE"
);
},
{
nodes = (
"55 354 LINE",
"37 372 LINE",
"37 670 LINE",
"111 596 LINE",
"111 409 LINE"
);
},
{
nodes = (
"96 749 LINE",
"182 851 LINE",
"262 851 LINE",
"348 749 LINE",
"315 723 LINE",
"222 788 LINE",
"129 723 LINE"
);
},
{
nodes = (
"130 614 LINE",
"55 689 LINE",
"391 689 LINE",
"316 614 LINE"
);
},
{
nodes = (
"335 409 LINE",
"335 596 LINE",
"409 670 LINE",
"409 372 LINE",
"391 354 LINE"
);
}
);
width = 447;
}
);
unicode = 00C2;
},
{
glyphname = Atilde;
layers = (
{
layerId = "14D7FEEC-2E75-40D5-AE74-B547D0DC8BA7";
paths = (
{
nodes = (
"37 0 LINE",
"37 316 LINE",
"56 335 LINE",
"111 279 LINE",
"111 74 LINE"
);
},
{
nodes = (
"120 307 LINE",
"83 344 LINE",
"120 382 LINE",
"326 382 LINE",
"363 344 LINE",
"326 307 LINE"
);
},
{
nodes = (
"335 74 LINE",
"335 279 LINE",
"391 335 LINE",
"409 316 LINE",
"409 0 LINE"
);
},
{
nodes = (
"55 354 LINE",
"37 372 LINE",
"37 670 LINE",
"111 596 LINE",
"111 409 LINE"
);
},
{
nodes = (
"130 614 LINE",
"55 689 LINE",
"391 689 LINE",
"316 614 LINE"
);
},
{
nodes = (
"335 409 LINE",
"335 596 LINE",
"409 670 LINE",
"409 372 LINE",
"391 354 LINE"
);
},
{
nodes = (
"97 750 LINE",
"183 852 LINE",
"237 852 LINE",
"277 806 LINE",
"343 852 LINE",
"376 826 LINE",
"290 724 LINE",
"210 780 LINE",
"130 724 LINE"
);
}
);
width = 447;
}
);
unicode = 00C3;
},
{
glyphname = Adieresis;
layers = (
{
layerId = "14D7FEEC-2E75-40D5-AE74-B547D0DC8BA7";
paths = (
{
nodes = (
"37 0 LINE",
"37 316 LINE",
"56 335 LINE",
"111 279 LINE",
"111 74 LINE"
);
},
{
nodes = (
"335 74 LINE",
"335 279 LINE",
"391 335 LINE",
"409 316 LINE",
"409 0 LINE"
);
},
{
nodes = (
"55 354 LINE",
"37 372 LINE",
"37 670 LINE",
"111 596 LINE",
"111 409 LINE"
);
},
{
nodes = (
"120 307 LINE",
"83 344 LINE",
"120 382 LINE",
"326 382 LINE",
"363 344 LINE",
"326 307 LINE"
);
},
{
nodes = (
"130 614 LINE",
"55 689 LINE",
"391 689 LINE",
"316 614 LINE"
);
},
{
nodes = (
"335 409 LINE",
"335 596 LINE",
"409 670 LINE",
"409 372 LINE",
"391 354 LINE"
);
},
{
nodes = (
"88 738 LINE",
"88 828 LINE",
"179 828 LINE",
"179 738 LINE"
);
},
{
nodes = (
"267 738 LINE",
"267 828 LINE",
"358 828 LINE",
"358 738 LINE"
);
}
);
width = 447;
}
);
unicode = 00C4;
},
{
glyphname = Aring;
layers = (
{
layerId = "14D7FEEC-2E75-40D5-AE74-B547D0DC8BA7";
paths = (
{
nodes = (
"37 0 LINE",
"37 316 LINE",
"56 335 LINE",
"111 279 LINE",
"111 74 LINE"
);
},
{
nodes = (
"335 74 LINE",
"335 279 LINE",
"391 335 LINE",
"409 316 LINE",
"409 0 LINE"
);
},
{
nodes = (
"55 354 LINE",
"37 372 LINE",
"37 670 LINE",
"111 596 LINE",
"111 409 LINE"
);
},
{
nodes = (
"120 307 LINE",
"83 344 LINE",
"120 382 LINE",
"326 382 LINE",
"363 344 LINE",
"326 307 LINE"
);
},
{
nodes = (
"111 762 LINE",
"98 804 LINE",
"98 823 LINE",
"111 865 LINE",
"219 906 LINE",
"319 865 LINE",
"331 823 LINE",
"331 804 LINE",
"319 762 LINE",
"219 721 LINE"
);
},
{
nodes = (
"148 813 LINE",
"214 761 LINE",
"282 813 LINE",
"214 867 LINE"
);
},
{
nodes = (
"130 614 LINE",
"55 689 LINE",
"391 689 LINE",
"316 614 LINE"
);
},
{
nodes = (
"335 409 LINE",
"335 596 LINE",
"409 670 LINE",
"409 372 LINE",
"391 354 LINE"
);
}
);
width = 447;
}
);
unicode = 00C5;
},
{
glyphname = AE;
layers = (
{
layerId = "14D7FEEC-2E75-40D5-AE74-B547D0DC8BA7";
paths = (
{
nodes = (
"37 0 LINE",
"37 316 LINE",
"56 335 LINE",
"111 279 LINE",
"111 74 LINE"
);
},
{
nodes = (
"364 19 LINE",
"364 317 LINE",
"383 336 LINE",
"438 280 LINE",
"438 94 LINE"
);
},
{
nodes = (
"383 0 LINE",
"457 75 LINE",
"643 75 LINE",
"718 0 LINE"
);
},
{
nodes = (
"55 354 LINE",
"37 372 LINE",
"37 670 LINE",
"111 596 LINE",
"111 409 LINE"
);
},
{
nodes = (
"120 307 LINE",
"83 344 LINE",
"120 382 LINE",
"326 382 LINE",
"363 344 LINE",
"326 307 LINE"
);
},
{
nodes = (
"447 308 LINE",
"410 345 LINE",
"447 382 LINE",
"653 382 LINE",
"690 345 LINE",
"653 308 LINE"
);
},
{
nodes = (
"130 614 LINE",
"55 689 LINE",
"718 690 LINE",
"643 615 LINE",
"515 615 LINE",
"516 614 LINE"
);
},
{
nodes = (
"383 354 LINE",
"364 373 LINE",
"364 595 LINE",
"438 595 LINE",
"438 410 LINE"
);
}
);
width = 747;
}
);
unicode = 00C6;
},
{
glyphname = Ccedilla;
layers = (
{
layerId = "14D7FEEC-2E75-40D5-AE74-B547D0DC8BA7";
paths = (
{
nodes = (
"55 36 LINE",
"37 54 LINE",
"37 315 LINE",
"55 334 LINE",
"111 278 LINE",
"111 92 LINE"
);
},
{
nodes = (
"55 353 LINE",
"37 371 LINE",
"37 632 LINE",
"55 651 LINE",
"111 595 LINE",
"111 409 LINE"
);
},
{
nodes = (
"130 614 LINE",
"74 670 LINE",
"93 688 LINE",
"391 688 LINE",
"316 614 LINE"
);
},
{
nodes = (
"74 17 LINE",
"130 73 LINE",
"316 73 LINE",
"391 -1 LINE",
"220 -1 LINE",
"200 -45 LINE",
"293 -45 LINE",
"319 -93 LINE",
"319 -160 LINE",
"277 -200 LINE",
"146 -200 LINE",
"188 -148 LINE",
"264 -148 LINE",
"264 -81 LINE",
"177 -80 LINE",
"144 -68 LINE",
"173 -1 LINE",
"93 -1 LINE"
);
}
);
width = 405;
}
);
unicode = 00C7;
},
{
glyphname = Egrave;
layers = (
{
layerId = "14D7FEEC-2E75-40D5-AE74-B547D0DC8BA7";
paths = (
{
nodes = (
"38 19 LINE",
"38 317 LINE",
"57 336 LINE",
"112 280 LINE",
"112 94 LINE"
);
},
{
nodes = (
"57 0 LINE",
"131 75 LINE",
"317 75 LINE",
"392 0 LINE"
);
},
{
nodes = (
"57 354 LINE",
"38 373 LINE",
"38 671 LINE",
"112 597 LINE",
"112 410 LINE"
);
},
{
nodes = (
"121 308 LINE",
"84 345 LINE",
"121 382 LINE",
"327 382 LINE",
"364 345 LINE",
"327 308 LINE"
);
},
{
nodes = (
"157 795 LINE",
"155 851 LINE",
"206 851 LINE",
"292 749 LINE",
"259 723 LINE"
);
},
{
nodes = (
"131 615 LINE",
"57 690 LINE",
"392 690 LINE",
"317 615 LINE"
);
}
);
width = 412;
}
);
unicode = 00C8;
},
{
glyphname = Eacute;
layers = (
{
layerId = "14D7FEEC-2E75-40D5-AE74-B547D0DC8BA7";
paths = (
{
nodes = (
"38 19 LINE",
"38 317 LINE",
"57 336 LINE",
"112 280 LINE",
"112 94 LINE"
);
},
{
nodes = (
"57 0 LINE",
"131 75 LINE",
"317 75 LINE",
"392 0 LINE"
);
},
{
nodes = (
"57 354 LINE",
"38 373 LINE",
"38 671 LINE",
"112 597 LINE",
"112 410 LINE"
);
},
{
nodes = (
"121 308 LINE",
"84 345 LINE",
"121 382 LINE",
"327 382 LINE",
"364 345 LINE",
"327 308 LINE"
);
},
{
nodes = (
"155 749 LINE",
"241 851 LINE",
"292 851 LINE",
"290 795 LINE",
"188 723 LINE"
);
},
{
nodes = (
"131 615 LINE",
"57 690 LINE",
"392 690 LINE",
"317 615 LINE"
);
}
);
width = 412;
}
);
unicode = 00C9;
},
{
glyphname = Ecircumflex;
layers = (
{
layerId = "14D7FEEC-2E75-40D5-AE74-B547D0DC8BA7";
paths = (
{
nodes = (
"38 19 LINE",
"38 317 LINE",
"57 336 LINE",
"112 280 LINE",
"112 94 LINE"
);
},
{
nodes = (
"57 0 LINE",
"131 75 LINE",
"317 75 LINE",
"392 0 LINE"
);
},
{
nodes = (
"57 354 LINE",
"38 373 LINE",
"38 671 LINE",
"112 597 LINE",
"112 410 LINE"
);
},
{
nodes = (
"121 308 LINE",
"84 345 LINE",
"121 382 LINE",
"327 382 LINE",
"364 345 LINE",
"327 308 LINE"
);
},
{
nodes = (
"96 749 LINE",
"182 851 LINE",
"262 851 LINE",
"348 749 LINE",
"315 723 LINE",
"222 788 LINE",
"129 723 LINE"
);
},
{
nodes = (
"131 615 LINE",
"57 690 LINE",
"392 690 LINE",
"317 615 LINE"
);
}
);
width = 412;
}
);
unicode = 00CA;
},
{
glyphname = Edieresis;
layers = (
{
layerId = "14D7FEEC-2E75-40D5-AE74-B547D0DC8BA7";
paths = (
{
nodes = (
"38 19 LINE",
"38 317 LINE",
"57 336 LINE",
"112 280 LINE",
"112 94 LINE"
);
},
{
nodes = (
"57 0 LINE",
"131 75 LINE",
"317 75 LINE",
"392 0 LINE"
);
},
{
nodes = (
"57 354 LINE",
"38 373 LINE",
"38 671 LINE",
"112 597 LINE",
"112 410 LINE"
);
},
{
nodes = (
"121 308 LINE",
"84 345 LINE",
"121 382 LINE",
"327 382 LINE",
"364 345 LINE",
"327 308 LINE"
);
},
{
nodes = (
"79 738 LINE",
"79 828 LINE",
"170 828 LINE",
"170 738 LINE"
);
},
{
nodes = (
"131 615 LINE",
"57 690 LINE",
"392 690 LINE",
"317 615 LINE"
);
},
{
nodes = (
"258 738 LINE",
"258 828 LINE",
"349 828 LINE",
"349 738 LINE"
);
}
);
width = 412;
}
);
unicode = 00CB;
},
{
glyphname = Igrave;
layers = (
{
layerId = "14D7FEEC-2E75-40D5-AE74-B547D0DC8BA7";
paths = (
{
nodes = (
"90 0 LINE",
"34 56 LINE",
"34 279 LINE",
"90 335 LINE",
"109 316 LINE",
"109 18 LINE"
);
},
{
nodes = (
"90 354 LINE",
"34 410 LINE",
"34 633 LINE",
"90 689 LINE",
"109 670 LINE",
"109 372 LINE"
);
},
{
nodes = (
"-3 795 LINE",
"-5 851 LINE",
"46 851 LINE",
"132 749 LINE",
"99 723 LINE"
);
}
);
width = 145;
}
);
unicode = 00CC;
},
{
glyphname = Iacute;
layers = (
{
layerId = "14D7FEEC-2E75-40D5-AE74-B547D0DC8BA7";
paths = (
{
nodes = (
"90 0 LINE",
"34 56 LINE",
"34 279 LINE",
"90 335 LINE",
"109 316 LINE",
"109 18 LINE"
);
},
{
nodes = (
"90 354 LINE",
"34 410 LINE",
"34 633 LINE",
"90 689 LINE",
"109 670 LINE",
"109 372 LINE"
);
},
{
nodes = (
"6 749 LINE",
"92 851 LINE",
"143 851 LINE",
"141 795 LINE",
"39 723 LINE"
);
}
);
width = 145;
}
);
unicode = 00CD;
},
{
glyphname = Icircumflex;
layers = (
{
layerId = "14D7FEEC-2E75-40D5-AE74-B547D0DC8BA7";
paths = (
{
nodes = (
"90 0 LINE",
"34 56 LINE",
"34 279 LINE",
"90 335 LINE",
"109 316 LINE",
"109 18 LINE"
);
},
{
nodes = (
"90 354 LINE",
"34 410 LINE",
"34 633 LINE",
"90 689 LINE",
"109 670 LINE",
"109 372 LINE"
);
},
{
nodes = (
"-38 749 LINE",
"48 851 LINE",
"128 851 LINE",
"214 749 LINE",
"181 723 LINE",
"88 788 LINE",
"-5 723 LINE"
);
}
);
width = 145;
}
);
unicode = 00CE;
},
{
glyphname = Idieresis;
layers = (
{
layerId = "14D7FEEC-2E75-40D5-AE74-B547D0DC8BA7";
paths = (
{
nodes = (
"90 0 LINE",
"34 56 LINE",
"34 279 LINE",
"90 335 LINE",
"109 316 LINE",
"109 18 LINE"
);
},
{
nodes = (
"90 354 LINE",
"34 410 LINE",
"34 633 LINE",
"90 689 LINE",
"109 670 LINE",
"109 372 LINE"
);
},
{
nodes = (
"-64 738 LINE",
"-64 828 LINE",
"27 828 LINE",
"27 738 LINE"
);
},
{
nodes = (
"115 738 LINE",
"115 828 LINE",
"206 828 LINE",
"206 738 LINE"
);
}
);
width = 145;
}
);
unicode = 00CF;
},
{
glyphname = Eth;
layers = (
{
layerId = "14D7FEEC-2E75-40D5-AE74-B547D0DC8BA7";
paths = (
{
nodes = (
"48 306 LINE",
"11 343 LINE",
"48 380 LINE",
"89 380 LINE",
"126 343 LINE",
"89 306 LINE"
);
},
{
nodes = (
"107 19 LINE",
"107 295 LINE",
"145 335 LINE",
"182 292 LINE",
"182 93 LINE"
);
},
{
nodes = (
"126 0 LINE",
"200 74 LINE",
"387 74 LINE",
"442 18 LINE",
"424 0 LINE"
);
},
{
nodes = (
"461 37 LINE",
"405 93 LINE",
"405 279 LINE",
"461 335 LINE",
"480 317 LINE",
"480 56 LINE"
);
},
{
nodes = (
"145 354 LINE",
"107 394 LINE",
"107 671 LINE",
"182 596 LINE",
"182 394 LINE"
);
},
{
nodes = (
"202 306 LINE",
"165 343 LINE",
"202 380 LINE",
"278 380 LINE",
"315 343 LINE",
"278 306 LINE"
);
},
{
nodes = (
"200 615 LINE",
"126 689 LINE",
"424 689 LINE",
"442 671 LINE",
"387 615 LINE"
);
},
{
nodes = (
"461 354 LINE",
"405 410 LINE",
"405 596 LINE",
"461 652 LINE",
"480 634 LINE",
"480 373 LINE"
);
}
);
width = 505;
}
);
unicode = 00D0;
},
{
glyphname = Ntilde;
layers = (
{
layerId = "14D7FEEC-2E75-40D5-AE74-B547D0DC8BA7";
paths = (
{
nodes = (
"57 0 LINE",
"39 18 LINE",
"39 316 LINE",
"57 335 LINE",
"113 279 LINE",
"113 56 LINE"
);
},
{
nodes = (
"393 0 LINE",
"337 56 LINE",
"337 279 LINE",
"393 335 LINE",
"411 316 LINE",
"411 18 LINE"
);
},
{
nodes = (
"57 354 LINE",
"39 372 LINE",
"39 670 LINE",
"57 689 LINE",
"113 633 LINE",
"113 410 LINE"
);
},
{
nodes = (
"139 553 LINE",
"139 633 LINE",
"165 633 LINE",
"311 487 LINE",
"311 410 LINE",
"283 410 LINE"
);
},
{
nodes = (
"393 354 LINE",
"337 410 LINE",
"337 633 LINE",
"393 689 LINE",
"411 670 LINE",
"411 372 LINE"
);
},
{
nodes = (
"97 750 LINE",
"183 852 LINE",
"237 852 LINE",
"277 806 LINE",
"343 852 LINE",
"376 826 LINE",
"290 724 LINE",
"210 780 LINE",
"130 724 LINE"
);
}
);
width = 447;
}
);
unicode = 00D1;
},
{
glyphname = Ograve;
layers = (
{
layerId = "14D7FEEC-2E75-40D5-AE74-B547D0DC8BA7";
paths = (
{
nodes = (
"38 56 LINE",
"38 317 LINE",
"57 336 LINE",
"113 280 LINE",
"113 93 LINE",
"57 38 LINE"
);
},
{
nodes = (
"94 0 LINE",
"75 19 LINE",
"131 75 LINE",
"318 75 LINE",
"373 19 LINE",
"355 0 LINE"
);
},
{
nodes = (
"336 93 LINE",
"336 280 LINE",
"392 336 LINE",
"411 317 LINE",
"411 56 LINE",
"392 38 LINE"
);
},
{
nodes = (
"57 354 LINE",
"38 373 LINE",
"38 634 LINE",
"57 652 LINE",
"113 597 LINE",
"113 410 LINE"
);
},
{
nodes = (
"131 615 LINE",
"75 671 LINE",
"94 690 LINE",
"355 690 LINE",
"373 671 LINE",
"318 615 LINE"
);
},
{
nodes = (
"392 354 LINE",
"336 410 LINE",
"336 596 LINE",
"392 652 LINE",
"411 634 LINE",
"411 373 LINE"
);
},
{
nodes = (
"157 795 LINE",
"155 851 LINE",
"206 851 LINE",
"292 749 LINE",
"259 723 LINE"
);
}
);
width = 447;
}
);
unicode = 00D2;
},
{
glyphname = Oacute;
layers = (
{
layerId = "14D7FEEC-2E75-40D5-AE74-B547D0DC8BA7";
paths = (
{
nodes = (
"38 56 LINE",
"38 317 LINE",
"57 336 LINE",
"113 280 LINE",
"113 93 LINE",
"57 38 LINE"
);
},
{
nodes = (
"94 0 LINE",
"75 19 LINE",
"131 75 LINE",
"318 75 LINE",
"373 19 LINE",
"355 0 LINE"
);
},
{
nodes = (
"336 93 LINE",
"336 280 LINE",
"392 336 LINE",
"411 317 LINE",
"411 56 LINE",
"392 38 LINE"
);
},
{
nodes = (
"57 354 LINE",
"38 373 LINE",
"38 634 LINE",
"57 652 LINE",
"113 597 LINE",
"113 410 LINE"
);
},
{
nodes = (
"131 615 LINE",
"75 671 LINE",
"94 690 LINE",
"355 690 LINE",
"373 671 LINE",
"318 615 LINE"
);
},
{
nodes = (
"392 354 LINE",
"336 410 LINE",
"336 596 LINE",
"392 652 LINE",
"411 634 LINE",
"411 373 LINE"
);
},
{
nodes = (
"155 749 LINE",
"241 851 LINE",
"292 851 LINE",
"290 795 LINE",
"188 723 LINE"
);
}
);
width = 447;
}
);
unicode = 00D3;
},
{
glyphname = Ocircumflex;
layers = (
{
layerId = "14D7FEEC-2E75-40D5-AE74-B547D0DC8BA7";
paths = (
{
nodes = (
"38 56 LINE",
"38 317 LINE",
"57 336 LINE",
"113 280 LINE",
"113 93 LINE",
"57 38 LINE"
);
},
{
nodes = (
"94 0 LINE",
"75 19 LINE",
"131 75 LINE",
"318 75 LINE",
"373 19 LINE",
"355 0 LINE"
);
},
{
nodes = (
"336 93 LINE",
"336 280 LINE",
"392 336 LINE",
"411 317 LINE",
"411 56 LINE",
"392 38 LINE"
);
},
{
nodes = (
"57 354 LINE",
"38 373 LINE",
"38 634 LINE",
"57 652 LINE",
"113 597 LINE",
"113 410 LINE"
);
},
{
nodes = (
"96 749 LINE",
"182 851 LINE",
"262 851 LINE",
"348 749 LINE",
"315 723 LINE",
"222 788 LINE",
"129 723 LINE"
);
},
{
nodes = (
"131 615 LINE",
"75 671 LINE",
"94 690 LINE",
"355 690 LINE",
"373 671 LINE",
"318 615 LINE"
);
},
{
nodes = (
"392 354 LINE",
"336 410 LINE",
"336 596 LINE",
"392 652 LINE",
"411 634 LINE",
"411 373 LINE"
);
}
);
width = 447;
}
);
unicode = 00D4;
},
{
glyphname = Otilde;
layers = (
{
layerId = "14D7FEEC-2E75-40D5-AE74-B547D0DC8BA7";
paths = (
{
nodes = (
"38 56 LINE",
"38 317 LINE",
"57 336 LINE",
"113 280 LINE",
"113 93 LINE",
"57 38 LINE"
);
},
{
nodes = (
"94 0 LINE",
"75 19 LINE",
"131 75 LINE",
"318 75 LINE",
"373 19 LINE",
"355 0 LINE"
);
},
{
nodes = (
"336 93 LINE",
"336 280 LINE",
"392 336 LINE",
"411 317 LINE",
"411 56 LINE",
"392 38 LINE"
);
},
{
nodes = (
"57 354 LINE",
"38 373 LINE",
"38 634 LINE",
"57 652 LINE",
"113 597 LINE",
"113 410 LINE"
);
},
{
nodes = (
"131 615 LINE",
"75 671 LINE",
"94 690 LINE",
"355 690 LINE",
"373 671 LINE",
"318 615 LINE"
);
},
{
nodes = (
"392 354 LINE",
"336 410 LINE",
"336 596 LINE",
"392 652 LINE",
"411 634 LINE",
"411 373 LINE"
);
},
{
nodes = (
"97 750 LINE",
"183 852 LINE",
"237 852 LINE",
"277 806 LINE",
"343 852 LINE",
"376 826 LINE",
"290 724 LINE",
"210 780 LINE",
"130 724 LINE"
);
}
);
width = 447;
}
);
unicode = 00D5;
},
{
glyphname = Odieresis;
layers = (
{
layerId = "14D7FEEC-2E75-40D5-AE74-B547D0DC8BA7";
paths = (
{
nodes = (
"38 56 LINE",
"38 317 LINE",
"57 336 LINE",
"113 280 LINE",
"113 93 LINE",
"57 38 LINE"
);
},
{
nodes = (
"94 0 LINE",
"75 19 LINE",
"131 75 LINE",
"318 75 LINE",
"373 19 LINE",
"355 0 LINE"
);
},
{
nodes = (
"336 93 LINE",
"336 280 LINE",
"392 336 LINE",
"411 317 LINE",
"411 56 LINE",
"392 38 LINE"
);
},
{
nodes = (
"57 354 LINE",
"38 373 LINE",
"38 634 LINE",
"57 652 LINE",
"113 597 LINE",
"113 410 LINE"
);
},
{
nodes = (
"131 615 LINE",
"75 671 LINE",
"94 690 LINE",
"355 690 LINE",
"373 671 LINE",
"318 615 LINE"
);
},
{
nodes = (
"392 354 LINE",
"336 410 LINE",
"336 596 LINE",
"392 652 LINE",
"411 634 LINE",
"411 373 LINE"
);
},
{
nodes = (
"88 738 LINE",
"88 828 LINE",
"179 828 LINE",
"179 738 LINE"
);
},
{
nodes = (
"267 738 LINE",
"267 828 LINE",
"358 828 LINE",
"358 738 LINE"
);
}
);
width = 447;
}
);
unicode = 00D6;
},
{
glyphname = multiply;
layers = (
{
layerId = "14D7FEEC-2E75-40D5-AE74-B547D0DC8BA7";
paths = (
{
nodes = (
"30 212 LINE",
"30 264 LINE",
"127 362 LINE",
"180 362 LINE",
"180 309 LINE",
"83 212 LINE"
);
},
{
nodes = (
"127 381 LINE",
"30 479 LINE",
"30 531 LINE",
"83 531 LINE",
"180 434 LINE",
"180 381 LINE"
);
},
{
nodes = (
"197 381 LINE",
"197 433 LINE",
"294 531 LINE",
"347 531 LINE",
"347 478 LINE",
"250 381 LINE"
);
},
{
nodes = (
"294 212 LINE",
"197 310 LINE",
"197 362 LINE",
"250 362 LINE",
"347 265 LINE",
"347 212 LINE"
);
}
);
width = 375;
}
);
unicode = 00D7;
},
{
glyphname = Oslash;
layers = (
{
layerId = "14D7FEEC-2E75-40D5-AE74-B547D0DC8BA7";
paths = (
{
nodes = (
"38 56 LINE",
"38 317 LINE",
"57 336 LINE",
"113 280 LINE",
"113 93 LINE",
"57 38 LINE"
);
},
{
nodes = (
"94 0 LINE",
"75 19 LINE",
"131 75 LINE",
"318 75 LINE",
"373 19 LINE",
"355 0 LINE"
);
},
{
nodes = (
"131 156 LINE",
"131 282 LINE",
"106 307 LINE",
"117 325 LINE",
"169 352 LINE",
"188 301 LINE"
);
},
{
nodes = (
"336 93 LINE",
"336 280 LINE",
"392 336 LINE",
"411 317 LINE",
"411 56 LINE",
"392 38 LINE"
);
},
{
nodes = (
"57 354 LINE",
"38 373 LINE",
"38 634 LINE",
"57 652 LINE",
"113 597 LINE",
"113 410 LINE"
);
},
{
nodes = (
"131 615 LINE",
"75 671 LINE",
"94 690 LINE",
"355 690 LINE",
"373 671 LINE",
"318 615 LINE"
);
},
{
nodes = (
"175 366 LINE",
"152 415 LINE",
"225 601 LINE",
"225 593 LINE",
"303 593 LINE",
"221 386 LINE"
);
},
{
nodes = (
"392 354 LINE",
"336 410 LINE",
"336 596 LINE",
"392 652 LINE",
"411 634 LINE",
"411 373 LINE"
);
},
{
nodes = (
"266 706 LINE",
"306 807 LINE",
"359 834 LINE",
"378 783 LINE",
"347 706 LINE"
);
},
{
nodes = (
"-15 -115 LINE",
"-37 -66 LINE",
"21 81 LINE",
"21 39 LINE",
"66 -7 LINE",
"32 -95 LINE"
);
}
);
width = 447;
}
);
unicode = 00D8;
},
{
glyphname = Ugrave;
layers = (
{
layerId = "14D7FEEC-2E75-40D5-AE74-B547D0DC8BA7";
paths = (
{
nodes = (
"36 19 LINE",
"36 317 LINE",
"55 335 LINE",
"111 279 LINE",
"111 93 LINE"
);
},
{
nodes = (
"55 0 LINE",
"129 74 LINE",
"316 74 LINE",
"390 0 LINE"
);
},
{
nodes = (
"334 93 LINE",
"334 279 LINE",
"390 335 LINE",
"409 317 LINE",
"409 19 LINE"
);
},
{
nodes = (
"55 354 LINE",
"36 373 LINE",
"36 689 LINE",
"111 615 LINE",
"111 410 LINE"
);
},
{
nodes = (
"390 354 LINE",
"334 410 LINE",
"334 615 LINE",
"409 689 LINE",
"409 373 LINE"
);
},
{
nodes = (
"157 795 LINE",
"155 851 LINE",
"206 851 LINE",
"292 749 LINE",
"259 723 LINE"
);
}
);
width = 447;
}
);
unicode = 00D9;
},
{
glyphname = Uacute;
layers = (
{
layerId = "14D7FEEC-2E75-40D5-AE74-B547D0DC8BA7";
paths = (
{
nodes = (
"36 19 LINE",
"36 317 LINE",
"55 335 LINE",
"111 279 LINE",
"111 93 LINE"
);
},
{
nodes = (
"55 0 LINE",
"129 74 LINE",
"316 74 LINE",
"390 0 LINE"
);
},
{
nodes = (
"334 93 LINE",
"334 279 LINE",
"390 335 LINE",
"409 317 LINE",
"409 19 LINE"
);
},
{
nodes = (
"55 354 LINE",
"36 373 LINE",
"36 689 LINE",
"111 615 LINE",
"111 410 LINE"
);
},
{
nodes = (
"390 354 LINE",
"334 410 LINE",
"334 615 LINE",
"409 689 LINE",
"409 373 LINE"
);
},
{
nodes = (
"155 749 LINE",
"241 851 LINE",
"292 851 LINE",
"290 795 LINE",
"188 723 LINE"
);
}
);
width = 447;
}
);
unicode = 00DA;
},
{
glyphname = Ucircumflex;
layers = (
{
layerId = "14D7FEEC-2E75-40D5-AE74-B547D0DC8BA7";
paths = (
{
nodes = (
"36 19 LINE",
"36 317 LINE",
"55 335 LINE",
"111 279 LINE",
"111 93 LINE"
);
},
{
nodes = (
"55 0 LINE",
"129 74 LINE",
"316 74 LINE",
"390 0 LINE"
);
},
{
nodes = (
"334 93 LINE",
"334 279 LINE",
"390 335 LINE",
"409 317 LINE",
"409 19 LINE"
);
},
{
nodes = (
"55 354 LINE",
"36 373 LINE",
"36 689 LINE",
"111 615 LINE",
"111 410 LINE"
);
},
{
nodes = (
"390 354 LINE",
"334 410 LINE",
"334 615 LINE",
"409 689 LINE",
"409 373 LINE"
);
},
{
nodes = (
"96 749 LINE",
"182 851 LINE",
"262 851 LINE",
"348 749 LINE",
"315 723 LINE",
"222 788 LINE",
"129 723 LINE"
);
}
);
width = 447;
}
);
unicode = 00DB;
},
{
glyphname = Udieresis;
layers = (
{
layerId = "14D7FEEC-2E75-40D5-AE74-B547D0DC8BA7";
paths = (
{
nodes = (
"36 19 LINE",
"36 317 LINE",
"55 335 LINE",
"111 279 LINE",
"111 93 LINE"
);
},
{
nodes = (
"55 0 LINE",
"129 74 LINE",
"316 74 LINE",
"390 0 LINE"
);
},
{
nodes = (
"334 93 LINE",
"334 279 LINE",
"390 335 LINE",
"409 317 LINE",
"409 19 LINE"
);
},
{
nodes = (
"55 354 LINE",
"36 373 LINE",
"36 689 LINE",
"111 615 LINE",
"111 410 LINE"
);
},
{
nodes = (
"390 354 LINE",
"334 410 LINE",
"334 615 LINE",
"409 689 LINE",
"409 373 LINE"
);
},
{
nodes = (
"88 738 LINE",
"88 828 LINE",
"179 828 LINE",
"179 738 LINE"
);
},
{
nodes = (
"267 738 LINE",
"267 828 LINE",
"358 828 LINE",
"358 738 LINE"
);
}
);
width = 447;
}
);
unicode = 00DC;
},
{
glyphname = Yacute;
layers = (
{
layerId = "14D7FEEC-2E75-40D5-AE74-B547D0DC8BA7";
paths = (
{
nodes = (
"37 0 LINE",
"112 74 LINE",
"317 74 LINE",
"373 18 LINE",
"354 0 LINE"
);
},
{
nodes = (
"391 37 LINE",
"335 93 LINE",
"335 279 LINE",
"391 335 LINE",
"410 317 LINE",
"410 56 LINE"
);
},
{
nodes = (
"55 354 LINE",
"37 372 LINE",
"37 689 LINE",
"111 614 LINE",
"111 409 LINE"
);
},
{
nodes = (
"120 307 LINE",
"83 344 LINE",
"120 382 LINE",
"326 382 LINE",
"363 344 LINE",
"326 307 LINE"
);
},
{
nodes = (
"391 354 LINE",
"335 410 LINE",
"335 615 LINE",
"410 689 LINE",
"410 373 LINE"
);
},
{
nodes = (
"155 749 LINE",
"241 851 LINE",
"292 851 LINE",
"290 795 LINE",
"188 723 LINE"
);
}
);
width = 447;
}
);
unicode = 00DD;
},
{
glyphname = Thorn;
layers = (
{
layerId = "14D7FEEC-2E75-40D5-AE74-B547D0DC8BA7";
paths = (
{
nodes = (
"90 0 LINE",
"34 56 LINE",
"34 279 LINE",
"90 335 LINE",
"109 316 LINE",
"109 18 LINE"
);
},
{
nodes = (
"132 88 LINE",
"132 163 LINE",
"387 163 LINE",
"442 107 LINE",
"424 88 LINE"
);
},
{
nodes = (
"405 181 LINE",
"405 279 LINE",
"461 335 LINE",
"480 316 LINE",
"480 144 LINE",
"461 126 LINE"
);
},
{
nodes = (
"90 354 LINE",
"34 410 LINE",
"34 633 LINE",
"90 689 LINE",
"109 670 LINE",
"109 372 LINE"
);
},
{
nodes = (
"132 539 LINE",
"132 614 LINE",
"424 614 LINE",
"442 595 LINE",
"387 539 LINE"
);
},
{
nodes = (
"461 353 LINE",
"405 409 LINE",
"405 521 LINE",
"461 576 LINE",
"480 558 LINE",
"480 372 LINE"
);
}
);
width = 503;
}
);
unicode = 00DE;
},
{
glyphname = germandbls;
layers = (
{
layerId = "14D7FEEC-2E75-40D5-AE74-B547D0DC8BA7";
paths = (
{
nodes = (
"131 614 LINE",
"112 633 OFFCURVE",
"75 669 OFFCURVE",
"57 689 QCURVE",
"355 689 LINE",
"373 670 LINE",
"318 614 LINE"
);
},
{
nodes = (
"38 372 LINE",
"38 670 LINE",
"113 596 LINE",
"113 410 LINE",
"57 354 LINE"
);
},
{
nodes = (
"336 409 LINE",
"336 596 LINE",
"392 652 LINE",
"411 633 LINE",
"411 372 LINE",
"392 354 LINE"
);
},
{
nodes = (
"165 344 LINE",
"203 382 LINE",
"327 382 LINE",
"365 344 LINE",
"327 307 LINE",
"203 307 LINE"
);
},
{
nodes = (
"38 0 LINE",
"38 316 LINE",
"57 335 LINE",
"113 279 LINE",
"113 74 LINE"
);
},
{
nodes = (
"392 37 LINE",
"336 93 LINE",
"336 279 LINE",
"392 335 LINE",
"411 317 LINE",
"411 56 LINE"
);
},
{
nodes = (
"129 0 LINE",
"202 74 LINE",
"318 74 LINE",
"373 18 LINE",
"355 0 LINE"
);
}
);
width = 447;
}
);
unicode = 00DF;
},
{
glyphname = agrave;
layers = (
{
layerId = "14D7FEEC-2E75-40D5-AE74-B547D0DC8BA7";
paths = (
{
nodes = (
"37 0 LINE",
"37 316 LINE",
"56 335 LINE",
"111 279 LINE",
"111 74 LINE"
);
},
{
nodes = (
"120 307 LINE",
"83 344 LINE",
"120 382 LINE",
"326 382 LINE",
"363 344 LINE",
"326 307 LINE"
);
},
{
nodes = (
"335 74 LINE",
"335 279 LINE",
"391 335 LINE",
"409 316 LINE",
"409 0 LINE"
);
},
{
nodes = (
"55 354 LINE",
"37 372 LINE",
"37 670 LINE",
"111 596 LINE",
"111 409 LINE"
);
},
{
nodes = (
"130 614 LINE",
"55 689 LINE",
"391 689 LINE",
"316 614 LINE"
);
},
{
nodes = (
"335 409 LINE",
"335 596 LINE",
"409 670 LINE",
"409 372 LINE",
"391 354 LINE"
);
},
{
nodes = (
"157 795 LINE",
"155 851 LINE",
"206 851 LINE",
"292 749 LINE",
"259 723 LINE"
);
}
);
width = 447;
}
);
unicode = 00E0;
},
{
glyphname = aacute;
layers = (
{
layerId = "14D7FEEC-2E75-40D5-AE74-B547D0DC8BA7";
paths = (
{
nodes = (
"37 0 LINE",
"37 316 LINE",
"56 335 LINE",
"111 279 LINE",
"111 74 LINE"
);
},
{
nodes = (
"120 307 LINE",
"83 344 LINE",
"120 382 LINE",
"326 382 LINE",
"363 344 LINE",
"326 307 LINE"
);
},
{
nodes = (
"335 74 LINE",
"335 279 LINE",
"391 335 LINE",
"409 316 LINE",
"409 0 LINE"
);
},
{
nodes = (
"55 354 LINE",
"37 372 LINE",
"37 670 LINE",
"111 596 LINE",
"111 409 LINE"
);
},
{
nodes = (
"130 614 LINE",
"55 689 LINE",
"391 689 LINE",
"316 614 LINE"
);
},
{
nodes = (
"335 409 LINE",
"335 596 LINE",
"409 670 LINE",
"409 372 LINE",
"391 354 LINE"
);
},
{
nodes = (
"155 749 LINE",
"241 851 LINE",
"292 851 LINE",
"290 795 LINE",
"188 723 LINE"
);
}
);
width = 447;
}
);
unicode = 00E1;
},
{
glyphname = acircumflex;
layers = (
{
layerId = "14D7FEEC-2E75-40D5-AE74-B547D0DC8BA7";
paths = (
{
nodes = (
"37 0 LINE",
"37 316 LINE",
"56 335 LINE",
"111 279 LINE",
"111 74 LINE"
);
},
{
nodes = (
"120 307 LINE",
"83 344 LINE",
"120 382 LINE",
"326 382 LINE",
"363 344 LINE",
"326 307 LINE"
);
},
{
nodes = (
"335 74 LINE",
"335 279 LINE",
"391 335 LINE",
"409 316 LINE",
"409 0 LINE"
);
},
{
nodes = (
"55 354 LINE",
"37 372 LINE",
"37 670 LINE",
"111 596 LINE",
"111 409 LINE"
);
},
{
nodes = (
"96 749 LINE",
"182 851 LINE",
"262 851 LINE",
"348 749 LINE",
"315 723 LINE",
"222 788 LINE",
"129 723 LINE"
);
},
{
nodes = (
"130 614 LINE",
"55 689 LINE",
"391 689 LINE",
"316 614 LINE"
);
},
{
nodes = (
"335 409 LINE",
"335 596 LINE",
"409 670 LINE",
"409 372 LINE",
"391 354 LINE"
);
}
);
width = 447;
}
);
unicode = 00E2;
},
{
glyphname = atilde;
layers = (
{
layerId = "14D7FEEC-2E75-40D5-AE74-B547D0DC8BA7";
paths = (
{
nodes = (
"37 0 LINE",
"37 316 LINE",
"56 335 LINE",
"111 279 LINE",
"111 74 LINE"
);
},
{
nodes = (
"120 307 LINE",
"83 344 LINE",
"120 382 LINE",
"326 382 LINE",
"363 344 LINE",
"326 307 LINE"
);
},
{
nodes = (
"335 74 LINE",
"335 279 LINE",
"391 335 LINE",
"409 316 LINE",
"409 0 LINE"
);
},
{
nodes = (
"55 354 LINE",
"37 372 LINE",
"37 670 LINE",
"111 596 LINE",
"111 409 LINE"
);
},
{
nodes = (
"130 614 LINE",
"55 689 LINE",
"391 689 LINE",
"316 614 LINE"
);
},
{
nodes = (
"335 409 LINE",
"335 596 LINE",
"409 670 LINE",
"409 372 LINE",
"391 354 LINE"
);
},
{
nodes = (
"97 750 LINE",
"183 852 LINE",
"237 852 LINE",
"277 806 LINE",
"343 852 LINE",
"376 826 LINE",
"290 724 LINE",
"210 780 LINE",
"130 724 LINE"
);
}
);
width = 447;
}
);
unicode = 00E3;
},
{
glyphname = adieresis;
layers = (
{
layerId = "14D7FEEC-2E75-40D5-AE74-B547D0DC8BA7";
paths = (
{
nodes = (
"37 0 LINE",
"37 316 LINE",
"56 335 LINE",
"111 279 LINE",
"111 74 LINE"
);
},
{
nodes = (
"335 74 LINE",
"335 279 LINE",
"391 335 LINE",
"409 316 LINE",
"409 0 LINE"
);
},
{
nodes = (
"55 354 LINE",
"37 372 LINE",
"37 670 LINE",
"111 596 LINE",
"111 409 LINE"
);
},
{
nodes = (
"120 307 LINE",
"83 344 LINE",
"120 382 LINE",
"326 382 LINE",
"363 344 LINE",
"326 307 LINE"
);
},
{
nodes = (
"130 614 LINE",
"55 689 LINE",
"391 689 LINE",
"316 614 LINE"
);
},
{
nodes = (
"335 409 LINE",
"335 596 LINE",
"409 670 LINE",
"409 372 LINE",
"391 354 LINE"
);
},
{
nodes = (
"88 738 LINE",
"88 828 LINE",
"179 828 LINE",
"179 738 LINE"
);
},
{
nodes = (
"267 738 LINE",
"267 828 LINE",
"358 828 LINE",
"358 738 LINE"
);
}
);
width = 447;
}
);
unicode = 00E4;
},
{
glyphname = aring;
layers = (
{
layerId = "14D7FEEC-2E75-40D5-AE74-B547D0DC8BA7";
paths = (
{
nodes = (
"37 0 LINE",
"37 316 LINE",
"56 335 LINE",
"111 279 LINE",
"111 74 LINE"
);
},
{
nodes = (
"335 74 LINE",
"335 279 LINE",
"391 335 LINE",
"409 316 LINE",
"409 0 LINE"
);
},
{
nodes = (
"55 354 LINE",
"37 372 LINE",
"37 670 LINE",
"111 596 LINE",
"111 409 LINE"
);
},
{
nodes = (
"120 307 LINE",
"83 344 LINE",
"120 382 LINE",
"326 382 LINE",
"363 344 LINE",
"326 307 LINE"
);
},
{
nodes = (
"111 762 LINE",
"98 804 LINE",
"98 823 LINE",
"111 865 LINE",
"219 906 LINE",
"319 865 LINE",
"331 823 LINE",
"331 804 LINE",
"319 762 LINE",
"219 721 LINE"
);
},
{
nodes = (
"148 813 LINE",
"214 761 LINE",
"282 813 LINE",
"214 867 LINE"
);
},
{
nodes = (
"130 614 LINE",
"55 689 LINE",
"391 689 LINE",
"316 614 LINE"
);
},
{
nodes = (
"335 409 LINE",
"335 596 LINE",
"409 670 LINE",
"409 372 LINE",
"391 354 LINE"
);
}
);
width = 447;
}
);
unicode = 00E5;
},
{
glyphname = ae;
layers = (
{
layerId = "14D7FEEC-2E75-40D5-AE74-B547D0DC8BA7";
paths = (
{
nodes = (
"37 0 LINE",
"37 316 LINE",
"56 335 LINE",
"111 279 LINE",
"111 74 LINE"
);
},
{
nodes = (
"364 19 LINE",
"364 317 LINE",
"383 336 LINE",
"438 280 LINE",
"438 94 LINE"
);
},
{
nodes = (
"383 0 LINE",
"457 75 LINE",
"643 75 LINE",
"718 0 LINE"
);
},
{
nodes = (
"55 354 LINE",
"37 372 LINE",
"37 670 LINE",
"111 596 LINE",
"111 409 LINE"
);
},
{
nodes = (
"120 307 LINE",
"83 344 LINE",
"120 382 LINE",
"326 382 LINE",
"363 344 LINE",
"326 307 LINE"
);
},
{
nodes = (
"447 308 LINE",
"410 345 LINE",
"447 382 LINE",
"653 382 LINE",
"690 345 LINE",
"653 308 LINE"
);
},
{
nodes = (
"130 614 LINE",
"55 689 LINE",
"718 690 LINE",
"643 615 LINE",
"515 615 LINE",
"516 614 LINE"
);
},
{
nodes = (
"383 354 LINE",
"364 373 LINE",
"364 595 LINE",
"438 595 LINE",
"438 410 LINE"
);
}
);
width = 747;
}
);
unicode = 00E6;
},
{
glyphname = ccedilla;
layers = (
{
layerId = "14D7FEEC-2E75-40D5-AE74-B547D0DC8BA7";
paths = (
{
nodes = (
"55 36 LINE",
"37 54 LINE",
"37 315 LINE",
"55 334 LINE",
"111 278 LINE",
"111 92 LINE"
);
},
{
nodes = (
"55 353 LINE",
"37 371 LINE",
"37 632 LINE",
"55 651 LINE",
"111 595 LINE",
"111 409 LINE"
);
},
{
nodes = (
"130 614 LINE",
"74 670 LINE",
"93 688 LINE",
"391 688 LINE",
"316 614 LINE"
);
},
{
nodes = (
"74 17 LINE",
"130 73 LINE",
"316 73 LINE",
"391 -1 LINE",
"220 -1 LINE",
"200 -45 LINE",
"293 -45 LINE",
"319 -93 LINE",
"319 -160 LINE",
"277 -200 LINE",
"146 -200 LINE",
"188 -148 LINE",
"264 -148 LINE",
"264 -81 LINE",
"177 -80 LINE",
"144 -68 LINE",
"173 -1 LINE",
"93 -1 LINE"
);
}
);
width = 405;
}
);
unicode = 00E7;
},
{
glyphname = egrave;
layers = (
{
layerId = "14D7FEEC-2E75-40D5-AE74-B547D0DC8BA7";
paths = (
{
nodes = (
"38 19 LINE",
"38 317 LINE",
"57 336 LINE",
"112 280 LINE",
"112 94 LINE"
);
},
{
nodes = (
"57 0 LINE",
"131 75 LINE",
"317 75 LINE",
"392 0 LINE"
);
},
{
nodes = (
"57 354 LINE",
"38 373 LINE",
"38 671 LINE",
"112 597 LINE",
"112 410 LINE"
);
},
{
nodes = (
"121 308 LINE",
"84 345 LINE",
"121 382 LINE",
"327 382 LINE",
"364 345 LINE",
"327 308 LINE"
);
},
{
nodes = (
"157 795 LINE",
"155 851 LINE",
"206 851 LINE",
"292 749 LINE",
"259 723 LINE"
);
},
{
nodes = (
"131 615 LINE",
"57 690 LINE",
"392 690 LINE",
"317 615 LINE"
);
}
);
width = 412;
}
);
unicode = 00E8;
},
{
glyphname = eacute;
layers = (
{
layerId = "14D7FEEC-2E75-40D5-AE74-B547D0DC8BA7";
paths = (
{
nodes = (
"38 19 LINE",
"38 317 LINE",
"57 336 LINE",
"112 280 LINE",
"112 94 LINE"
);
},
{
nodes = (
"57 0 LINE",
"131 75 LINE",
"317 75 LINE",
"392 0 LINE"
);
},
{
nodes = (
"57 354 LINE",
"38 373 LINE",
"38 671 LINE",
"112 597 LINE",
"112 410 LINE"
);
},
{
nodes = (
"121 308 LINE",
"84 345 LINE",
"121 382 LINE",
"327 382 LINE",
"364 345 LINE",
"327 308 LINE"
);
},
{
nodes = (
"155 749 LINE",
"241 851 LINE",
"292 851 LINE",
"290 795 LINE",
"188 723 LINE"
);
},
{
nodes = (
"131 615 LINE",
"57 690 LINE",
"392 690 LINE",
"317 615 LINE"
);
}
);
width = 412;
}
);
unicode = 00E9;
},
{
glyphname = ecircumflex;
layers = (
{
layerId = "14D7FEEC-2E75-40D5-AE74-B547D0DC8BA7";
paths = (
{
nodes = (
"38 19 LINE",
"38 317 LINE",
"57 336 LINE",
"112 280 LINE",
"112 94 LINE"
);
},
{
nodes = (
"57 0 LINE",
"131 75 LINE",
"317 75 LINE",
"392 0 LINE"
);
},
{
nodes = (
"57 354 LINE",
"38 373 LINE",
"38 671 LINE",
"112 597 LINE",
"112 410 LINE"
);
},
{
nodes = (
"121 308 LINE",
"84 345 LINE",
"121 382 LINE",
"327 382 LINE",
"364 345 LINE",
"327 308 LINE"
);
},
{
nodes = (
"96 749 LINE",
"182 851 LINE",
"262 851 LINE",
"348 749 LINE",
"315 723 LINE",
"222 788 LINE",
"129 723 LINE"
);
},
{
nodes = (
"131 615 LINE",
"57 690 LINE",
"392 690 LINE",
"317 615 LINE"
);
}
);
width = 412;
}
);
unicode = 00EA;
},
{
glyphname = edieresis;
layers = (
{
layerId = "14D7FEEC-2E75-40D5-AE74-B547D0DC8BA7";
paths = (
{
nodes = (
"38 19 LINE",
"38 317 LINE",
"57 336 LINE",
"112 280 LINE",
"112 94 LINE"
);
},
{
nodes = (
"57 0 LINE",
"131 75 LINE",
"317 75 LINE",
"392 0 LINE"
);
},
{
nodes = (
"57 354 LINE",
"38 373 LINE",
"38 671 LINE",
"112 597 LINE",
"112 410 LINE"
);
},
{
nodes = (
"121 308 LINE",
"84 345 LINE",
"121 382 LINE",
"327 382 LINE",
"364 345 LINE",
"327 308 LINE"
);
},
{
nodes = (
"79 738 LINE",
"79 828 LINE",
"170 828 LINE",
"170 738 LINE"
);
},
{
nodes = (
"131 615 LINE",
"57 690 LINE",
"392 690 LINE",
"317 615 LINE"
);
},
{
nodes = (
"258 738 LINE",
"258 828 LINE",
"349 828 LINE",
"349 738 LINE"
);
}
);
width = 412;
}
);
unicode = 00EB;
},
{
glyphname = igrave;
layers = (
{
layerId = "14D7FEEC-2E75-40D5-AE74-B547D0DC8BA7";
paths = (
{
nodes = (
"90 0 LINE",
"34 56 LINE",
"34 279 LINE",
"90 335 LINE",
"109 316 LINE",
"109 18 LINE"
);
},
{
nodes = (
"90 354 LINE",
"34 410 LINE",
"34 633 LINE",
"90 689 LINE",
"109 670 LINE",
"109 372 LINE"
);
},
{
nodes = (
"-3 795 LINE",
"-5 851 LINE",
"46 851 LINE",
"132 749 LINE",
"99 723 LINE"
);
}
);
width = 145;
}
);
unicode = 00EC;
},
{
glyphname = iacute;
layers = (
{
layerId = "14D7FEEC-2E75-40D5-AE74-B547D0DC8BA7";
paths = (
{
nodes = (
"90 0 LINE",
"34 56 LINE",
"34 279 LINE",
"90 335 LINE",
"109 316 LINE",
"109 18 LINE"
);
},
{
nodes = (
"90 354 LINE",
"34 410 LINE",
"34 633 LINE",
"90 689 LINE",
"109 670 LINE",
"109 372 LINE"
);
},
{
nodes = (
"6 749 LINE",
"92 851 LINE",
"143 851 LINE",
"141 795 LINE",
"39 723 LINE"
);
}
);
width = 145;
}
);
unicode = 00ED;
},
{
glyphname = icircumflex;
layers = (
{
layerId = "14D7FEEC-2E75-40D5-AE74-B547D0DC8BA7";
paths = (
{
nodes = (
"90 0 LINE",
"34 56 LINE",
"34 279 LINE",
"90 335 LINE",
"109 316 LINE",
"109 18 LINE"
);
},
{
nodes = (
"90 354 LINE",
"34 410 LINE",
"34 633 LINE",
"90 689 LINE",
"109 670 LINE",
"109 372 LINE"
);
},
{
nodes = (
"-38 749 LINE",
"48 851 LINE",
"128 851 LINE",
"214 749 LINE",
"181 723 LINE",
"88 788 LINE",
"-5 723 LINE"
);
}
);
width = 145;
}
);
unicode = 00EE;
},
{
glyphname = idieresis;
layers = (
{
layerId = "14D7FEEC-2E75-40D5-AE74-B547D0DC8BA7";
paths = (
{
nodes = (
"90 0 LINE",
"34 56 LINE",
"34 279 LINE",
"90 335 LINE",
"109 316 LINE",
"109 18 LINE"
);
},
{
nodes = (
"90 354 LINE",
"34 410 LINE",
"34 633 LINE",
"90 689 LINE",
"109 670 LINE",
"109 372 LINE"
);
},
{
nodes = (
"-64 738 LINE",
"-64 828 LINE",
"27 828 LINE",
"27 738 LINE"
);
},
{
nodes = (
"115 738 LINE",
"115 828 LINE",
"206 828 LINE",
"206 738 LINE"
);
}
);
width = 145;
}
);
unicode = 00EF;
},
{
glyphname = eth;
layers = (
{
layerId = "14D7FEEC-2E75-40D5-AE74-B547D0DC8BA7";
paths = (
{
nodes = (
"48 306 LINE",
"11 343 LINE",
"48 380 LINE",
"89 380 LINE",
"126 343 LINE",
"89 306 LINE"
);
},
{
nodes = (
"107 19 LINE",
"107 295 LINE",
"145 335 LINE",
"182 292 LINE",
"182 93 LINE"
);
},
{
nodes = (
"126 0 LINE",
"200 74 LINE",
"387 74 LINE",
"442 18 LINE",
"424 0 LINE"
);
},
{
nodes = (
"461 37 LINE",
"405 93 LINE",
"405 279 LINE",
"461 335 LINE",
"480 317 LINE",
"480 56 LINE"
);
},
{
nodes = (
"145 354 LINE",
"107 394 LINE",
"107 671 LINE",
"182 596 LINE",
"182 394 LINE"
);
},
{
nodes = (
"202 306 LINE",
"165 343 LINE",
"202 380 LINE",
"278 380 LINE",
"315 343 LINE",
"278 306 LINE"
);
},
{
nodes = (
"200 615 LINE",
"126 689 LINE",
"424 689 LINE",
"442 671 LINE",
"387 615 LINE"
);
},
{
nodes = (
"461 354 LINE",
"405 410 LINE",
"405 596 LINE",
"461 652 LINE",
"480 634 LINE",
"480 373 LINE"
);
}
);
width = 505;
}
);
unicode = 00F0;
},
{
glyphname = ntilde;
layers = (
{
layerId = "14D7FEEC-2E75-40D5-AE74-B547D0DC8BA7";
paths = (
{
nodes = (
"57 0 LINE",
"39 18 LINE",
"39 316 LINE",
"57 335 LINE",
"113 279 LINE",
"113 56 LINE"
);
},
{
nodes = (
"393 0 LINE",
"337 56 LINE",
"337 279 LINE",
"393 335 LINE",
"411 316 LINE",
"411 18 LINE"
);
},
{
nodes = (
"57 354 LINE",
"39 372 LINE",
"39 670 LINE",
"57 689 LINE",
"113 633 LINE",
"113 410 LINE"
);
},
{
nodes = (
"139 553 LINE",
"139 633 LINE",
"165 633 LINE",
"311 487 LINE",
"311 410 LINE",
"283 410 LINE"
);
},
{
nodes = (
"393 354 LINE",
"337 410 LINE",
"337 633 LINE",
"393 689 LINE",
"411 670 LINE",
"411 372 LINE"
);
},
{
nodes = (
"97 750 LINE",
"183 852 LINE",
"237 852 LINE",
"277 806 LINE",
"343 852 LINE",
"376 826 LINE",
"290 724 LINE",
"210 780 LINE",
"130 724 LINE"
);
}
);
width = 447;
}
);
unicode = 00F1;
},
{
glyphname = ograve;
layers = (
{
layerId = "14D7FEEC-2E75-40D5-AE74-B547D0DC8BA7";
paths = (
{
nodes = (
"38 56 LINE",
"38 317 LINE",
"57 336 LINE",
"113 280 LINE",
"113 93 LINE",
"57 38 LINE"
);
},
{
nodes = (
"94 0 LINE",
"75 19 LINE",
"131 75 LINE",
"318 75 LINE",
"373 19 LINE",
"355 0 LINE"
);
},
{
nodes = (
"336 93 LINE",
"336 280 LINE",
"392 336 LINE",
"411 317 LINE",
"411 56 LINE",
"392 38 LINE"
);
},
{
nodes = (
"57 354 LINE",
"38 373 LINE",
"38 634 LINE",
"57 652 LINE",
"113 597 LINE",
"113 410 LINE"
);
},
{
nodes = (
"131 615 LINE",
"75 671 LINE",
"94 690 LINE",
"355 690 LINE",
"373 671 LINE",
"318 615 LINE"
);
},
{
nodes = (
"392 354 LINE",
"336 410 LINE",
"336 596 LINE",
"392 652 LINE",
"411 634 LINE",
"411 373 LINE"
);
},
{
nodes = (
"157 795 LINE",
"155 851 LINE",
"206 851 LINE",
"292 749 LINE",
"259 723 LINE"
);
}
);
width = 447;
}
);
unicode = 00F2;
},
{
glyphname = oacute;
layers = (
{
layerId = "14D7FEEC-2E75-40D5-AE74-B547D0DC8BA7";
paths = (
{
nodes = (
"38 56 LINE",
"38 317 LINE",
"57 336 LINE",
"113 280 LINE",
"113 93 LINE",
"57 38 LINE"
);
},
{
nodes = (
"94 0 LINE",
"75 19 LINE",
"131 75 LINE",
"318 75 LINE",
"373 19 LINE",
"355 0 LINE"
);
},
{
nodes = (
"336 93 LINE",
"336 280 LINE",
"392 336 LINE",
"411 317 LINE",
"411 56 LINE",
"392 38 LINE"
);
},
{
nodes = (
"57 354 LINE",
"38 373 LINE",
"38 634 LINE",
"57 652 LINE",
"113 597 LINE",
"113 410 LINE"
);
},
{
nodes = (
"131 615 LINE",
"75 671 LINE",
"94 690 LINE",
"355 690 LINE",
"373 671 LINE",
"318 615 LINE"
);
},
{
nodes = (
"392 354 LINE",
"336 410 LINE",
"336 596 LINE",
"392 652 LINE",
"411 634 LINE",
"411 373 LINE"
);
},
{
nodes = (
"155 749 LINE",
"241 851 LINE",
"292 851 LINE",
"290 795 LINE",
"188 723 LINE"
);
}
);
width = 447;
}
);
unicode = 00F3;
},
{
glyphname = ocircumflex;
layers = (
{
layerId = "14D7FEEC-2E75-40D5-AE74-B547D0DC8BA7";
paths = (
{
nodes = (
"38 56 LINE",
"38 317 LINE",
"57 336 LINE",
"113 280 LINE",
"113 93 LINE",
"57 38 LINE"
);
},
{
nodes = (
"94 0 LINE",
"75 19 LINE",
"131 75 LINE",
"318 75 LINE",
"373 19 LINE",
"355 0 LINE"
);
},
{
nodes = (
"336 93 LINE",
"336 280 LINE",
"392 336 LINE",
"411 317 LINE",
"411 56 LINE",
"392 38 LINE"
);
},
{
nodes = (
"57 354 LINE",
"38 373 LINE",
"38 634 LINE",
"57 652 LINE",
"113 597 LINE",
"113 410 LINE"
);
},
{
nodes = (
"96 749 LINE",
"182 851 LINE",
"262 851 LINE",
"348 749 LINE",
"315 723 LINE",
"222 788 LINE",
"129 723 LINE"
);
},
{
nodes = (
"131 615 LINE",
"75 671 LINE",
"94 690 LINE",
"355 690 LINE",
"373 671 LINE",
"318 615 LINE"
);
},
{
nodes = (
"392 354 LINE",
"336 410 LINE",
"336 596 LINE",
"392 652 LINE",
"411 634 LINE",
"411 373 LINE"
);
}
);
width = 447;
}
);
unicode = 00F4;
},
{
glyphname = otilde;
layers = (
{
layerId = "14D7FEEC-2E75-40D5-AE74-B547D0DC8BA7";
paths = (
{
nodes = (
"38 56 LINE",
"38 317 LINE",
"57 336 LINE",
"113 280 LINE",
"113 93 LINE",
"57 38 LINE"
);
},
{
nodes = (
"94 0 LINE",
"75 19 LINE",
"131 75 LINE",
"318 75 LINE",
"373 19 LINE",
"355 0 LINE"
);
},
{
nodes = (
"336 93 LINE",
"336 280 LINE",
"392 336 LINE",
"411 317 LINE",
"411 56 LINE",
"392 38 LINE"
);
},
{
nodes = (
"57 354 LINE",
"38 373 LINE",
"38 634 LINE",
"57 652 LINE",
"113 597 LINE",
"113 410 LINE"
);
},
{
nodes = (
"131 615 LINE",
"75 671 LINE",
"94 690 LINE",
"355 690 LINE",
"373 671 LINE",
"318 615 LINE"
);
},
{
nodes = (
"392 354 LINE",
"336 410 LINE",
"336 596 LINE",
"392 652 LINE",
"411 634 LINE",
"411 373 LINE"
);
},
{
nodes = (
"97 750 LINE",
"183 852 LINE",
"237 852 LINE",
"277 806 LINE",
"343 852 LINE",
"376 826 LINE",
"290 724 LINE",
"210 780 LINE",
"130 724 LINE"
);
}
);
width = 447;
}
);
unicode = 00F5;
},
{
glyphname = odieresis;
layers = (
{
layerId = "14D7FEEC-2E75-40D5-AE74-B547D0DC8BA7";
paths = (
{
nodes = (
"38 56 LINE",
"38 317 LINE",
"57 336 LINE",
"113 280 LINE",
"113 93 LINE",
"57 38 LINE"
);
},
{
nodes = (
"94 0 LINE",
"75 19 LINE",
"131 75 LINE",
"318 75 LINE",
"373 19 LINE",
"355 0 LINE"
);
},
{
nodes = (
"336 93 LINE",
"336 280 LINE",
"392 336 LINE",
"411 317 LINE",
"411 56 LINE",
"392 38 LINE"
);
},
{
nodes = (
"57 354 LINE",
"38 373 LINE",
"38 634 LINE",
"57 652 LINE",
"113 597 LINE",
"113 410 LINE"
);
},
{
nodes = (
"131 615 LINE",
"75 671 LINE",
"94 690 LINE",
"355 690 LINE",
"373 671 LINE",
"318 615 LINE"
);
},
{
nodes = (
"392 354 LINE",
"336 410 LINE",
"336 596 LINE",
"392 652 LINE",
"411 634 LINE",
"411 373 LINE"
);
},
{
nodes = (
"88 738 LINE",
"88 828 LINE",
"179 828 LINE",
"179 738 LINE"
);
},
{
nodes = (
"267 738 LINE",
"267 828 LINE",
"358 828 LINE",
"358 738 LINE"
);
}
);
width = 447;
}
);
unicode = 00F6;
},
{
glyphname = divide;
layers = (
{
layerId = "14D7FEEC-2E75-40D5-AE74-B547D0DC8BA7";
paths = (
{
nodes = (
"144 163 LINE",
"144 253 LINE",
"235 253 LINE",
"235 163 LINE"
);
},
{
nodes = (
"141 413 LINE",
"141 503 LINE",
"232 503 LINE",
"232 413 LINE"
);
},
{
nodes = (
"61 302 LINE",
"24 339 LINE",
"61 376 LINE",
"325 376 LINE",
"362 339 LINE",
"325 302 LINE"
);
}
);
width = 386;
}
);
unicode = 00F7;
},
{
glyphname = oslash;
layers = (
{
layerId = "14D7FEEC-2E75-40D5-AE74-B547D0DC8BA7";
paths = (
{
nodes = (
"38 56 LINE",
"38 317 LINE",
"57 336 LINE",
"113 280 LINE",
"113 93 LINE",
"57 38 LINE"
);
},
{
nodes = (
"94 0 LINE",
"75 19 LINE",
"131 75 LINE",
"318 75 LINE",
"373 19 LINE",
"355 0 LINE"
);
},
{
nodes = (
"131 156 LINE",
"131 282 LINE",
"106 307 LINE",
"117 325 LINE",
"169 352 LINE",
"188 301 LINE"
);
},
{
nodes = (
"336 93 LINE",
"336 280 LINE",
"392 336 LINE",
"411 317 LINE",
"411 56 LINE",
"392 38 LINE"
);
},
{
nodes = (
"57 354 LINE",
"38 373 LINE",
"38 634 LINE",
"57 652 LINE",
"113 597 LINE",
"113 410 LINE"
);
},
{
nodes = (
"131 615 LINE",
"75 671 LINE",
"94 690 LINE",
"355 690 LINE",
"373 671 LINE",
"318 615 LINE"
);
},
{
nodes = (
"175 366 LINE",
"152 415 LINE",
"225 601 LINE",
"225 593 LINE",
"303 593 LINE",
"221 386 LINE"
);
},
{
nodes = (
"392 354 LINE",
"336 410 LINE",
"336 596 LINE",
"392 652 LINE",
"411 634 LINE",
"411 373 LINE"
);
},
{
nodes = (
"266 706 LINE",
"306 807 LINE",
"359 834 LINE",
"378 783 LINE",
"347 706 LINE"
);
},
{
nodes = (
"-15 -115 LINE",
"-37 -66 LINE",
"21 81 LINE",
"21 39 LINE",
"66 -7 LINE",
"32 -95 LINE"
);
}
);
width = 447;
}
);
unicode = 00F8;
},
{
glyphname = ugrave;
layers = (
{
layerId = "14D7FEEC-2E75-40D5-AE74-B547D0DC8BA7";
paths = (
{
nodes = (
"36 19 LINE",
"36 317 LINE",
"55 335 LINE",
"111 279 LINE",
"111 93 LINE"
);
},
{
nodes = (
"55 0 LINE",
"129 74 LINE",
"316 74 LINE",
"390 0 LINE"
);
},
{
nodes = (
"334 93 LINE",
"334 279 LINE",
"390 335 LINE",
"409 317 LINE",
"409 19 LINE"
);
},
{
nodes = (
"55 354 LINE",
"36 373 LINE",
"36 689 LINE",
"111 615 LINE",
"111 410 LINE"
);
},
{
nodes = (
"390 354 LINE",
"334 410 LINE",
"334 615 LINE",
"409 689 LINE",
"409 373 LINE"
);
},
{
nodes = (
"157 795 LINE",
"155 851 LINE",
"206 851 LINE",
"292 749 LINE",
"259 723 LINE"
);
}
);
width = 447;
}
);
unicode = 00F9;
},
{
glyphname = uacute;
layers = (
{
layerId = "14D7FEEC-2E75-40D5-AE74-B547D0DC8BA7";
paths = (
{
nodes = (
"36 19 LINE",
"36 317 LINE",
"55 335 LINE",
"111 279 LINE",
"111 93 LINE"
);
},
{
nodes = (
"55 0 LINE",
"129 74 LINE",
"316 74 LINE",
"390 0 LINE"
);
},
{
nodes = (
"334 93 LINE",
"334 279 LINE",
"390 335 LINE",
"409 317 LINE",
"409 19 LINE"
);
},
{
nodes = (
"55 354 LINE",
"36 373 LINE",
"36 689 LINE",
"111 615 LINE",
"111 410 LINE"
);
},
{
nodes = (
"390 354 LINE",
"334 410 LINE",
"334 615 LINE",
"409 689 LINE",
"409 373 LINE"
);
},
{
nodes = (
"155 749 LINE",
"241 851 LINE",
"292 851 LINE",
"290 795 LINE",
"188 723 LINE"
);
}
);
width = 447;
}
);
unicode = 00FA;
},
{
glyphname = ucircumflex;
layers = (
{
layerId = "14D7FEEC-2E75-40D5-AE74-B547D0DC8BA7";
paths = (
{
nodes = (
"36 19 LINE",
"36 317 LINE",
"55 335 LINE",
"111 279 LINE",
"111 93 LINE"
);
},
{
nodes = (
"55 0 LINE",
"129 74 LINE",
"316 74 LINE",
"390 0 LINE"
);
},
{
nodes = (
"334 93 LINE",
"334 279 LINE",
"390 335 LINE",
"409 317 LINE",
"409 19 LINE"
);
},
{
nodes = (
"55 354 LINE",
"36 373 LINE",
"36 689 LINE",
"111 615 LINE",
"111 410 LINE"
);
},
{
nodes = (
"390 354 LINE",
"334 410 LINE",
"334 615 LINE",
"409 689 LINE",
"409 373 LINE"
);
},
{
nodes = (
"96 749 LINE",
"182 851 LINE",
"262 851 LINE",
"348 749 LINE",
"315 723 LINE",
"222 788 LINE",
"129 723 LINE"
);
}
);
width = 447;
}
);
unicode = 00FB;
},
{
glyphname = udieresis;
layers = (
{
layerId = "14D7FEEC-2E75-40D5-AE74-B547D0DC8BA7";
paths = (
{
nodes = (
"36 19 LINE",
"36 317 LINE",
"55 335 LINE",
"111 279 LINE",
"111 93 LINE"
);
},
{
nodes = (
"55 0 LINE",
"129 74 LINE",
"316 74 LINE",
"390 0 LINE"
);
},
{
nodes = (
"334 93 LINE",
"334 279 LINE",
"390 335 LINE",
"409 317 LINE",
"409 19 LINE"
);
},
{
nodes = (
"55 354 LINE",
"36 373 LINE",
"36 689 LINE",
"111 615 LINE",
"111 410 LINE"
);
},
{
nodes = (
"390 354 LINE",
"334 410 LINE",
"334 615 LINE",
"409 689 LINE",
"409 373 LINE"
);
},
{
nodes = (
"88 738 LINE",
"88 828 LINE",
"179 828 LINE",
"179 738 LINE"
);
},
{
nodes = (
"267 738 LINE",
"267 828 LINE",
"358 828 LINE",
"358 738 LINE"
);
}
);
width = 447;
}
);
unicode = 00FC;
},
{
glyphname = yacute;
layers = (
{
layerId = "14D7FEEC-2E75-40D5-AE74-B547D0DC8BA7";
paths = (
{
nodes = (
"37 0 LINE",
"112 74 LINE",
"317 74 LINE",
"373 18 LINE",
"354 0 LINE"
);
},
{
nodes = (
"391 37 LINE",
"335 93 LINE",
"335 279 LINE",
"391 335 LINE",
"410 317 LINE",
"410 56 LINE"
);
},
{
nodes = (
"55 354 LINE",
"37 372 LINE",
"37 689 LINE",
"111 614 LINE",
"111 409 LINE"
);
},
{
nodes = (
"120 307 LINE",
"83 344 LINE",
"120 382 LINE",
"326 382 LINE",
"363 344 LINE",
"326 307 LINE"
);
},
{
nodes = (
"391 354 LINE",
"335 410 LINE",
"335 615 LINE",
"410 689 LINE",
"410 373 LINE"
);
},
{
nodes = (
"155 749 LINE",
"241 851 LINE",
"292 851 LINE",
"290 795 LINE",
"188 723 LINE"
);
}
);
width = 447;
}
);
unicode = 00FD;
},
{
glyphname = thorn;
layers = (
{
layerId = "14D7FEEC-2E75-40D5-AE74-B547D0DC8BA7";
paths = (
{
nodes = (
"90 0 LINE",
"34 56 LINE",
"34 279 LINE",
"90 335 LINE",
"109 316 LINE",
"109 18 LINE"
);
},
{
nodes = (
"132 88 LINE",
"132 163 LINE",
"387 163 LINE",
"442 107 LINE",
"424 88 LINE"
);
},
{
nodes = (
"405 181 LINE",
"405 279 LINE",
"461 335 LINE",
"480 316 LINE",
"480 144 LINE",
"461 126 LINE"
);
},
{
nodes = (
"90 354 LINE",
"34 410 LINE",
"34 633 LINE",
"90 689 LINE",
"109 670 LINE",
"109 372 LINE"
);
},
{
nodes = (
"132 539 LINE",
"132 614 LINE",
"424 614 LINE",
"442 595 LINE",
"387 539 LINE"
);
},
{
nodes = (
"461 353 LINE",
"405 409 LINE",
"405 521 LINE",
"461 576 LINE",
"480 558 LINE",
"480 372 LINE"
);
}
);
width = 503;
}
);
unicode = 00FE;
},
{
glyphname = ydieresis;
layers = (
{
layerId = "14D7FEEC-2E75-40D5-AE74-B547D0DC8BA7";
paths = (
{
nodes = (
"37 0 LINE",
"112 74 LINE",
"317 74 LINE",
"373 18 LINE",
"354 0 LINE"
);
},
{
nodes = (
"120 307 LINE",
"83 344 LINE",
"120 382 LINE",
"326 382 LINE",
"363 344 LINE",
"326 307 LINE"
);
},
{
nodes = (
"391 37 LINE",
"335 93 LINE",
"335 279 LINE",
"391 335 LINE",
"410 317 LINE",
"410 56 LINE"
);
},
{
nodes = (
"55 354 LINE",
"37 372 LINE",
"37 689 LINE",
"111 614 LINE",
"111 409 LINE"
);
},
{
nodes = (
"391 354 LINE",
"335 410 LINE",
"335 615 LINE",
"410 689 LINE",
"410 373 LINE"
);
},
{
nodes = (
"88 738 LINE",
"88 828 LINE",
"179 828 LINE",
"179 738 LINE"
);
},
{
nodes = (
"267 738 LINE",
"267 828 LINE",
"358 828 LINE",
"358 738 LINE"
);
}
);
width = 447;
}
);
unicode = 00FF;
},
{
glyphname = Amacron;
layers = (
{
layerId = "14D7FEEC-2E75-40D5-AE74-B547D0DC8BA7";
paths = (
{
nodes = (
"37 0 LINE",
"37 316 LINE",
"56 335 LINE",
"111 279 LINE",
"111 74 LINE"
);
},
{
nodes = (
"120 307 LINE",
"83 344 LINE",
"120 382 LINE",
"326 382 LINE",
"363 344 LINE",
"326 307 LINE"
);
},
{
nodes = (
"335 74 LINE",
"335 279 LINE",
"391 335 LINE",
"409 316 LINE",
"409 0 LINE"
);
},
{
nodes = (
"55 354 LINE",
"37 372 LINE",
"37 670 LINE",
"111 596 LINE",
"111 409 LINE"
);
},
{
nodes = (
"130 614 LINE",
"55 689 LINE",
"391 689 LINE",
"316 614 LINE"
);
},
{
nodes = (
"335 409 LINE",
"335 596 LINE",
"409 670 LINE",
"409 372 LINE",
"391 354 LINE"
);
},
{
nodes = (
"92 779 LINE",
"135 820 LINE",
"309 820 LINE",
"353 779 LINE",
"309 738 LINE",
"135 738 LINE"
);
}
);
width = 447;
}
);
unicode = 0100;
},
{
glyphname = amacron;
layers = (
{
layerId = "14D7FEEC-2E75-40D5-AE74-B547D0DC8BA7";
paths = (
{
nodes = (
"37 0 LINE",
"37 316 LINE",
"56 335 LINE",
"111 279 LINE",
"111 74 LINE"
);
},
{
nodes = (
"120 307 LINE",
"83 344 LINE",
"120 382 LINE",
"326 382 LINE",
"363 344 LINE",
"326 307 LINE"
);
},
{
nodes = (
"335 74 LINE",
"335 279 LINE",
"391 335 LINE",
"409 316 LINE",
"409 0 LINE"
);
},
{
nodes = (
"55 354 LINE",
"37 372 LINE",
"37 670 LINE",
"111 596 LINE",
"111 409 LINE"
);
},
{
nodes = (
"130 614 LINE",
"55 689 LINE",
"391 689 LINE",
"316 614 LINE"
);
},
{
nodes = (
"335 409 LINE",
"335 596 LINE",
"409 670 LINE",
"409 372 LINE",
"391 354 LINE"
);
},
{
nodes = (
"92 779 LINE",
"135 820 LINE",
"309 820 LINE",
"353 779 LINE",
"309 738 LINE",
"135 738 LINE"
);
}
);
width = 447;
}
);
unicode = 0101;
},
{
glyphname = Abreve;
layers = (
{
layerId = "14D7FEEC-2E75-40D5-AE74-B547D0DC8BA7";
paths = (
{
nodes = (
"37 0 LINE",
"37 316 LINE",
"56 335 LINE",
"111 279 LINE",
"111 74 LINE"
);
},
{
nodes = (
"120 307 LINE",
"83 344 LINE",
"120 382 LINE",
"326 382 LINE",
"363 344 LINE",
"326 307 LINE"
);
},
{
nodes = (
"335 74 LINE",
"335 279 LINE",
"391 335 LINE",
"409 316 LINE",
"409 0 LINE"
);
},
{
nodes = (
"55 354 LINE",
"37 372 LINE",
"37 670 LINE",
"111 596 LINE",
"111 409 LINE"
);
},
{
nodes = (
"173 786 LINE",
"261 786 LINE",
"294 838 LINE",
"327 825 LINE",
"283 723 LINE",
"151 723 LINE",
"107 825 LINE",
"140 838 LINE"
);
},
{
nodes = (
"130 614 LINE",
"55 689 LINE",
"391 689 LINE",
"316 614 LINE"
);
},
{
nodes = (
"335 409 LINE",
"335 596 LINE",
"409 670 LINE",
"409 372 LINE",
"391 354 LINE"
);
}
);
width = 447;
}
);
unicode = 0102;
},
{
glyphname = abreve;
layers = (
{
layerId = "14D7FEEC-2E75-40D5-AE74-B547D0DC8BA7";
paths = (
{
nodes = (
"37 0 LINE",
"37 316 LINE",
"56 335 LINE",
"111 279 LINE",
"111 74 LINE"
);
},
{
nodes = (
"120 307 LINE",
"83 344 LINE",
"120 382 LINE",
"326 382 LINE",
"363 344 LINE",
"326 307 LINE"
);
},
{
nodes = (
"335 74 LINE",
"335 279 LINE",
"391 335 LINE",
"409 316 LINE",
"409 0 LINE"
);
},
{
nodes = (
"55 354 LINE",
"37 372 LINE",
"37 670 LINE",
"111 596 LINE",
"111 409 LINE"
);
},
{
nodes = (
"173 786 LINE",
"261 786 LINE",
"294 838 LINE",
"327 825 LINE",
"283 723 LINE",
"151 723 LINE",
"107 825 LINE",
"140 838 LINE"
);
},
{
nodes = (
"130 614 LINE",
"55 689 LINE",
"391 689 LINE",
"316 614 LINE"
);
},
{
nodes = (
"335 409 LINE",
"335 596 LINE",
"409 670 LINE",
"409 372 LINE",
"391 354 LINE"
);
}
);
width = 447;
}
);
unicode = 0103;
},
{
glyphname = Aogonek;
layers = (
{
layerId = "14D7FEEC-2E75-40D5-AE74-B547D0DC8BA7";
paths = (
{
nodes = (
"37 0 LINE",
"37 316 LINE",
"56 335 LINE",
"111 279 LINE",
"111 74 LINE"
);
},
{
nodes = (
"245 -142 LINE",
"245 -46 LINE",
"359 50 LINE",
"335 74 LINE",
"335 279 LINE",
"391 335 LINE",
"409 316 LINE",
"409 0 LINE",
"396 13 LINE",
"301 -63 LINE",
"300 -128 LINE",
"369 -128 LINE",
"400 -182 LINE",
"287 -182 LINE"
);
},
{
nodes = (
"55 354 LINE",
"37 372 LINE",
"37 670 LINE",
"111 596 LINE",
"111 409 LINE"
);
},
{
nodes = (
"120 307 LINE",
"83 344 LINE",
"120 382 LINE",
"326 382 LINE",
"363 344 LINE",
"326 307 LINE"
);
},
{
nodes = (
"130 614 LINE",
"55 689 LINE",
"391 689 LINE",
"316 614 LINE"
);
},
{
nodes = (
"335 409 LINE",
"335 596 LINE",
"409 670 LINE",
"409 372 LINE",
"391 354 LINE"
);
}
);
width = 447;
}
);
unicode = 0104;
},
{
glyphname = aogonek;
layers = (
{
layerId = "14D7FEEC-2E75-40D5-AE74-B547D0DC8BA7";
paths = (
{
nodes = (
"37 0 LINE",
"37 316 LINE",
"56 335 LINE",
"111 279 LINE",
"111 74 LINE"
);
},
{
nodes = (
"245 -142 LINE",
"245 -46 LINE",
"359 50 LINE",
"335 74 LINE",
"335 279 LINE",
"391 335 LINE",
"409 316 LINE",
"409 0 LINE",
"396 13 LINE",
"301 -63 LINE",
"300 -128 LINE",
"369 -128 LINE",
"400 -182 LINE",
"287 -182 LINE"
);
},
{
nodes = (
"55 354 LINE",
"37 372 LINE",
"37 670 LINE",
"111 596 LINE",
"111 409 LINE"
);
},
{
nodes = (
"120 307 LINE",
"83 344 LINE",
"120 382 LINE",
"326 382 LINE",
"363 344 LINE",
"326 307 LINE"
);
},
{
nodes = (
"130 614 LINE",
"55 689 LINE",
"391 689 LINE",
"316 614 LINE"
);
},
{
nodes = (
"335 409 LINE",
"335 596 LINE",
"409 670 LINE",
"409 372 LINE",
"391 354 LINE"
);
}
);
width = 447;
}
);
unicode = 0105;
},
{
glyphname = Cacute;
layers = (
{
layerId = "14D7FEEC-2E75-40D5-AE74-B547D0DC8BA7";
paths = (
{
nodes = (
"55 37 LINE",
"37 55 LINE",
"37 316 LINE",
"55 335 LINE",
"111 279 LINE",
"111 93 LINE"
);
},
{
nodes = (
"74 18 LINE",
"130 74 LINE",
"316 74 LINE",
"391 0 LINE",
"93 0 LINE"
);
},
{
nodes = (
"55 354 LINE",
"37 372 LINE",
"37 633 LINE",
"55 652 LINE",
"111 596 LINE",
"111 410 LINE"
);
},
{
nodes = (
"155 749 LINE",
"241 851 LINE",
"292 851 LINE",
"290 795 LINE",
"188 723 LINE"
);
},
{
nodes = (
"130 615 LINE",
"74 671 LINE",
"93 689 LINE",
"391 689 LINE",
"316 615 LINE"
);
}
);
width = 405;
}
);
unicode = 0106;
},
{
glyphname = cacute;
layers = (
{
layerId = "14D7FEEC-2E75-40D5-AE74-B547D0DC8BA7";
paths = (
{
nodes = (
"55 37 LINE",
"37 55 LINE",
"37 316 LINE",
"55 335 LINE",
"111 279 LINE",
"111 93 LINE"
);
},
{
nodes = (
"74 18 LINE",
"130 74 LINE",
"316 74 LINE",
"391 0 LINE",
"93 0 LINE"
);
},
{
nodes = (
"55 354 LINE",
"37 372 LINE",
"37 633 LINE",
"55 652 LINE",
"111 596 LINE",
"111 410 LINE"
);
},
{
nodes = (
"155 749 LINE",
"241 851 LINE",
"292 851 LINE",
"290 795 LINE",
"188 723 LINE"
);
},
{
nodes = (
"130 615 LINE",
"74 671 LINE",
"93 689 LINE",
"391 689 LINE",
"316 615 LINE"
);
}
);
width = 405;
}
);
unicode = 0107;
},
{
glyphname = Ccircumflex;
layers = (
{
layerId = "14D7FEEC-2E75-40D5-AE74-B547D0DC8BA7";
paths = (
{
nodes = (
"55 37 LINE",
"37 55 LINE",
"37 316 LINE",
"55 335 LINE",
"111 279 LINE",
"111 93 LINE"
);
},
{
nodes = (
"74 18 LINE",
"130 74 LINE",
"316 74 LINE",
"391 0 LINE",
"93 0 LINE"
);
},
{
nodes = (
"55 354 LINE",
"37 372 LINE",
"37 633 LINE",
"55 652 LINE",
"111 596 LINE",
"111 410 LINE"
);
},
{
nodes = (
"96 749 LINE",
"182 851 LINE",
"262 851 LINE",
"348 749 LINE",
"315 723 LINE",
"222 788 LINE",
"129 723 LINE"
);
},
{
nodes = (
"130 615 LINE",
"74 671 LINE",
"93 689 LINE",
"391 689 LINE",
"316 615 LINE"
);
}
);
width = 405;
}
);
unicode = 0108;
},
{
glyphname = ccircumflex;
layers = (
{
layerId = "14D7FEEC-2E75-40D5-AE74-B547D0DC8BA7";
paths = (
{
nodes = (
"55 37 LINE",
"37 55 LINE",
"37 316 LINE",
"55 335 LINE",
"111 279 LINE",
"111 93 LINE"
);
},
{
nodes = (
"74 18 LINE",
"130 74 LINE",
"316 74 LINE",
"391 0 LINE",
"93 0 LINE"
);
},
{
nodes = (
"55 354 LINE",
"37 372 LINE",
"37 633 LINE",
"55 652 LINE",
"111 596 LINE",
"111 410 LINE"
);
},
{
nodes = (
"96 749 LINE",
"182 851 LINE",
"262 851 LINE",
"348 749 LINE",
"315 723 LINE",
"222 788 LINE",
"129 723 LINE"
);
},
{
nodes = (
"130 615 LINE",
"74 671 LINE",
"93 689 LINE",
"391 689 LINE",
"316 615 LINE"
);
}
);
width = 405;
}
);
unicode = 0109;
},
{
glyphname = Cdotaccent;
layers = (
{
layerId = "14D7FEEC-2E75-40D5-AE74-B547D0DC8BA7";
paths = (
{
nodes = (
"55 37 LINE",
"37 55 LINE",
"37 316 LINE",
"55 335 LINE",
"111 279 LINE",
"111 93 LINE"
);
},
{
nodes = (
"74 18 LINE",
"130 74 LINE",
"316 74 LINE",
"391 0 LINE",
"93 0 LINE"
);
},
{
nodes = (
"55 354 LINE",
"37 372 LINE",
"37 633 LINE",
"55 652 LINE",
"111 596 LINE",
"111 410 LINE"
);
},
{
nodes = (
"163 738 LINE",
"163 828 LINE",
"254 828 LINE",
"254 738 LINE"
);
},
{
nodes = (
"130 615 LINE",
"74 671 LINE",
"93 689 LINE",
"391 689 LINE",
"316 615 LINE"
);
}
);
width = 405;
}
);
unicode = 010A;
},
{
glyphname = cdotaccent;
layers = (
{
layerId = "14D7FEEC-2E75-40D5-AE74-B547D0DC8BA7";
paths = (
{
nodes = (
"55 37 LINE",
"37 55 LINE",
"37 316 LINE",
"55 335 LINE",
"111 279 LINE",
"111 93 LINE"
);
},
{
nodes = (
"74 18 LINE",
"130 74 LINE",
"316 74 LINE",
"391 0 LINE",
"93 0 LINE"
);
},
{
nodes = (
"55 354 LINE",
"37 372 LINE",
"37 633 LINE",
"55 652 LINE",
"111 596 LINE",
"111 410 LINE"
);
},
{
nodes = (
"163 738 LINE",
"163 828 LINE",
"254 828 LINE",
"254 738 LINE"
);
},
{
nodes = (
"130 615 LINE",
"74 671 LINE",
"93 689 LINE",
"391 689 LINE",
"316 615 LINE"
);
}
);
width = 405;
}
);
unicode = 010B;
},
{
glyphname = Ccaron;
layers = (
{
layerId = "14D7FEEC-2E75-40D5-AE74-B547D0DC8BA7";
paths = (
{
nodes = (
"55 37 LINE",
"37 55 LINE",
"37 316 LINE",
"55 335 LINE",
"111 279 LINE",
"111 93 LINE"
);
},
{
nodes = (
"74 18 LINE",
"130 74 LINE",
"316 74 LINE",
"391 0 LINE",
"93 0 LINE"
);
},
{
nodes = (
"55 354 LINE",
"37 372 LINE",
"37 633 LINE",
"55 652 LINE",
"111 596 LINE",
"111 410 LINE"
);
},
{
nodes = (
"96 825 LINE",
"129 851 LINE",
"222 786 LINE",
"315 851 LINE",
"348 825 LINE",
"262 723 LINE",
"182 723 LINE"
);
},
{
nodes = (
"130 615 LINE",
"74 671 LINE",
"93 689 LINE",
"391 689 LINE",
"316 615 LINE"
);
}
);
width = 405;
}
);
unicode = 010C;
},
{
glyphname = ccaron;
layers = (
{
layerId = "14D7FEEC-2E75-40D5-AE74-B547D0DC8BA7";
paths = (
{
nodes = (
"55 37 LINE",
"37 55 LINE",
"37 316 LINE",
"55 335 LINE",
"111 279 LINE",
"111 93 LINE"
);
},
{
nodes = (
"74 18 LINE",
"130 74 LINE",
"316 74 LINE",
"391 0 LINE",
"93 0 LINE"
);
},
{
nodes = (
"55 354 LINE",
"37 372 LINE",
"37 633 LINE",
"55 652 LINE",
"111 596 LINE",
"111 410 LINE"
);
},
{
nodes = (
"96 825 LINE",
"129 851 LINE",
"222 786 LINE",
"315 851 LINE",
"348 825 LINE",
"262 723 LINE",
"182 723 LINE"
);
},
{
nodes = (
"130 615 LINE",
"74 671 LINE",
"93 689 LINE",
"391 689 LINE",
"316 615 LINE"
);
}
);
width = 405;
}
);
unicode = 010D;
},
{
glyphname = Dcaron;
layers = (
{
layerId = "14D7FEEC-2E75-40D5-AE74-B547D0DC8BA7";
paths = (
{
nodes = (
"37 19 LINE",
"37 317 LINE",
"56 335 LINE",
"112 279 LINE",
"112 93 LINE"
);
},
{
nodes = (
"56 0 LINE",
"130 74 LINE",
"317 74 LINE",
"372 18 LINE",
"354 0 LINE"
);
},
{
nodes = (
"391 37 LINE",
"335 93 LINE",
"335 279 LINE",
"391 335 LINE",
"410 317 LINE",
"410 56 LINE"
);
},
{
nodes = (
"56 354 LINE",
"37 373 LINE",
"37 671 LINE",
"112 596 LINE",
"112 410 LINE"
);
},
{
nodes = (
"130 615 LINE",
"56 689 LINE",
"354 689 LINE",
"372 671 LINE",
"317 615 LINE"
);
},
{
nodes = (
"391 354 LINE",
"335 410 LINE",
"335 596 LINE",
"391 652 LINE",
"410 634 LINE",
"410 373 LINE"
);
},
{
nodes = (
"96 825 LINE",
"129 851 LINE",
"222 786 LINE",
"315 851 LINE",
"348 825 LINE",
"262 723 LINE",
"182 723 LINE"
);
}
);
width = 447;
}
);
unicode = 010E;
},
{
glyphname = dcaron;
layers = (
{
layerId = "14D7FEEC-2E75-40D5-AE74-B547D0DC8BA7";
paths = (
{
nodes = (
"37 19 LINE",
"37 317 LINE",
"56 335 LINE",
"112 279 LINE",
"112 93 LINE"
);
},
{
nodes = (
"56 0 LINE",
"130 74 LINE",
"317 74 LINE",
"372 18 LINE",
"354 0 LINE"
);
},
{
nodes = (
"391 37 LINE",
"335 93 LINE",
"335 279 LINE",
"391 335 LINE",
"410 317 LINE",
"410 56 LINE"
);
},
{
nodes = (
"56 354 LINE",
"37 373 LINE",
"37 671 LINE",
"112 596 LINE",
"112 410 LINE"
);
},
{
nodes = (
"130 615 LINE",
"56 689 LINE",
"354 689 LINE",
"372 671 LINE",
"317 615 LINE"
);
},
{
nodes = (
"391 354 LINE",
"335 410 LINE",
"335 596 LINE",
"391 652 LINE",
"410 634 LINE",
"410 373 LINE"
);
},
{
nodes = (
"96 825 LINE",
"129 851 LINE",
"222 786 LINE",
"315 851 LINE",
"348 825 LINE",
"262 723 LINE",
"182 723 LINE"
);
}
);
width = 447;
}
);
unicode = 010F;
},
{
glyphname = Dcroat;
layers = (
{
layerId = "14D7FEEC-2E75-40D5-AE74-B547D0DC8BA7";
paths = (
{
nodes = (
"48 306 LINE",
"11 343 LINE",
"48 380 LINE",
"89 380 LINE",
"126 343 LINE",
"89 306 LINE"
);
},
{
nodes = (
"107 19 LINE",
"107 295 LINE",
"145 335 LINE",
"182 292 LINE",
"182 93 LINE"
);
},
{
nodes = (
"126 0 LINE",
"200 74 LINE",
"387 74 LINE",
"442 18 LINE",
"424 0 LINE"
);
},
{
nodes = (
"461 37 LINE",
"405 93 LINE",
"405 279 LINE",
"461 335 LINE",
"480 317 LINE",
"480 56 LINE"
);
},
{
nodes = (
"145 354 LINE",
"107 394 LINE",
"107 671 LINE",
"182 596 LINE",
"182 394 LINE"
);
},
{
nodes = (
"202 306 LINE",
"165 343 LINE",
"202 380 LINE",
"278 380 LINE",
"315 343 LINE",
"278 306 LINE"
);
},
{
nodes = (
"200 615 LINE",
"126 689 LINE",
"424 689 LINE",
"442 671 LINE",
"387 615 LINE"
);
},
{
nodes = (
"461 354 LINE",
"405 410 LINE",
"405 596 LINE",
"461 652 LINE",
"480 634 LINE",
"480 373 LINE"
);
}
);
width = 505;
}
);
unicode = 0110;
},
{
glyphname = dcroat;
layers = (
{
layerId = "14D7FEEC-2E75-40D5-AE74-B547D0DC8BA7";
paths = (
{
nodes = (
"48 306 LINE",
"11 343 LINE",
"48 380 LINE",
"89 380 LINE",
"126 343 LINE",
"89 306 LINE"
);
},
{
nodes = (
"107 19 LINE",
"107 295 LINE",
"145 335 LINE",
"182 292 LINE",
"182 93 LINE"
);
},
{
nodes = (
"126 0 LINE",
"200 74 LINE",
"387 74 LINE",
"442 18 LINE",
"424 0 LINE"
);
},
{
nodes = (
"461 37 LINE",
"405 93 LINE",
"405 279 LINE",
"461 335 LINE",
"480 317 LINE",
"480 56 LINE"
);
},
{
nodes = (
"145 354 LINE",
"107 394 LINE",
"107 671 LINE",
"182 596 LINE",
"182 394 LINE"
);
},
{
nodes = (
"202 306 LINE",
"165 343 LINE",
"202 380 LINE",
"278 380 LINE",
"315 343 LINE",
"278 306 LINE"
);
},
{
nodes = (
"200 615 LINE",
"126 689 LINE",
"424 689 LINE",
"442 671 LINE",
"387 615 LINE"
);
},
{
nodes = (
"461 354 LINE",
"405 410 LINE",
"405 596 LINE",
"461 652 LINE",
"480 634 LINE",
"480 373 LINE"
);
}
);
width = 505;
}
);
unicode = 0111;
},
{
glyphname = Emacron;
layers = (
{
layerId = "14D7FEEC-2E75-40D5-AE74-B547D0DC8BA7";
paths = (
{
nodes = (
"38 19 LINE",
"38 317 LINE",
"57 336 LINE",
"112 280 LINE",
"112 94 LINE"
);
},
{
nodes = (
"57 0 LINE",
"131 75 LINE",
"317 75 LINE",
"392 0 LINE"
);
},
{
nodes = (
"57 354 LINE",
"38 373 LINE",
"38 671 LINE",
"112 597 LINE",
"112 410 LINE"
);
},
{
nodes = (
"121 308 LINE",
"84 345 LINE",
"121 382 LINE",
"327 382 LINE",
"364 345 LINE",
"327 308 LINE"
);
},
{
nodes = (
"92 779 LINE",
"135 820 LINE",
"309 820 LINE",
"353 779 LINE",
"309 738 LINE",
"135 738 LINE"
);
},
{
nodes = (
"131 615 LINE",
"57 690 LINE",
"392 690 LINE",
"317 615 LINE"
);
}
);
width = 412;
}
);
unicode = 0112;
},
{
glyphname = emacron;
layers = (
{
layerId = "14D7FEEC-2E75-40D5-AE74-B547D0DC8BA7";
paths = (
{
nodes = (
"38 19 LINE",
"38 317 LINE",
"57 336 LINE",
"112 280 LINE",
"112 94 LINE"
);
},
{
nodes = (
"57 0 LINE",
"131 75 LINE",
"317 75 LINE",
"392 0 LINE"
);
},
{
nodes = (
"57 354 LINE",
"38 373 LINE",
"38 671 LINE",
"112 597 LINE",
"112 410 LINE"
);
},
{
nodes = (
"121 308 LINE",
"84 345 LINE",
"121 382 LINE",
"327 382 LINE",
"364 345 LINE",
"327 308 LINE"
);
},
{
nodes = (
"92 779 LINE",
"135 820 LINE",
"309 820 LINE",
"353 779 LINE",
"309 738 LINE",
"135 738 LINE"
);
},
{
nodes = (
"131 615 LINE",
"57 690 LINE",
"392 690 LINE",
"317 615 LINE"
);
}
);
width = 412;
}
);
unicode = 0113;
},
{
glyphname = Ebreve;
layers = (
{
layerId = "14D7FEEC-2E75-40D5-AE74-B547D0DC8BA7";
paths = (
{
nodes = (
"38 19 LINE",
"38 317 LINE",
"57 336 LINE",
"112 280 LINE",
"112 94 LINE"
);
},
{
nodes = (
"57 0 LINE",
"131 75 LINE",
"317 75 LINE",
"392 0 LINE"
);
},
{
nodes = (
"57 354 LINE",
"38 373 LINE",
"38 671 LINE",
"112 597 LINE",
"112 410 LINE"
);
},
{
nodes = (
"121 308 LINE",
"84 345 LINE",
"121 382 LINE",
"327 382 LINE",
"364 345 LINE",
"327 308 LINE"
);
},
{
nodes = (
"173 786 LINE",
"261 786 LINE",
"294 838 LINE",
"327 825 LINE",
"283 723 LINE",
"151 723 LINE",
"107 825 LINE",
"140 838 LINE"
);
},
{
nodes = (
"131 615 LINE",
"57 690 LINE",
"392 690 LINE",
"317 615 LINE"
);
}
);
width = 412;
}
);
unicode = 0114;
},
{
glyphname = ebreve;
layers = (
{
layerId = "14D7FEEC-2E75-40D5-AE74-B547D0DC8BA7";
paths = (
{
nodes = (
"38 19 LINE",
"38 317 LINE",
"57 336 LINE",
"112 280 LINE",
"112 94 LINE"
);
},
{
nodes = (
"57 0 LINE",
"131 75 LINE",
"317 75 LINE",
"392 0 LINE"
);
},
{
nodes = (
"57 354 LINE",
"38 373 LINE",
"38 671 LINE",
"112 597 LINE",
"112 410 LINE"
);
},
{
nodes = (
"121 308 LINE",
"84 345 LINE",
"121 382 LINE",
"327 382 LINE",
"364 345 LINE",
"327 308 LINE"
);
},
{
nodes = (
"173 786 LINE",
"261 786 LINE",
"294 838 LINE",
"327 825 LINE",
"283 723 LINE",
"151 723 LINE",
"107 825 LINE",
"140 838 LINE"
);
},
{
nodes = (
"131 615 LINE",
"57 690 LINE",
"392 690 LINE",
"317 615 LINE"
);
}
);
width = 412;
}
);
unicode = 0115;
},
{
glyphname = Edotaccent;
layers = (
{
layerId = "14D7FEEC-2E75-40D5-AE74-B547D0DC8BA7";
paths = (
{
nodes = (
"38 19 LINE",
"38 317 LINE",
"57 336 LINE",
"112 280 LINE",
"112 94 LINE"
);
},
{
nodes = (
"57 0 LINE",
"131 75 LINE",
"317 75 LINE",
"392 0 LINE"
);
},
{
nodes = (
"57 354 LINE",
"38 373 LINE",
"38 671 LINE",
"112 597 LINE",
"112 410 LINE"
);
},
{
nodes = (
"121 308 LINE",
"84 345 LINE",
"121 382 LINE",
"327 382 LINE",
"364 345 LINE",
"327 308 LINE"
);
},
{
nodes = (
"163 738 LINE",
"163 828 LINE",
"254 828 LINE",
"254 738 LINE"
);
},
{
nodes = (
"131 615 LINE",
"57 690 LINE",
"392 690 LINE",
"317 615 LINE"
);
}
);
width = 412;
}
);
unicode = 0116;
},
{
glyphname = edotaccent;
layers = (
{
layerId = "14D7FEEC-2E75-40D5-AE74-B547D0DC8BA7";
paths = (
{
nodes = (
"38 19 LINE",
"38 317 LINE",
"57 336 LINE",
"112 280 LINE",
"112 94 LINE"
);
},
{
nodes = (
"57 0 LINE",
"131 75 LINE",
"317 75 LINE",
"392 0 LINE"
);
},
{
nodes = (
"57 354 LINE",
"38 373 LINE",
"38 671 LINE",
"112 597 LINE",
"112 410 LINE"
);
},
{
nodes = (
"121 308 LINE",
"84 345 LINE",
"121 382 LINE",
"327 382 LINE",
"364 345 LINE",
"327 308 LINE"
);
},
{
nodes = (
"163 738 LINE",
"163 828 LINE",
"254 828 LINE",
"254 738 LINE"
);
},
{
nodes = (
"131 615 LINE",
"57 690 LINE",
"392 690 LINE",
"317 615 LINE"
);
}
);
width = 412;
}
);
unicode = 0117;
},
{
glyphname = Eogonek;
layers = (
{
layerId = "14D7FEEC-2E75-40D5-AE74-B547D0DC8BA7";
paths = (
{
nodes = (
"55 37 LINE",
"37 55 LINE",
"37 316 LINE",
"55 335 LINE",
"111 279 LINE",
"111 93 LINE"
);
},
{
nodes = (
"55 354 LINE",
"37 372 LINE",
"37 633 LINE",
"55 652 LINE",
"111 596 LINE",
"111 410 LINE"
);
},
{
nodes = (
"130 615 LINE",
"74 671 LINE",
"93 689 LINE",
"391 689 LINE",
"316 615 LINE"
);
},
{
nodes = (
"74 18 LINE",
"130 74 LINE",
"316 74 LINE",
"391 0 LINE",
"280 0 LINE",
"202 -63 LINE",
"201 -128 LINE",
"270 -128 LINE",
"301 -182 LINE",
"188 -182 LINE",
"146 -142 LINE",
"146 -46 LINE",
"200 0 LINE",
"93 0 LINE"
);
}
);
width = 405;
}
);
unicode = 0118;
},
{
glyphname = eogonek;
layers = (
{
layerId = "14D7FEEC-2E75-40D5-AE74-B547D0DC8BA7";
paths = (
{
nodes = (
"55 37 LINE",
"37 55 LINE",
"37 316 LINE",
"55 335 LINE",
"111 279 LINE",
"111 93 LINE"
);
},
{
nodes = (
"55 354 LINE",
"37 372 LINE",
"37 633 LINE",
"55 652 LINE",
"111 596 LINE",
"111 410 LINE"
);
},
{
nodes = (
"130 615 LINE",
"74 671 LINE",
"93 689 LINE",
"391 689 LINE",
"316 615 LINE"
);
},
{
nodes = (
"74 18 LINE",
"130 74 LINE",
"316 74 LINE",
"391 0 LINE",
"280 0 LINE",
"202 -63 LINE",
"201 -128 LINE",
"270 -128 LINE",
"301 -182 LINE",
"188 -182 LINE",
"146 -142 LINE",
"146 -46 LINE",
"200 0 LINE",
"93 0 LINE"
);
}
);
width = 405;
}
);
unicode = 0119;
},
{
glyphname = Ecaron;
layers = (
{
layerId = "14D7FEEC-2E75-40D5-AE74-B547D0DC8BA7";
paths = (
{
nodes = (
"38 19 LINE",
"38 317 LINE",
"57 336 LINE",
"112 280 LINE",
"112 94 LINE"
);
},
{
nodes = (
"57 0 LINE",
"131 75 LINE",
"317 75 LINE",
"392 0 LINE"
);
},
{
nodes = (
"57 354 LINE",
"38 373 LINE",
"38 671 LINE",
"112 597 LINE",
"112 410 LINE"
);
},
{
nodes = (
"121 308 LINE",
"84 345 LINE",
"121 382 LINE",
"327 382 LINE",
"364 345 LINE",
"327 308 LINE"
);
},
{
nodes = (
"96 825 LINE",
"129 851 LINE",
"222 786 LINE",
"315 851 LINE",
"348 825 LINE",
"262 723 LINE",
"182 723 LINE"
);
},
{
nodes = (
"131 615 LINE",
"57 690 LINE",
"392 690 LINE",
"317 615 LINE"
);
}
);
width = 412;
}
);
unicode = 011A;
},
{
glyphname = ecaron;
layers = (
{
layerId = "14D7FEEC-2E75-40D5-AE74-B547D0DC8BA7";
paths = (
{
nodes = (
"38 19 LINE",
"38 317 LINE",
"57 336 LINE",
"112 280 LINE",
"112 94 LINE"
);
},
{
nodes = (
"57 0 LINE",
"131 75 LINE",
"317 75 LINE",
"392 0 LINE"
);
},
{
nodes = (
"57 354 LINE",
"38 373 LINE",
"38 671 LINE",
"112 597 LINE",
"112 410 LINE"
);
},
{
nodes = (
"121 308 LINE",
"84 345 LINE",
"121 382 LINE",
"327 382 LINE",
"364 345 LINE",
"327 308 LINE"
);
},
{
nodes = (
"96 825 LINE",
"129 851 LINE",
"222 786 LINE",
"315 851 LINE",
"348 825 LINE",
"262 723 LINE",
"182 723 LINE"
);
},
{
nodes = (
"131 615 LINE",
"57 690 LINE",
"392 690 LINE",
"317 615 LINE"
);
}
);
width = 412;
}
);
unicode = 011B;
},
{
glyphname = Gcircumflex;
layers = (
{
layerId = "14D7FEEC-2E75-40D5-AE74-B547D0DC8BA7";
paths = (
{
nodes = (
"57 37 LINE",
"38 56 LINE",
"38 317 LINE",
"57 335 LINE",
"112 279 LINE",
"112 93 LINE"
);
},
{
nodes = (
"94 0 LINE",
"75 19 LINE",
"131 74 LINE",
"317 74 LINE",
"373 19 LINE",
"355 0 LINE"
);
},
{
nodes = (
"392 37 LINE",
"336 93 LINE",
"336 279 LINE",
"392 335 LINE",
"411 317 LINE",
"411 56 LINE"
);
},
{
nodes = (
"57 354 LINE",
"38 373 LINE",
"38 634 LINE",
"57 652 LINE",
"112 596 LINE",
"112 410 LINE"
);
},
{
nodes = (
"209 307 LINE",
"172 345 LINE",
"209 382 LINE",
"327 382 LINE",
"364 345 LINE",
"327 307 LINE"
);
},
{
nodes = (
"96 749 LINE",
"182 851 LINE",
"262 851 LINE",
"348 749 LINE",
"315 723 LINE",
"222 788 LINE",
"129 723 LINE"
);
},
{
nodes = (
"131 615 LINE",
"75 671 LINE",
"94 689 LINE",
"413 689 LINE",
"338 615 LINE"
);
}
);
width = 447;
}
);
unicode = 011C;
},
{
glyphname = gcircumflex;
layers = (
{
layerId = "14D7FEEC-2E75-40D5-AE74-B547D0DC8BA7";
paths = (
{
nodes = (
"57 37 LINE",
"38 56 LINE",
"38 317 LINE",
"57 335 LINE",
"112 279 LINE",
"112 93 LINE"
);
},
{
nodes = (
"94 0 LINE",
"75 19 LINE",
"131 74 LINE",
"317 74 LINE",
"373 19 LINE",
"355 0 LINE"
);
},
{
nodes = (
"392 37 LINE",
"336 93 LINE",
"336 279 LINE",
"392 335 LINE",
"411 317 LINE",
"411 56 LINE"
);
},
{
nodes = (
"57 354 LINE",
"38 373 LINE",
"38 634 LINE",
"57 652 LINE",
"112 596 LINE",
"112 410 LINE"
);
},
{
nodes = (
"209 307 LINE",
"172 345 LINE",
"209 382 LINE",
"327 382 LINE",
"364 345 LINE",
"327 307 LINE"
);
},
{
nodes = (
"96 749 LINE",
"182 851 LINE",
"262 851 LINE",
"348 749 LINE",
"315 723 LINE",
"222 788 LINE",
"129 723 LINE"
);
},
{
nodes = (
"131 615 LINE",
"75 671 LINE",
"94 689 LINE",
"413 689 LINE",
"338 615 LINE"
);
}
);
width = 447;
}
);
unicode = 011D;
},
{
glyphname = Gbreve;
layers = (
{
layerId = "14D7FEEC-2E75-40D5-AE74-B547D0DC8BA7";
paths = (
{
nodes = (
"57 37 LINE",
"38 56 LINE",
"38 317 LINE",
"57 335 LINE",
"112 279 LINE",
"112 93 LINE"
);
},
{
nodes = (
"94 0 LINE",
"75 19 LINE",
"131 74 LINE",
"317 74 LINE",
"373 19 LINE",
"355 0 LINE"
);
},
{
nodes = (
"392 37 LINE",
"336 93 LINE",
"336 279 LINE",
"392 335 LINE",
"411 317 LINE",
"411 56 LINE"
);
},
{
nodes = (
"57 354 LINE",
"38 373 LINE",
"38 634 LINE",
"57 652 LINE",
"112 596 LINE",
"112 410 LINE"
);
},
{
nodes = (
"209 307 LINE",
"172 345 LINE",
"209 382 LINE",
"327 382 LINE",
"364 345 LINE",
"327 307 LINE"
);
},
{
nodes = (
"173 786 LINE",
"261 786 LINE",
"294 838 LINE",
"327 825 LINE",
"283 723 LINE",
"151 723 LINE",
"107 825 LINE",
"140 838 LINE"
);
},
{
nodes = (
"131 615 LINE",
"75 671 LINE",
"94 689 LINE",
"413 689 LINE",
"338 615 LINE"
);
}
);
width = 447;
}
);
unicode = 011E;
},
{
glyphname = gbreve;
layers = (
{
layerId = "14D7FEEC-2E75-40D5-AE74-B547D0DC8BA7";
paths = (
{
nodes = (
"57 37 LINE",
"38 56 LINE",
"38 317 LINE",
"57 335 LINE",
"112 279 LINE",
"112 93 LINE"
);
},
{
nodes = (
"94 0 LINE",
"75 19 LINE",
"131 74 LINE",
"317 74 LINE",
"373 19 LINE",
"355 0 LINE"
);
},
{
nodes = (
"392 37 LINE",
"336 93 LINE",
"336 279 LINE",
"392 335 LINE",
"411 317 LINE",
"411 56 LINE"
);
},
{
nodes = (
"57 354 LINE",
"38 373 LINE",
"38 634 LINE",
"57 652 LINE",
"112 596 LINE",
"112 410 LINE"
);
},
{
nodes = (
"209 307 LINE",
"172 345 LINE",
"209 382 LINE",
"327 382 LINE",
"364 345 LINE",
"327 307 LINE"
);
},
{
nodes = (
"173 786 LINE",
"261 786 LINE",
"294 838 LINE",
"327 825 LINE",
"283 723 LINE",
"151 723 LINE",
"107 825 LINE",
"140 838 LINE"
);
},
{
nodes = (
"131 615 LINE",
"75 671 LINE",
"94 689 LINE",
"413 689 LINE",
"338 615 LINE"
);
}
);
width = 447;
}
);
unicode = 011F;
},
{
glyphname = Gdotaccent;
layers = (
{
layerId = "14D7FEEC-2E75-40D5-AE74-B547D0DC8BA7";
paths = (
{
nodes = (
"57 37 LINE",
"38 56 LINE",
"38 317 LINE",
"57 335 LINE",
"112 279 LINE",
"112 93 LINE"
);
},
{
nodes = (
"94 0 LINE",
"75 19 LINE",
"131 74 LINE",
"317 74 LINE",
"373 19 LINE",
"355 0 LINE"
);
},
{
nodes = (
"392 37 LINE",
"336 93 LINE",
"336 279 LINE",
"392 335 LINE",
"411 317 LINE",
"411 56 LINE"
);
},
{
nodes = (
"57 354 LINE",
"38 373 LINE",
"38 634 LINE",
"57 652 LINE",
"112 596 LINE",
"112 410 LINE"
);
},
{
nodes = (
"209 307 LINE",
"172 345 LINE",
"209 382 LINE",
"327 382 LINE",
"364 345 LINE",
"327 307 LINE"
);
},
{
nodes = (
"163 738 LINE",
"163 828 LINE",
"254 828 LINE",
"254 738 LINE"
);
},
{
nodes = (
"131 615 LINE",
"75 671 LINE",
"94 689 LINE",
"413 689 LINE",
"338 615 LINE"
);
}
);
width = 447;
}
);
unicode = 0120;
},
{
glyphname = gdotaccent;
layers = (
{
layerId = "14D7FEEC-2E75-40D5-AE74-B547D0DC8BA7";
paths = (
{
nodes = (
"57 37 LINE",
"38 56 LINE",
"38 317 LINE",
"57 335 LINE",
"112 279 LINE",
"112 93 LINE"
);
},
{
nodes = (
"94 0 LINE",
"75 19 LINE",
"131 74 LINE",
"317 74 LINE",
"373 19 LINE",
"355 0 LINE"
);
},
{
nodes = (
"392 37 LINE",
"336 93 LINE",
"336 279 LINE",
"392 335 LINE",
"411 317 LINE",
"411 56 LINE"
);
},
{
nodes = (
"57 354 LINE",
"38 373 LINE",
"38 634 LINE",
"57 652 LINE",
"112 596 LINE",
"112 410 LINE"
);
},
{
nodes = (
"209 307 LINE",
"172 345 LINE",
"209 382 LINE",
"327 382 LINE",
"364 345 LINE",
"327 307 LINE"
);
},
{
nodes = (
"163 738 LINE",
"163 828 LINE",
"254 828 LINE",
"254 738 LINE"
);
},
{
nodes = (
"131 615 LINE",
"75 671 LINE",
"94 689 LINE",
"413 689 LINE",
"338 615 LINE"
);
}
);
width = 447;
}
);
unicode = 0121;
},
{
glyphname = Hcircumflex;
layers = (
{
layerId = "14D7FEEC-2E75-40D5-AE74-B547D0DC8BA7";
paths = (
{
nodes = (
"39 0 LINE",
"39 317 LINE",
"57 336 LINE",
"113 280 LINE",
"113 75 LINE"
);
},
{
nodes = (
"337 75 LINE",
"337 280 LINE",
"393 336 LINE",
"411 317 LINE",
"411 0 LINE"
);
},
{
nodes = (
"57 354 LINE",
"39 373 LINE",
"39 690 LINE",
"113 615 LINE",
"113 410 LINE"
);
},
{
nodes = (
"122 308 LINE",
"85 345 LINE",
"122 382 LINE",
"328 382 LINE",
"365 345 LINE",
"328 308 LINE"
);
},
{
nodes = (
"393 354 LINE",
"337 410 LINE",
"337 615 LINE",
"411 690 LINE",
"411 373 LINE"
);
},
{
nodes = (
"96 749 LINE",
"182 851 LINE",
"262 851 LINE",
"348 749 LINE",
"315 723 LINE",
"222 788 LINE",
"129 723 LINE"
);
}
);
width = 447;
}
);
unicode = 0124;
},
{
glyphname = hcircumflex;
layers = (
{
layerId = "14D7FEEC-2E75-40D5-AE74-B547D0DC8BA7";
paths = (
{
nodes = (
"39 0 LINE",
"39 317 LINE",
"57 336 LINE",
"113 280 LINE",
"113 75 LINE"
);
},
{
nodes = (
"337 75 LINE",
"337 280 LINE",
"393 336 LINE",
"411 317 LINE",
"411 0 LINE"
);
},
{
nodes = (
"57 354 LINE",
"39 373 LINE",
"39 690 LINE",
"113 615 LINE",
"113 410 LINE"
);
},
{
nodes = (
"122 308 LINE",
"85 345 LINE",
"122 382 LINE",
"328 382 LINE",
"365 345 LINE",
"328 308 LINE"
);
},
{
nodes = (
"393 354 LINE",
"337 410 LINE",
"337 615 LINE",
"411 690 LINE",
"411 373 LINE"
);
},
{
nodes = (
"96 749 LINE",
"182 851 LINE",
"262 851 LINE",
"348 749 LINE",
"315 723 LINE",
"222 788 LINE",
"129 723 LINE"
);
}
);
width = 447;
}
);
unicode = 0125;
},
{
glyphname = Hbar;
layers = (
{
layerId = "14D7FEEC-2E75-40D5-AE74-B547D0DC8BA7";
paths = (
{
nodes = (
"103 0 LINE",
"103 317 LINE",
"121 336 LINE",
"177 280 LINE",
"177 75 LINE"
);
},
{
nodes = (
"401 75 LINE",
"401 280 LINE",
"457 336 LINE",
"475 317 LINE",
"475 0 LINE"
);
},
{
nodes = (
"44 491 LINE",
"7 528 LINE",
"44 565 LINE",
"87 565 LINE",
"87 491 LINE"
);
},
{
nodes = (
"121 354 LINE",
"103 373 LINE",
"103 690 LINE",
"177 615 LINE",
"177 410 LINE"
);
},
{
nodes = (
"186 308 LINE",
"149 345 LINE",
"186 382 LINE",
"392 382 LINE",
"429 345 LINE",
"392 308 LINE"
);
},
{
nodes = (
"194 491 LINE",
"194 565 LINE",
"385 565 LINE",
"385 491 LINE"
);
},
{
nodes = (
"457 354 LINE",
"401 410 LINE",
"401 615 LINE",
"475 690 LINE",
"475 373 LINE"
);
},
{
nodes = (
"492 491 LINE",
"492 565 LINE",
"535 565 LINE",
"572 528 LINE",
"535 491 LINE"
);
}
);
width = 580;
}
);
unicode = 0126;
},
{
glyphname = hbar;
layers = (
{
layerId = "14D7FEEC-2E75-40D5-AE74-B547D0DC8BA7";
paths = (
{
nodes = (
"103 0 LINE",
"103 317 LINE",
"121 336 LINE",
"177 280 LINE",
"177 75 LINE"
);
},
{
nodes = (
"401 75 LINE",
"401 280 LINE",
"457 336 LINE",
"475 317 LINE",
"475 0 LINE"
);
},
{
nodes = (
"44 491 LINE",
"7 528 LINE",
"44 565 LINE",
"87 565 LINE",
"87 491 LINE"
);
},
{
nodes = (
"121 354 LINE",
"103 373 LINE",
"103 690 LINE",
"177 615 LINE",
"177 410 LINE"
);
},
{
nodes = (
"186 308 LINE",
"149 345 LINE",
"186 382 LINE",
"392 382 LINE",
"429 345 LINE",
"392 308 LINE"
);
},
{
nodes = (
"194 491 LINE",
"194 565 LINE",
"385 565 LINE",
"385 491 LINE"
);
},
{
nodes = (
"457 354 LINE",
"401 410 LINE",
"401 615 LINE",
"475 690 LINE",
"475 373 LINE"
);
},
{
nodes = (
"492 491 LINE",
"492 565 LINE",
"535 565 LINE",
"572 528 LINE",
"535 491 LINE"
);
}
);
width = 580;
}
);
unicode = 0127;
},
{
glyphname = Itilde;
layers = (
{
layerId = "14D7FEEC-2E75-40D5-AE74-B547D0DC8BA7";
paths = (
{
nodes = (
"90 0 LINE",
"34 56 LINE",
"34 279 LINE",
"90 335 LINE",
"109 316 LINE",
"109 18 LINE"
);
},
{
nodes = (
"90 354 LINE",
"34 410 LINE",
"34 633 LINE",
"90 689 LINE",
"109 670 LINE",
"109 372 LINE"
);
},
{
nodes = (
"-48 750 LINE",
"38 852 LINE",
"92 852 LINE",
"132 806 LINE",
"198 852 LINE",
"231 826 LINE",
"145 724 LINE",
"65 780 LINE",
"-15 724 LINE"
);
}
);
width = 145;
}
);
unicode = 0128;
},
{
glyphname = itilde;
layers = (
{
layerId = "14D7FEEC-2E75-40D5-AE74-B547D0DC8BA7";
paths = (
{
nodes = (
"90 0 LINE",
"34 56 LINE",
"34 279 LINE",
"90 335 LINE",
"109 316 LINE",
"109 18 LINE"
);
},
{
nodes = (
"90 354 LINE",
"34 410 LINE",
"34 633 LINE",
"90 689 LINE",
"109 670 LINE",
"109 372 LINE"
);
},
{
nodes = (
"-48 750 LINE",
"38 852 LINE",
"92 852 LINE",
"132 806 LINE",
"198 852 LINE",
"231 826 LINE",
"145 724 LINE",
"65 780 LINE",
"-15 724 LINE"
);
}
);
width = 145;
}
);
unicode = 0129;
},
{
glyphname = Imacron;
layers = (
{
layerId = "14D7FEEC-2E75-40D5-AE74-B547D0DC8BA7";
paths = (
{
nodes = (
"90 0 LINE",
"34 56 LINE",
"34 279 LINE",
"90 335 LINE",
"109 316 LINE",
"109 18 LINE"
);
},
{
nodes = (
"90 354 LINE",
"34 410 LINE",
"34 633 LINE",
"90 689 LINE",
"109 670 LINE",
"109 372 LINE"
);
},
{
nodes = (
"-43 779 LINE",
"0 820 LINE",
"174 820 LINE",
"218 779 LINE",
"174 738 LINE",
"0 738 LINE"
);
}
);
width = 145;
}
);
unicode = 012A;
},
{
glyphname = imacron;
layers = (
{
layerId = "14D7FEEC-2E75-40D5-AE74-B547D0DC8BA7";
paths = (
{
nodes = (
"90 0 LINE",
"34 56 LINE",
"34 279 LINE",
"90 335 LINE",
"109 316 LINE",
"109 18 LINE"
);
},
{
nodes = (
"90 354 LINE",
"34 410 LINE",
"34 633 LINE",
"90 689 LINE",
"109 670 LINE",
"109 372 LINE"
);
},
{
nodes = (
"-43 779 LINE",
"0 820 LINE",
"174 820 LINE",
"218 779 LINE",
"174 738 LINE",
"0 738 LINE"
);
}
);
width = 145;
}
);
unicode = 012B;
},
{
glyphname = Iogonek;
layers = (
{
layerId = "14D7FEEC-2E75-40D5-AE74-B547D0DC8BA7";
paths = (
{
nodes = (
"-39 -143 LINE",
"-39 -47 LINE",
"44 46 LINE",
"34 56 LINE",
"34 279 LINE",
"90 335 LINE",
"109 316 LINE",
"109 18 LINE",
"90 0 LINE",
"81 9 LINE",
"17 -64 LINE",
"16 -129 LINE",
"85 -129 LINE",
"116 -183 LINE",
"3 -183 LINE"
);
},
{
nodes = (
"90 354 LINE",
"34 410 LINE",
"34 633 LINE",
"90 689 LINE",
"109 670 LINE",
"109 372 LINE"
);
}
);
width = 145;
}
);
unicode = 012E;
},
{
glyphname = iogonek;
layers = (
{
layerId = "14D7FEEC-2E75-40D5-AE74-B547D0DC8BA7";
paths = (
{
nodes = (
"-39 -143 LINE",
"-39 -47 LINE",
"44 46 LINE",
"34 56 LINE",
"34 279 LINE",
"90 335 LINE",
"109 316 LINE",
"109 18 LINE",
"90 0 LINE",
"81 9 LINE",
"17 -64 LINE",
"16 -129 LINE",
"85 -129 LINE",
"116 -183 LINE",
"3 -183 LINE"
);
},
{
nodes = (
"90 354 LINE",
"34 410 LINE",
"34 633 LINE",
"90 689 LINE",
"109 670 LINE",
"109 372 LINE"
);
}
);
width = 145;
}
);
unicode = 012F;
},
{
glyphname = Idotaccent;
layers = (
{
layerId = "14D7FEEC-2E75-40D5-AE74-B547D0DC8BA7";
paths = (
{
nodes = (
"90 0 LINE",
"34 56 LINE",
"34 279 LINE",
"90 335 LINE",
"109 316 LINE",
"109 18 LINE"
);
},
{
nodes = (
"90 354 LINE",
"34 410 LINE",
"34 633 LINE",
"90 689 LINE",
"109 670 LINE",
"109 372 LINE"
);
},
{
nodes = (
"26 738 LINE",
"26 828 LINE",
"117 828 LINE",
"117 738 LINE"
);
}
);
width = 145;
}
);
unicode = 0130;
},
{
glyphname = dotlessi;
layers = (
{
layerId = "14D7FEEC-2E75-40D5-AE74-B547D0DC8BA7";
paths = (
{
nodes = (
"90 0 LINE",
"34 56 LINE",
"34 279 LINE",
"90 335 LINE",
"109 316 LINE",
"109 18 LINE"
);
},
{
nodes = (
"90 354 LINE",
"34 410 LINE",
"34 633 LINE",
"90 689 LINE",
"109 670 LINE",
"109 372 LINE"
);
}
);
width = 145;
}
);
unicode = 0131;
},
{
glyphname = IJ;
layers = (
{
layerId = "14D7FEEC-2E75-40D5-AE74-B547D0DC8BA7";
paths = (
{
nodes = (
"90 0 LINE",
"34 56 LINE",
"34 279 LINE",
"90 335 LINE",
"109 316 LINE",
"109 18 LINE"
);
},
{
nodes = (
"183 19 LINE",
"183 273 LINE",
"257 199 LINE",
"257 93 LINE"
);
},
{
nodes = (
"201 0 LINE",
"276 75 LINE",
"462 75 LINE",
"537 0 LINE"
);
},
{
nodes = (
"481 93 LINE",
"481 279 LINE",
"537 335 LINE",
"555 317 LINE",
"555 19 LINE"
);
},
{
nodes = (
"90 354 LINE",
"34 410 LINE",
"34 633 LINE",
"90 689 LINE",
"109 670 LINE",
"109 372 LINE"
);
},
{
nodes = (
"537 354 LINE",
"481 410 LINE",
"481 615 LINE",
"555 689 LINE",
"555 373 LINE"
);
}
);
width = 592;
}
);
unicode = 0132;
},
{
glyphname = ij;
layers = (
{
layerId = "14D7FEEC-2E75-40D5-AE74-B547D0DC8BA7";
paths = (
{
nodes = (
"90 0 LINE",
"34 56 LINE",
"34 279 LINE",
"90 335 LINE",
"109 316 LINE",
"109 18 LINE"
);
},
{
nodes = (
"183 19 LINE",
"183 273 LINE",
"257 199 LINE",
"257 93 LINE"
);
},
{
nodes = (
"201 0 LINE",
"276 75 LINE",
"462 75 LINE",
"537 0 LINE"
);
},
{
nodes = (
"481 93 LINE",
"481 279 LINE",
"537 335 LINE",
"555 317 LINE",
"555 19 LINE"
);
},
{
nodes = (
"90 354 LINE",
"34 410 LINE",
"34 633 LINE",
"90 689 LINE",
"109 670 LINE",
"109 372 LINE"
);
},
{
nodes = (
"537 354 LINE",
"481 410 LINE",
"481 615 LINE",
"555 689 LINE",
"555 373 LINE"
);
}
);
width = 592;
}
);
unicode = 0133;
},
{
glyphname = Jcircumflex;
layers = (
{
layerId = "14D7FEEC-2E75-40D5-AE74-B547D0DC8BA7";
paths = (
{
nodes = (
"38 19 LINE",
"38 273 LINE",
"112 199 LINE",
"112 93 LINE"
);
},
{
nodes = (
"56 0 LINE",
"131 75 LINE",
"317 75 LINE",
"392 0 LINE"
);
},
{
nodes = (
"336 93 LINE",
"336 279 LINE",
"392 335 LINE",
"410 317 LINE",
"410 19 LINE"
);
},
{
nodes = (
"392 354 LINE",
"336 410 LINE",
"336 615 LINE",
"410 689 LINE",
"410 373 LINE"
);
},
{
nodes = (
"96 749 LINE",
"182 851 LINE",
"262 851 LINE",
"348 749 LINE",
"315 723 LINE",
"222 788 LINE",
"129 723 LINE"
);
}
);
width = 447;
}
);
unicode = 0134;
},
{
glyphname = jcircumflex;
layers = (
{
layerId = "14D7FEEC-2E75-40D5-AE74-B547D0DC8BA7";
paths = (
{
nodes = (
"38 19 LINE",
"38 273 LINE",
"112 199 LINE",
"112 93 LINE"
);
},
{
nodes = (
"56 0 LINE",
"131 75 LINE",
"317 75 LINE",
"392 0 LINE"
);
},
{
nodes = (
"336 93 LINE",
"336 279 LINE",
"392 335 LINE",
"410 317 LINE",
"410 19 LINE"
);
},
{
nodes = (
"392 354 LINE",
"336 410 LINE",
"336 615 LINE",
"410 689 LINE",
"410 373 LINE"
);
},
{
nodes = (
"96 749 LINE",
"182 851 LINE",
"262 851 LINE",
"348 749 LINE",
"315 723 LINE",
"222 788 LINE",
"129 723 LINE"
);
}
);
width = 447;
}
);
unicode = 0135;
},
{
glyphname = uni0136;
layers = (
{
layerId = "14D7FEEC-2E75-40D5-AE74-B547D0DC8BA7";
paths = (
{
nodes = (
"38 0 LINE",
"38 316 LINE",
"57 335 LINE",
"112 279 LINE",
"112 74 LINE"
);
},
{
nodes = (
"410 0 LINE",
"336 74 LINE",
"336 279 LINE",
"392 335 LINE",
"410 316 LINE"
);
},
{
nodes = (
"56 354 LINE",
"38 372 LINE",
"38 689 LINE",
"112 614 LINE",
"112 409 LINE"
);
},
{
nodes = (
"121 307 LINE",
"84 344 LINE",
"121 382 LINE",
"327 382 LINE",
"364 344 LINE",
"327 307 LINE"
);
},
{
nodes = (
"138 408 LINE",
"138 470 LINE",
"358 689 LINE",
"410 689 LINE",
"410 636 LINE",
"182 408 LINE"
);
},
{
nodes = (
"208 -201 LINE",
"170 -163 LINE",
"170 -38 LINE",
"245 -38 LINE",
"245 -163 LINE"
);
}
);
width = 447;
}
);
unicode = 0136;
},
{
glyphname = uni0137;
layers = (
{
layerId = "14D7FEEC-2E75-40D5-AE74-B547D0DC8BA7";
paths = (
{
nodes = (
"38 0 LINE",
"38 316 LINE",
"57 335 LINE",
"112 279 LINE",
"112 74 LINE"
);
},
{
nodes = (
"410 0 LINE",
"336 74 LINE",
"336 279 LINE",
"392 335 LINE",
"410 316 LINE"
);
},
{
nodes = (
"56 354 LINE",
"38 372 LINE",
"38 689 LINE",
"112 614 LINE",
"112 409 LINE"
);
},
{
nodes = (
"121 307 LINE",
"84 344 LINE",
"121 382 LINE",
"327 382 LINE",
"364 344 LINE",
"327 307 LINE"
);
},
{
nodes = (
"138 408 LINE",
"138 470 LINE",
"358 689 LINE",
"410 689 LINE",
"410 636 LINE",
"182 408 LINE"
);
},
{
nodes = (
"208 -201 LINE",
"170 -163 LINE",
"170 -38 LINE",
"245 -38 LINE",
"245 -163 LINE"
);
}
);
width = 447;
}
);
unicode = 0137;
},
{
glyphname = Lacute;
layers = (
{
layerId = "14D7FEEC-2E75-40D5-AE74-B547D0DC8BA7";
paths = (
{
nodes = (
"38 19 LINE",
"38 317 LINE",
"57 336 LINE",
"112 280 LINE",
"112 94 LINE"
);
},
{
nodes = (
"57 0 LINE",
"131 75 LINE",
"317 75 LINE",
"392 0 LINE"
);
},
{
nodes = (
"57 354 LINE",
"38 373 LINE",
"38 690 LINE",
"112 615 LINE",
"112 410 LINE"
);
},
{
nodes = (
"95 749 LINE",
"181 851 LINE",
"232 851 LINE",
"230 795 LINE",
"128 723 LINE"
);
}
);
width = 408;
}
);
unicode = 0139;
},
{
glyphname = lacute;
layers = (
{
layerId = "14D7FEEC-2E75-40D5-AE74-B547D0DC8BA7";
paths = (
{
nodes = (
"38 19 LINE",
"38 317 LINE",
"57 336 LINE",
"112 280 LINE",
"112 94 LINE"
);
},
{
nodes = (
"57 0 LINE",
"131 75 LINE",
"317 75 LINE",
"392 0 LINE"
);
},
{
nodes = (
"57 354 LINE",
"38 373 LINE",
"38 690 LINE",
"112 615 LINE",
"112 410 LINE"
);
},
{
nodes = (
"95 749 LINE",
"181 851 LINE",
"232 851 LINE",
"230 795 LINE",
"128 723 LINE"
);
}
);
width = 408;
}
);
unicode = 013A;
},
{
glyphname = uni013B;
layers = (
{
layerId = "14D7FEEC-2E75-40D5-AE74-B547D0DC8BA7";
paths = (
{
nodes = (
"38 19 LINE",
"38 317 LINE",
"57 336 LINE",
"112 280 LINE",
"112 94 LINE"
);
},
{
nodes = (
"57 0 LINE",
"131 75 LINE",
"317 75 LINE",
"392 0 LINE"
);
},
{
nodes = (
"57 354 LINE",
"38 373 LINE",
"38 690 LINE",
"112 615 LINE",
"112 410 LINE"
);
},
{
nodes = (
"208 -201 LINE",
"170 -163 LINE",
"170 -38 LINE",
"245 -38 LINE",
"245 -163 LINE"
);
}
);
width = 408;
}
);
unicode = 013B;
},
{
glyphname = uni013C;
layers = (
{
layerId = "14D7FEEC-2E75-40D5-AE74-B547D0DC8BA7";
paths = (
{
nodes = (
"38 19 LINE",
"38 317 LINE",
"57 336 LINE",
"112 280 LINE",
"112 94 LINE"
);
},
{
nodes = (
"57 0 LINE",
"131 75 LINE",
"317 75 LINE",
"392 0 LINE"
);
},
{
nodes = (
"57 354 LINE",
"38 373 LINE",
"38 690 LINE",
"112 615 LINE",
"112 410 LINE"
);
},
{
nodes = (
"208 -201 LINE",
"170 -163 LINE",
"170 -38 LINE",
"245 -38 LINE",
"245 -163 LINE"
);
}
);
width = 408;
}
);
unicode = 013C;
},
{
glyphname = Lcaron;
layers = (
{
layerId = "14D7FEEC-2E75-40D5-AE74-B547D0DC8BA7";
paths = (
{
nodes = (
"38 19 LINE",
"38 317 LINE",
"57 336 LINE",
"112 280 LINE",
"112 94 LINE"
);
},
{
nodes = (
"57 0 LINE",
"131 75 LINE",
"317 75 LINE",
"392 0 LINE"
);
},
{
nodes = (
"57 354 LINE",
"38 373 LINE",
"38 690 LINE",
"112 615 LINE",
"112 410 LINE"
);
},
{
nodes = (
"96 825 LINE",
"129 851 LINE",
"222 786 LINE",
"315 851 LINE",
"348 825 LINE",
"262 723 LINE",
"182 723 LINE"
);
}
);
width = 408;
}
);
unicode = 013D;
},
{
glyphname = lcaron;
layers = (
{
layerId = "14D7FEEC-2E75-40D5-AE74-B547D0DC8BA7";
paths = (
{
nodes = (
"38 19 LINE",
"38 317 LINE",
"57 336 LINE",
"112 280 LINE",
"112 94 LINE"
);
},
{
nodes = (
"57 0 LINE",
"131 75 LINE",
"317 75 LINE",
"392 0 LINE"
);
},
{
nodes = (
"57 354 LINE",
"38 373 LINE",
"38 690 LINE",
"112 615 LINE",
"112 410 LINE"
);
},
{
nodes = (
"96 825 LINE",
"129 851 LINE",
"222 786 LINE",
"315 851 LINE",
"348 825 LINE",
"262 723 LINE",
"182 723 LINE"
);
}
);
width = 408;
}
);
unicode = 013E;
},
{
glyphname = Ldot;
layers = (
{
layerId = "14D7FEEC-2E75-40D5-AE74-B547D0DC8BA7";
paths = (
{
nodes = (
"38 19 LINE",
"38 317 LINE",
"57 336 LINE",
"112 280 LINE",
"112 94 LINE"
);
},
{
nodes = (
"57 0 LINE",
"131 75 LINE",
"317 75 LINE",
"392 0 LINE"
);
},
{
nodes = (
"57 354 LINE",
"38 373 LINE",
"38 690 LINE",
"112 615 LINE",
"112 410 LINE"
);
},
{
nodes = (
"158 520 LINE",
"158 610 LINE",
"249 610 LINE",
"249 520 LINE"
);
}
);
width = 408;
}
);
unicode = 013F;
},
{
glyphname = ldot;
layers = (
{
layerId = "14D7FEEC-2E75-40D5-AE74-B547D0DC8BA7";
paths = (
{
nodes = (
"38 19 LINE",
"38 317 LINE",
"57 336 LINE",
"112 280 LINE",
"112 94 LINE"
);
},
{
nodes = (
"57 0 LINE",
"131 75 LINE",
"317 75 LINE",
"392 0 LINE"
);
},
{
nodes = (
"57 354 LINE",
"38 373 LINE",
"38 690 LINE",
"112 615 LINE",
"112 410 LINE"
);
},
{
nodes = (
"158 520 LINE",
"158 610 LINE",
"249 610 LINE",
"249 520 LINE"
);
}
);
width = 408;
}
);
unicode = 0140;
},
{
glyphname = Lslash;
layers = (
{
layerId = "14D7FEEC-2E75-40D5-AE74-B547D0DC8BA7";
paths = (
{
nodes = (
"38 19 LINE",
"38 317 LINE",
"57 336 LINE",
"112 280 LINE",
"112 94 LINE"
);
},
{
nodes = (
"57 0 LINE",
"131 75 LINE",
"317 75 LINE",
"392 0 LINE"
);
},
{
nodes = (
"-131 186 LINE",
"-124 240 LINE",
"24 351 LINE",
"24 257 LINE",
"-81 179 LINE"
);
},
{
nodes = (
"57 354 LINE",
"38 373 LINE",
"38 690 LINE",
"112 615 LINE",
"112 410 LINE"
);
},
{
nodes = (
"106 312 LINE",
"71 347 LINE",
"122 399 LINE",
"122 425 LINE",
"212 493 LINE",
"271 488 LINE",
"261 435 LINE"
);
}
);
width = 408;
}
);
unicode = 0141;
},
{
glyphname = lslash;
layers = (
{
layerId = "14D7FEEC-2E75-40D5-AE74-B547D0DC8BA7";
paths = (
{
nodes = (
"38 19 LINE",
"38 317 LINE",
"57 336 LINE",
"112 280 LINE",
"112 94 LINE"
);
},
{
nodes = (
"57 0 LINE",
"131 75 LINE",
"317 75 LINE",
"392 0 LINE"
);
},
{
nodes = (
"-131 186 LINE",
"-124 240 LINE",
"24 351 LINE",
"24 257 LINE",
"-81 179 LINE"
);
},
{
nodes = (
"57 354 LINE",
"38 373 LINE",
"38 690 LINE",
"112 615 LINE",
"112 410 LINE"
);
},
{
nodes = (
"106 312 LINE",
"71 347 LINE",
"122 399 LINE",
"122 425 LINE",
"212 493 LINE",
"271 488 LINE",
"261 435 LINE"
);
}
);
width = 408;
}
);
unicode = 0142;
},
{
glyphname = Nacute;
layers = (
{
layerId = "14D7FEEC-2E75-40D5-AE74-B547D0DC8BA7";
paths = (
{
nodes = (
"57 0 LINE",
"39 18 LINE",
"39 316 LINE",
"57 335 LINE",
"113 279 LINE",
"113 56 LINE"
);
},
{
nodes = (
"393 0 LINE",
"337 56 LINE",
"337 279 LINE",
"393 335 LINE",
"411 316 LINE",
"411 18 LINE"
);
},
{
nodes = (
"57 354 LINE",
"39 372 LINE",
"39 670 LINE",
"57 689 LINE",
"113 633 LINE",
"113 410 LINE"
);
},
{
nodes = (
"139 553 LINE",
"139 633 LINE",
"165 633 LINE",
"311 487 LINE",
"311 410 LINE",
"283 410 LINE"
);
},
{
nodes = (
"393 354 LINE",
"337 410 LINE",
"337 633 LINE",
"393 689 LINE",
"411 670 LINE",
"411 372 LINE"
);
},
{
nodes = (
"166 749 LINE",
"252 851 LINE",
"303 851 LINE",
"301 795 LINE",
"199 723 LINE"
);
}
);
width = 447;
}
);
unicode = 0143;
},
{
glyphname = nacute;
layers = (
{
layerId = "14D7FEEC-2E75-40D5-AE74-B547D0DC8BA7";
paths = (
{
nodes = (
"57 0 LINE",
"39 18 LINE",
"39 316 LINE",
"57 335 LINE",
"113 279 LINE",
"113 56 LINE"
);
},
{
nodes = (
"393 0 LINE",
"337 56 LINE",
"337 279 LINE",
"393 335 LINE",
"411 316 LINE",
"411 18 LINE"
);
},
{
nodes = (
"57 354 LINE",
"39 372 LINE",
"39 670 LINE",
"57 689 LINE",
"113 633 LINE",
"113 410 LINE"
);
},
{
nodes = (
"139 553 LINE",
"139 633 LINE",
"165 633 LINE",
"311 487 LINE",
"311 410 LINE",
"283 410 LINE"
);
},
{
nodes = (
"393 354 LINE",
"337 410 LINE",
"337 633 LINE",
"393 689 LINE",
"411 670 LINE",
"411 372 LINE"
);
},
{
nodes = (
"166 749 LINE",
"252 851 LINE",
"303 851 LINE",
"301 795 LINE",
"199 723 LINE"
);
}
);
width = 447;
}
);
unicode = 0144;
},
{
glyphname = Ncaron;
layers = (
{
layerId = "14D7FEEC-2E75-40D5-AE74-B547D0DC8BA7";
paths = (
{
nodes = (
"57 0 LINE",
"39 18 LINE",
"39 316 LINE",
"57 335 LINE",
"113 279 LINE",
"113 56 LINE"
);
},
{
nodes = (
"393 0 LINE",
"337 56 LINE",
"337 279 LINE",
"393 335 LINE",
"411 316 LINE",
"411 18 LINE"
);
},
{
nodes = (
"57 354 LINE",
"39 372 LINE",
"39 670 LINE",
"57 689 LINE",
"113 633 LINE",
"113 410 LINE"
);
},
{
nodes = (
"139 553 LINE",
"139 633 LINE",
"165 633 LINE",
"311 487 LINE",
"311 410 LINE",
"283 410 LINE"
);
},
{
nodes = (
"393 354 LINE",
"337 410 LINE",
"337 633 LINE",
"393 689 LINE",
"411 670 LINE",
"411 372 LINE"
);
},
{
nodes = (
"104 825 LINE",
"137 851 LINE",
"230 786 LINE",
"323 851 LINE",
"356 825 LINE",
"270 723 LINE",
"190 723 LINE"
);
}
);
width = 447;
}
);
unicode = 0147;
},
{
glyphname = ncaron;
layers = (
{
layerId = "14D7FEEC-2E75-40D5-AE74-B547D0DC8BA7";
paths = (
{
nodes = (
"57 0 LINE",
"39 18 LINE",
"39 316 LINE",
"57 335 LINE",
"113 279 LINE",
"113 56 LINE"
);
},
{
nodes = (
"393 0 LINE",
"337 56 LINE",
"337 279 LINE",
"393 335 LINE",
"411 316 LINE",
"411 18 LINE"
);
},
{
nodes = (
"57 354 LINE",
"39 372 LINE",
"39 670 LINE",
"57 689 LINE",
"113 633 LINE",
"113 410 LINE"
);
},
{
nodes = (
"139 553 LINE",
"139 633 LINE",
"165 633 LINE",
"311 487 LINE",
"311 410 LINE",
"283 410 LINE"
);
},
{
nodes = (
"393 354 LINE",
"337 410 LINE",
"337 633 LINE",
"393 689 LINE",
"411 670 LINE",
"411 372 LINE"
);
},
{
nodes = (
"104 825 LINE",
"137 851 LINE",
"230 786 LINE",
"323 851 LINE",
"356 825 LINE",
"270 723 LINE",
"190 723 LINE"
);
}
);
width = 447;
}
);
unicode = 0148;
},
{
glyphname = Omacron;
layers = (
{
layerId = "14D7FEEC-2E75-40D5-AE74-B547D0DC8BA7";
paths = (
{
nodes = (
"38 56 LINE",
"38 317 LINE",
"57 336 LINE",
"113 280 LINE",
"113 93 LINE",
"57 38 LINE"
);
},
{
nodes = (
"94 0 LINE",
"75 19 LINE",
"131 75 LINE",
"318 75 LINE",
"373 19 LINE",
"355 0 LINE"
);
},
{
nodes = (
"336 93 LINE",
"336 280 LINE",
"392 336 LINE",
"411 317 LINE",
"411 56 LINE",
"392 38 LINE"
);
},
{
nodes = (
"57 354 LINE",
"38 373 LINE",
"38 634 LINE",
"57 652 LINE",
"113 597 LINE",
"113 410 LINE"
);
},
{
nodes = (
"131 615 LINE",
"75 671 LINE",
"94 690 LINE",
"355 690 LINE",
"373 671 LINE",
"318 615 LINE"
);
},
{
nodes = (
"392 354 LINE",
"336 410 LINE",
"336 596 LINE",
"392 652 LINE",
"411 634 LINE",
"411 373 LINE"
);
},
{
nodes = (
"94 779 LINE",
"137 820 LINE",
"311 820 LINE",
"355 779 LINE",
"311 738 LINE",
"137 738 LINE"
);
}
);
width = 447;
}
);
unicode = 014C;
},
{
glyphname = omacron;
layers = (
{
layerId = "14D7FEEC-2E75-40D5-AE74-B547D0DC8BA7";
paths = (
{
nodes = (
"38 56 LINE",
"38 317 LINE",
"57 336 LINE",
"113 280 LINE",
"113 93 LINE",
"57 38 LINE"
);
},
{
nodes = (
"94 0 LINE",
"75 19 LINE",
"131 75 LINE",
"318 75 LINE",
"373 19 LINE",
"355 0 LINE"
);
},
{
nodes = (
"336 93 LINE",
"336 280 LINE",
"392 336 LINE",
"411 317 LINE",
"411 56 LINE",
"392 38 LINE"
);
},
{
nodes = (
"57 354 LINE",
"38 373 LINE",
"38 634 LINE",
"57 652 LINE",
"113 597 LINE",
"113 410 LINE"
);
},
{
nodes = (
"131 615 LINE",
"75 671 LINE",
"94 690 LINE",
"355 690 LINE",
"373 671 LINE",
"318 615 LINE"
);
},
{
nodes = (
"392 354 LINE",
"336 410 LINE",
"336 596 LINE",
"392 652 LINE",
"411 634 LINE",
"411 373 LINE"
);
},
{
nodes = (
"94 779 LINE",
"137 820 LINE",
"311 820 LINE",
"355 779 LINE",
"311 738 LINE",
"137 738 LINE"
);
}
);
width = 447;
}
);
unicode = 014D;
},
{
glyphname = Obreve;
layers = (
{
layerId = "14D7FEEC-2E75-40D5-AE74-B547D0DC8BA7";
paths = (
{
nodes = (
"38 56 LINE",
"38 317 LINE",
"57 336 LINE",
"113 280 LINE",
"113 93 LINE",
"57 38 LINE"
);
},
{
nodes = (
"94 0 LINE",
"75 19 LINE",
"131 75 LINE",
"318 75 LINE",
"373 19 LINE",
"355 0 LINE"
);
},
{
nodes = (
"336 93 LINE",
"336 280 LINE",
"392 336 LINE",
"411 317 LINE",
"411 56 LINE",
"392 38 LINE"
);
},
{
nodes = (
"57 354 LINE",
"38 373 LINE",
"38 634 LINE",
"57 652 LINE",
"113 597 LINE",
"113 410 LINE"
);
},
{
nodes = (
"175 786 LINE",
"263 786 LINE",
"296 838 LINE",
"329 825 LINE",
"285 723 LINE",
"153 723 LINE",
"109 825 LINE",
"142 838 LINE"
);
},
{
nodes = (
"131 615 LINE",
"75 671 LINE",
"94 690 LINE",
"355 690 LINE",
"373 671 LINE",
"318 615 LINE"
);
},
{
nodes = (
"392 354 LINE",
"336 410 LINE",
"336 596 LINE",
"392 652 LINE",
"411 634 LINE",
"411 373 LINE"
);
}
);
width = 447;
}
);
unicode = 014E;
},
{
glyphname = obreve;
layers = (
{
layerId = "14D7FEEC-2E75-40D5-AE74-B547D0DC8BA7";
paths = (
{
nodes = (
"38 56 LINE",
"38 317 LINE",
"57 336 LINE",
"113 280 LINE",
"113 93 LINE",
"57 38 LINE"
);
},
{
nodes = (
"94 0 LINE",
"75 19 LINE",
"131 75 LINE",
"318 75 LINE",
"373 19 LINE",
"355 0 LINE"
);
},
{
nodes = (
"336 93 LINE",
"336 280 LINE",
"392 336 LINE",
"411 317 LINE",
"411 56 LINE",
"392 38 LINE"
);
},
{
nodes = (
"57 354 LINE",
"38 373 LINE",
"38 634 LINE",
"57 652 LINE",
"113 597 LINE",
"113 410 LINE"
);
},
{
nodes = (
"175 786 LINE",
"263 786 LINE",
"296 838 LINE",
"329 825 LINE",
"285 723 LINE",
"153 723 LINE",
"109 825 LINE",
"142 838 LINE"
);
},
{
nodes = (
"131 615 LINE",
"75 671 LINE",
"94 690 LINE",
"355 690 LINE",
"373 671 LINE",
"318 615 LINE"
);
},
{
nodes = (
"392 354 LINE",
"336 410 LINE",
"336 596 LINE",
"392 652 LINE",
"411 634 LINE",
"411 373 LINE"
);
}
);
width = 447;
}
);
unicode = 014F;
},
{
glyphname = Ohungarumlaut;
layers = (
{
layerId = "14D7FEEC-2E75-40D5-AE74-B547D0DC8BA7";
paths = (
{
nodes = (
"38 56 LINE",
"38 317 LINE",
"57 336 LINE",
"113 280 LINE",
"113 93 LINE",
"57 38 LINE"
);
},
{
nodes = (
"94 0 LINE",
"75 19 LINE",
"131 75 LINE",
"318 75 LINE",
"373 19 LINE",
"355 0 LINE"
);
},
{
nodes = (
"336 93 LINE",
"336 280 LINE",
"392 336 LINE",
"411 317 LINE",
"411 56 LINE",
"392 38 LINE"
);
},
{
nodes = (
"57 354 LINE",
"38 373 LINE",
"38 634 LINE",
"57 652 LINE",
"113 597 LINE",
"113 410 LINE"
);
},
{
nodes = (
"131 615 LINE",
"75 671 LINE",
"94 690 LINE",
"355 690 LINE",
"373 671 LINE",
"318 615 LINE"
);
},
{
nodes = (
"392 354 LINE",
"336 410 LINE",
"336 596 LINE",
"392 652 LINE",
"411 634 LINE",
"411 373 LINE"
);
},
{
nodes = (
"88 749 LINE",
"174 851 LINE",
"225 851 LINE",
"223 795 LINE",
"121 723 LINE"
);
},
{
nodes = (
"233 749 LINE",
"319 851 LINE",
"370 851 LINE",
"368 795 LINE",
"266 723 LINE"
);
}
);
width = 447;
}
);
unicode = 0150;
},
{
glyphname = ohungarumlaut;
layers = (
{
layerId = "14D7FEEC-2E75-40D5-AE74-B547D0DC8BA7";
paths = (
{
nodes = (
"38 56 LINE",
"38 317 LINE",
"57 336 LINE",
"113 280 LINE",
"113 93 LINE",
"57 38 LINE"
);
},
{
nodes = (
"94 0 LINE",
"75 19 LINE",
"131 75 LINE",
"318 75 LINE",
"373 19 LINE",
"355 0 LINE"
);
},
{
nodes = (
"336 93 LINE",
"336 280 LINE",
"392 336 LINE",
"411 317 LINE",
"411 56 LINE",
"392 38 LINE"
);
},
{
nodes = (
"57 354 LINE",
"38 373 LINE",
"38 634 LINE",
"57 652 LINE",
"113 597 LINE",
"113 410 LINE"
);
},
{
nodes = (
"131 615 LINE",
"75 671 LINE",
"94 690 LINE",
"355 690 LINE",
"373 671 LINE",
"318 615 LINE"
);
},
{
nodes = (
"392 354 LINE",
"336 410 LINE",
"336 596 LINE",
"392 652 LINE",
"411 634 LINE",
"411 373 LINE"
);
},
{
nodes = (
"88 749 LINE",
"174 851 LINE",
"225 851 LINE",
"223 795 LINE",
"121 723 LINE"
);
},
{
nodes = (
"233 749 LINE",
"319 851 LINE",
"370 851 LINE",
"368 795 LINE",
"266 723 LINE"
);
}
);
width = 447;
}
);
unicode = 0151;
},
{
glyphname = OE;
layers = (
{
layerId = "14D7FEEC-2E75-40D5-AE74-B547D0DC8BA7";
paths = (
{
nodes = (
"38 56 LINE",
"38 317 LINE",
"57 336 LINE",
"113 280 LINE",
"113 93 LINE",
"57 38 LINE"
);
},
{
nodes = (
"329 93 LINE",
"329 317 LINE",
"348 336 LINE",
"403 280 LINE",
"403 94 LINE"
);
},
{
nodes = (
"94 0 LINE",
"75 19 LINE",
"131 75 LINE",
"608 75 LINE",
"683 0 LINE"
);
},
{
nodes = (
"57 354 LINE",
"38 373 LINE",
"38 634 LINE",
"57 652 LINE",
"113 597 LINE",
"113 410 LINE"
);
},
{
nodes = (
"348 354 LINE",
"329 373 LINE",
"329 597 LINE",
"403 597 LINE",
"403 410 LINE"
);
},
{
nodes = (
"412 308 LINE",
"375 345 LINE",
"412 382 LINE",
"618 382 LINE",
"655 345 LINE",
"618 308 LINE"
);
},
{
nodes = (
"131 615 LINE",
"75 671 LINE",
"94 690 LINE",
"683 690 LINE",
"608 615 LINE"
);
}
);
width = 706;
}
);
unicode = 0152;
},
{
glyphname = oe;
layers = (
{
layerId = "14D7FEEC-2E75-40D5-AE74-B547D0DC8BA7";
paths = (
{
nodes = (
"38 56 LINE",
"38 317 LINE",
"57 336 LINE",
"113 280 LINE",
"113 93 LINE",
"57 38 LINE"
);
},
{
nodes = (
"329 93 LINE",
"329 317 LINE",
"348 336 LINE",
"403 280 LINE",
"403 94 LINE"
);
},
{
nodes = (
"94 0 LINE",
"75 19 LINE",
"131 75 LINE",
"608 75 LINE",
"683 0 LINE"
);
},
{
nodes = (
"57 354 LINE",
"38 373 LINE",
"38 634 LINE",
"57 652 LINE",
"113 597 LINE",
"113 410 LINE"
);
},
{
nodes = (
"348 354 LINE",
"329 373 LINE",
"329 597 LINE",
"403 597 LINE",
"403 410 LINE"
);
},
{
nodes = (
"412 308 LINE",
"375 345 LINE",
"412 382 LINE",
"618 382 LINE",
"655 345 LINE",
"618 308 LINE"
);
},
{
nodes = (
"131 615 LINE",
"75 671 LINE",
"94 690 LINE",
"683 690 LINE",
"608 615 LINE"
);
}
);
width = 706;
}
);
unicode = 0153;
},
{
glyphname = Racute;
layers = (
{
layerId = "14D7FEEC-2E75-40D5-AE74-B547D0DC8BA7";
paths = (
{
nodes = (
"39 0 LINE",
"39 317 LINE",
"57 336 LINE",
"113 280 LINE",
"113 75 LINE"
);
},
{
nodes = (
"358 0 LINE",
"139 220 LINE",
"139 282 LINE",
"183 282 LINE",
"411 53 LINE",
"411 0 LINE"
);
},
{
nodes = (
"57 354 LINE",
"39 373 LINE",
"39 671 LINE",
"113 596 LINE",
"113 410 LINE"
);
},
{
nodes = (
"122 308 LINE",
"85 345 LINE",
"122 382 LINE",
"328 382 LINE",
"365 345 LINE",
"328 308 LINE"
);
},
{
nodes = (
"132 615 LINE",
"57 690 LINE",
"355 690 LINE",
"374 671 LINE",
"318 615 LINE"
);
},
{
nodes = (
"393 354 LINE",
"337 410 LINE",
"337 596 LINE",
"393 652 LINE",
"411 634 LINE",
"411 373 LINE"
);
},
{
nodes = (
"155 749 LINE",
"241 851 LINE",
"292 851 LINE",
"290 795 LINE",
"188 723 LINE"
);
}
);
width = 447;
}
);
unicode = 0154;
},
{
glyphname = racute;
layers = (
{
layerId = "14D7FEEC-2E75-40D5-AE74-B547D0DC8BA7";
paths = (
{
nodes = (
"39 0 LINE",
"39 317 LINE",
"57 336 LINE",
"113 280 LINE",
"113 75 LINE"
);
},
{
nodes = (
"358 0 LINE",
"139 220 LINE",
"139 282 LINE",
"183 282 LINE",
"411 53 LINE",
"411 0 LINE"
);
},
{
nodes = (
"57 354 LINE",
"39 373 LINE",
"39 671 LINE",
"113 596 LINE",
"113 410 LINE"
);
},
{
nodes = (
"122 308 LINE",
"85 345 LINE",
"122 382 LINE",
"328 382 LINE",
"365 345 LINE",
"328 308 LINE"
);
},
{
nodes = (
"132 615 LINE",
"57 690 LINE",
"355 690 LINE",
"374 671 LINE",
"318 615 LINE"
);
},
{
nodes = (
"393 354 LINE",
"337 410 LINE",
"337 596 LINE",
"393 652 LINE",
"411 634 LINE",
"411 373 LINE"
);
},
{
nodes = (
"155 749 LINE",
"241 851 LINE",
"292 851 LINE",
"290 795 LINE",
"188 723 LINE"
);
}
);
width = 447;
}
);
unicode = 0155;
},
{
glyphname = uni0156;
layers = (
{
layerId = "14D7FEEC-2E75-40D5-AE74-B547D0DC8BA7";
paths = (
{
nodes = (
"39 0 LINE",
"39 317 LINE",
"57 336 LINE",
"113 280 LINE",
"113 75 LINE"
);
},
{
nodes = (
"358 0 LINE",
"139 220 LINE",
"139 282 LINE",
"183 282 LINE",
"411 53 LINE",
"411 0 LINE"
);
},
{
nodes = (
"57 354 LINE",
"39 373 LINE",
"39 671 LINE",
"113 596 LINE",
"113 410 LINE"
);
},
{
nodes = (
"122 308 LINE",
"85 345 LINE",
"122 382 LINE",
"328 382 LINE",
"365 345 LINE",
"328 308 LINE"
);
},
{
nodes = (
"132 615 LINE",
"57 690 LINE",
"355 690 LINE",
"374 671 LINE",
"318 615 LINE"
);
},
{
nodes = (
"393 354 LINE",
"337 410 LINE",
"337 596 LINE",
"393 652 LINE",
"411 634 LINE",
"411 373 LINE"
);
},
{
nodes = (
"208 -201 LINE",
"170 -163 LINE",
"170 -38 LINE",
"245 -38 LINE",
"245 -163 LINE"
);
}
);
width = 447;
}
);
unicode = 0156;
},
{
glyphname = uni0157;
layers = (
{
layerId = "14D7FEEC-2E75-40D5-AE74-B547D0DC8BA7";
paths = (
{
nodes = (
"39 0 LINE",
"39 317 LINE",
"57 336 LINE",
"113 280 LINE",
"113 75 LINE"
);
},
{
nodes = (
"358 0 LINE",
"139 220 LINE",
"139 282 LINE",
"183 282 LINE",
"411 53 LINE",
"411 0 LINE"
);
},
{
nodes = (
"57 354 LINE",
"39 373 LINE",
"39 671 LINE",
"113 596 LINE",
"113 410 LINE"
);
},
{
nodes = (
"122 308 LINE",
"85 345 LINE",
"122 382 LINE",
"328 382 LINE",
"365 345 LINE",
"328 308 LINE"
);
},
{
nodes = (
"132 615 LINE",
"57 690 LINE",
"355 690 LINE",
"374 671 LINE",
"318 615 LINE"
);
},
{
nodes = (
"393 354 LINE",
"337 410 LINE",
"337 596 LINE",
"393 652 LINE",
"411 634 LINE",
"411 373 LINE"
);
},
{
nodes = (
"208 -201 LINE",
"170 -163 LINE",
"170 -38 LINE",
"245 -38 LINE",
"245 -163 LINE"
);
}
);
width = 447;
}
);
unicode = 0157;
},
{
glyphname = Rcaron;
layers = (
{
layerId = "14D7FEEC-2E75-40D5-AE74-B547D0DC8BA7";
paths = (
{
nodes = (
"39 0 LINE",
"39 317 LINE",
"57 336 LINE",
"113 280 LINE",
"113 75 LINE"
);
},
{
nodes = (
"358 0 LINE",
"139 220 LINE",
"139 282 LINE",
"183 282 LINE",
"411 53 LINE",
"411 0 LINE"
);
},
{
nodes = (
"57 354 LINE",
"39 373 LINE",
"39 671 LINE",
"113 596 LINE",
"113 410 LINE"
);
},
{
nodes = (
"122 308 LINE",
"85 345 LINE",
"122 382 LINE",
"328 382 LINE",
"365 345 LINE",
"328 308 LINE"
);
},
{
nodes = (
"132 615 LINE",
"57 690 LINE",
"355 690 LINE",
"374 671 LINE",
"318 615 LINE"
);
},
{
nodes = (
"393 354 LINE",
"337 410 LINE",
"337 596 LINE",
"393 652 LINE",
"411 634 LINE",
"411 373 LINE"
);
},
{
nodes = (
"91 825 LINE",
"124 851 LINE",
"217 786 LINE",
"310 851 LINE",
"343 825 LINE",
"257 723 LINE",
"177 723 LINE"
);
}
);
width = 447;
}
);
unicode = 0158;
},
{
glyphname = rcaron;
layers = (
{
layerId = "14D7FEEC-2E75-40D5-AE74-B547D0DC8BA7";
paths = (
{
nodes = (
"39 0 LINE",
"39 317 LINE",
"57 336 LINE",
"113 280 LINE",
"113 75 LINE"
);
},
{
nodes = (
"358 0 LINE",
"139 220 LINE",
"139 282 LINE",
"183 282 LINE",
"411 53 LINE",
"411 0 LINE"
);
},
{
nodes = (
"57 354 LINE",
"39 373 LINE",
"39 671 LINE",
"113 596 LINE",
"113 410 LINE"
);
},
{
nodes = (
"122 308 LINE",
"85 345 LINE",
"122 382 LINE",
"328 382 LINE",
"365 345 LINE",
"328 308 LINE"
);
},
{
nodes = (
"132 615 LINE",
"57 690 LINE",
"355 690 LINE",
"374 671 LINE",
"318 615 LINE"
);
},
{
nodes = (
"393 354 LINE",
"337 410 LINE",
"337 596 LINE",
"393 652 LINE",
"411 634 LINE",
"411 373 LINE"
);
},
{
nodes = (
"91 825 LINE",
"124 851 LINE",
"217 786 LINE",
"310 851 LINE",
"343 825 LINE",
"257 723 LINE",
"177 723 LINE"
);
}
);
width = 447;
}
);
unicode = 0159;
},
{
glyphname = Sacute;
layers = (
{
layerId = "14D7FEEC-2E75-40D5-AE74-B547D0DC8BA7";
paths = (
{
nodes = (
"38 0 LINE",
"112 74 LINE",
"132 75 LINE",
"317 75 LINE",
"373 19 LINE",
"355 0 LINE"
);
},
{
nodes = (
"392 37 LINE",
"336 93 LINE",
"336 279 LINE",
"392 335 LINE",
"411 317 LINE",
"411 56 LINE"
);
},
{
nodes = (
"57 354 LINE",
"38 373 LINE",
"38 634 LINE",
"57 652 LINE",
"112 596 LINE",
"112 410 LINE"
);
},
{
nodes = (
"121 307 LINE",
"84 344 LINE",
"121 382 LINE",
"327 382 LINE",
"364 344 LINE",
"327 307 LINE"
);
},
{
nodes = (
"155 749 LINE",
"241 851 LINE",
"292 851 LINE",
"290 795 LINE",
"188 723 LINE"
);
},
{
nodes = (
"131 615 LINE",
"75 671 LINE",
"94 689 LINE",
"411 689 LINE",
"336 615 LINE"
);
}
);
width = 447;
}
);
unicode = 015A;
},
{
glyphname = sacute;
layers = (
{
layerId = "14D7FEEC-2E75-40D5-AE74-B547D0DC8BA7";
paths = (
{
nodes = (
"38 0 LINE",
"112 74 LINE",
"132 75 LINE",
"317 75 LINE",
"373 19 LINE",
"355 0 LINE"
);
},
{
nodes = (
"392 37 LINE",
"336 93 LINE",
"336 279 LINE",
"392 335 LINE",
"411 317 LINE",
"411 56 LINE"
);
},
{
nodes = (
"57 354 LINE",
"38 373 LINE",
"38 634 LINE",
"57 652 LINE",
"112 596 LINE",
"112 410 LINE"
);
},
{
nodes = (
"121 307 LINE",
"84 344 LINE",
"121 382 LINE",
"327 382 LINE",
"364 344 LINE",
"327 307 LINE"
);
},
{
nodes = (
"155 749 LINE",
"241 851 LINE",
"292 851 LINE",
"290 795 LINE",
"188 723 LINE"
);
},
{
nodes = (
"131 615 LINE",
"75 671 LINE",
"94 689 LINE",
"411 689 LINE",
"336 615 LINE"
);
}
);
width = 447;
}
);
unicode = 015B;
},
{
glyphname = Scircumflex;
layers = (
{
layerId = "14D7FEEC-2E75-40D5-AE74-B547D0DC8BA7";
paths = (
{
nodes = (
"38 0 LINE",
"112 74 LINE",
"132 75 LINE",
"317 75 LINE",
"373 19 LINE",
"355 0 LINE"
);
},
{
nodes = (
"392 37 LINE",
"336 93 LINE",
"336 279 LINE",
"392 335 LINE",
"411 317 LINE",
"411 56 LINE"
);
},
{
nodes = (
"57 354 LINE",
"38 373 LINE",
"38 634 LINE",
"57 652 LINE",
"112 596 LINE",
"112 410 LINE"
);
},
{
nodes = (
"121 307 LINE",
"84 344 LINE",
"121 382 LINE",
"327 382 LINE",
"364 344 LINE",
"327 307 LINE"
);
},
{
nodes = (
"96 749 LINE",
"182 851 LINE",
"262 851 LINE",
"348 749 LINE",
"315 723 LINE",
"222 788 LINE",
"129 723 LINE"
);
},
{
nodes = (
"131 615 LINE",
"75 671 LINE",
"94 689 LINE",
"411 689 LINE",
"336 615 LINE"
);
}
);
width = 447;
}
);
unicode = 015C;
},
{
glyphname = scircumflex;
layers = (
{
layerId = "14D7FEEC-2E75-40D5-AE74-B547D0DC8BA7";
paths = (
{
nodes = (
"38 0 LINE",
"112 74 LINE",
"132 75 LINE",
"317 75 LINE",
"373 19 LINE",
"355 0 LINE"
);
},
{
nodes = (
"392 37 LINE",
"336 93 LINE",
"336 279 LINE",
"392 335 LINE",
"411 317 LINE",
"411 56 LINE"
);
},
{
nodes = (
"57 354 LINE",
"38 373 LINE",
"38 634 LINE",
"57 652 LINE",
"112 596 LINE",
"112 410 LINE"
);
},
{
nodes = (
"121 307 LINE",
"84 344 LINE",
"121 382 LINE",
"327 382 LINE",
"364 344 LINE",
"327 307 LINE"
);
},
{
nodes = (
"96 749 LINE",
"182 851 LINE",
"262 851 LINE",
"348 749 LINE",
"315 723 LINE",
"222 788 LINE",
"129 723 LINE"
);
},
{
nodes = (
"131 615 LINE",
"75 671 LINE",
"94 689 LINE",
"411 689 LINE",
"336 615 LINE"
);
}
);
width = 447;
}
);
unicode = 015D;
},
{
glyphname = Scedilla;
layers = (
{
layerId = "14D7FEEC-2E75-40D5-AE74-B547D0DC8BA7";
paths = (
{
nodes = (
"121 307 LINE",
"84 344 LINE",
"121 382 LINE",
"327 382 LINE",
"364 344 LINE",
"327 307 LINE"
);
},
{
nodes = (
"392 37 LINE",
"336 93 LINE",
"336 279 LINE",
"392 335 LINE",
"411 317 LINE",
"411 56 LINE"
);
},
{
nodes = (
"57 354 LINE",
"38 373 LINE",
"38 634 LINE",
"57 652 LINE",
"112 596 LINE",
"112 410 LINE"
);
},
{
nodes = (
"131 615 LINE",
"75 671 LINE",
"94 689 LINE",
"411 689 LINE",
"336 615 LINE"
);
},
{
nodes = (
"146 -200 LINE",
"188 -148 LINE",
"264 -148 LINE",
"264 -81 LINE",
"177 -80 LINE",
"144 -68 LINE",
"173 0 LINE",
"38 0 LINE",
"112 74 LINE",
"132 75 LINE",
"317 75 LINE",
"373 19 LINE",
"355 0 LINE",
"220 0 LINE",
"200 -45 LINE",
"293 -45 LINE",
"319 -93 LINE",
"319 -160 LINE",
"277 -200 LINE"
);
}
);
width = 447;
}
);
unicode = 015E;
},
{
glyphname = scedilla;
layers = (
{
layerId = "14D7FEEC-2E75-40D5-AE74-B547D0DC8BA7";
paths = (
{
nodes = (
"121 307 LINE",
"84 344 LINE",
"121 382 LINE",
"327 382 LINE",
"364 344 LINE",
"327 307 LINE"
);
},
{
nodes = (
"392 37 LINE",
"336 93 LINE",
"336 279 LINE",
"392 335 LINE",
"411 317 LINE",
"411 56 LINE"
);
},
{
nodes = (
"57 354 LINE",
"38 373 LINE",
"38 634 LINE",
"57 652 LINE",
"112 596 LINE",
"112 410 LINE"
);
},
{
nodes = (
"131 615 LINE",
"75 671 LINE",
"94 689 LINE",
"411 689 LINE",
"336 615 LINE"
);
},
{
nodes = (
"146 -200 LINE",
"188 -148 LINE",
"264 -148 LINE",
"264 -81 LINE",
"177 -80 LINE",
"144 -68 LINE",
"173 0 LINE",
"38 0 LINE",
"112 74 LINE",
"132 75 LINE",
"317 75 LINE",
"373 19 LINE",
"355 0 LINE",
"220 0 LINE",
"200 -45 LINE",
"293 -45 LINE",
"319 -93 LINE",
"319 -160 LINE",
"277 -200 LINE"
);
}
);
width = 447;
}
);
unicode = 015F;
},
{
glyphname = Scaron;
layers = (
{
layerId = "14D7FEEC-2E75-40D5-AE74-B547D0DC8BA7";
paths = (
{
nodes = (
"38 0 LINE",
"112 74 LINE",
"132 75 LINE",
"317 75 LINE",
"373 19 LINE",
"355 0 LINE"
);
},
{
nodes = (
"392 37 LINE",
"336 93 LINE",
"336 279 LINE",
"392 335 LINE",
"411 317 LINE",
"411 56 LINE"
);
},
{
nodes = (
"57 354 LINE",
"38 373 LINE",
"38 634 LINE",
"57 652 LINE",
"112 596 LINE",
"112 410 LINE"
);
},
{
nodes = (
"121 307 LINE",
"84 344 LINE",
"121 382 LINE",
"327 382 LINE",
"364 344 LINE",
"327 307 LINE"
);
},
{
nodes = (
"96 825 LINE",
"129 851 LINE",
"222 786 LINE",
"315 851 LINE",
"348 825 LINE",
"262 723 LINE",
"182 723 LINE"
);
},
{
nodes = (
"131 615 LINE",
"75 671 LINE",
"94 689 LINE",
"411 689 LINE",
"336 615 LINE"
);
}
);
width = 447;
}
);
unicode = 0160;
},
{
glyphname = scaron;
layers = (
{
layerId = "14D7FEEC-2E75-40D5-AE74-B547D0DC8BA7";
paths = (
{
nodes = (
"38 0 LINE",
"112 74 LINE",
"132 75 LINE",
"317 75 LINE",
"373 19 LINE",
"355 0 LINE"
);
},
{
nodes = (
"392 37 LINE",
"336 93 LINE",
"336 279 LINE",
"392 335 LINE",
"411 317 LINE",
"411 56 LINE"
);
},
{
nodes = (
"57 354 LINE",
"38 373 LINE",
"38 634 LINE",
"57 652 LINE",
"112 596 LINE",
"112 410 LINE"
);
},
{
nodes = (
"121 307 LINE",
"84 344 LINE",
"121 382 LINE",
"327 382 LINE",
"364 344 LINE",
"327 307 LINE"
);
},
{
nodes = (
"92 825 LINE",
"125 851 LINE",
"218 786 LINE",
"311 851 LINE",
"344 825 LINE",
"258 723 LINE",
"178 723 LINE"
);
},
{
nodes = (
"131 615 LINE",
"75 671 LINE",
"94 689 LINE",
"411 689 LINE",
"336 615 LINE"
);
}
);
width = 447;
}
);
unicode = 0161;
},
{
glyphname = uni0162;
layers = (
{
layerId = "14D7FEEC-2E75-40D5-AE74-B547D0DC8BA7";
paths = (
{
nodes = (
"146 -200 LINE",
"188 -148 LINE",
"264 -148 LINE",
"264 -81 LINE",
"177 -80 LINE",
"144 -68 LINE",
"192 44 LINE",
"180 56 LINE",
"180 279 LINE",
"236 335 LINE",
"255 316 LINE",
"255 18 LINE",
"236 0 LINE",
"225 11 LINE",
"200 -45 LINE",
"293 -45 LINE",
"319 -93 LINE",
"319 -160 LINE",
"277 -200 LINE"
);
},
{
nodes = (
"236 354 LINE",
"180 410 LINE",
"180 591 LINE",
"255 591 LINE",
"255 373 LINE"
);
},
{
nodes = (
"74 615 LINE",
"18 671 LINE",
"36 689 LINE",
"399 689 LINE",
"418 671 LINE",
"362 615 LINE"
);
}
);
width = 435;
}
);
unicode = 0162;
},
{
glyphname = uni0163;
layers = (
{
layerId = "14D7FEEC-2E75-40D5-AE74-B547D0DC8BA7";
paths = (
{
nodes = (
"146 -200 LINE",
"188 -148 LINE",
"264 -148 LINE",
"264 -81 LINE",
"177 -80 LINE",
"144 -68 LINE",
"192 44 LINE",
"180 56 LINE",
"180 279 LINE",
"236 335 LINE",
"255 316 LINE",
"255 18 LINE",
"236 0 LINE",
"225 11 LINE",
"200 -45 LINE",
"293 -45 LINE",
"319 -93 LINE",
"319 -160 LINE",
"277 -200 LINE"
);
},
{
nodes = (
"236 354 LINE",
"180 410 LINE",
"180 591 LINE",
"255 591 LINE",
"255 373 LINE"
);
},
{
nodes = (
"74 615 LINE",
"18 671 LINE",
"36 689 LINE",
"399 689 LINE",
"418 671 LINE",
"362 615 LINE"
);
}
);
width = 435;
}
);
unicode = 0163;
},
{
glyphname = Tcaron;
layers = (
{
layerId = "14D7FEEC-2E75-40D5-AE74-B547D0DC8BA7";
paths = (
{
nodes = (
"236 0 LINE",
"180 56 LINE",
"180 279 LINE",
"236 335 LINE",
"255 316 LINE",
"255 18 LINE"
);
},
{
nodes = (
"236 354 LINE",
"180 410 LINE",
"180 591 LINE",
"255 591 LINE",
"255 373 LINE"
);
},
{
nodes = (
"91 825 LINE",
"124 851 LINE",
"217 786 LINE",
"310 851 LINE",
"343 825 LINE",
"257 723 LINE",
"177 723 LINE"
);
},
{
nodes = (
"74 615 LINE",
"18 671 LINE",
"36 689 LINE",
"399 689 LINE",
"418 671 LINE",
"362 615 LINE"
);
}
);
width = 435;
}
);
unicode = 0164;
},
{
glyphname = tcaron;
layers = (
{
layerId = "14D7FEEC-2E75-40D5-AE74-B547D0DC8BA7";
paths = (
{
nodes = (
"236 0 LINE",
"180 56 LINE",
"180 279 LINE",
"236 335 LINE",
"255 316 LINE",
"255 18 LINE"
);
},
{
nodes = (
"236 354 LINE",
"180 410 LINE",
"180 591 LINE",
"255 591 LINE",
"255 373 LINE"
);
},
{
nodes = (
"91 825 LINE",
"124 851 LINE",
"217 786 LINE",
"310 851 LINE",
"343 825 LINE",
"257 723 LINE",
"177 723 LINE"
);
},
{
nodes = (
"74 615 LINE",
"18 671 LINE",
"36 689 LINE",
"399 689 LINE",
"418 671 LINE",
"362 615 LINE"
);
}
);
width = 435;
}
);
unicode = 0165;
},
{
glyphname = Tbar;
layers = (
{
layerId = "14D7FEEC-2E75-40D5-AE74-B547D0DC8BA7";
paths = (
{
nodes = (
"236 0 LINE",
"180 56 LINE",
"180 279 LINE",
"236 335 LINE",
"255 316 LINE",
"255 18 LINE"
);
},
{
nodes = (
"58 448 LINE",
"21 485 LINE",
"58 522 LINE",
"165 522 LINE",
"165 448 LINE"
);
},
{
nodes = (
"236 354 LINE",
"180 410 LINE",
"180 591 LINE",
"255 591 LINE",
"255 373 LINE"
);
},
{
nodes = (
"74 615 LINE",
"18 671 LINE",
"36 689 LINE",
"399 689 LINE",
"418 671 LINE",
"362 615 LINE"
);
},
{
nodes = (
"270 448 LINE",
"270 522 LINE",
"377 522 LINE",
"414 485 LINE",
"377 448 LINE"
);
}
);
width = 435;
}
);
unicode = 0166;
},
{
glyphname = tbar;
layers = (
{
layerId = "14D7FEEC-2E75-40D5-AE74-B547D0DC8BA7";
paths = (
{
nodes = (
"236 0 LINE",
"180 56 LINE",
"180 279 LINE",
"236 335 LINE",
"255 316 LINE",
"255 18 LINE"
);
},
{
nodes = (
"58 448 LINE",
"21 485 LINE",
"58 522 LINE",
"165 522 LINE",
"165 448 LINE"
);
},
{
nodes = (
"236 354 LINE",
"180 410 LINE",
"180 591 LINE",
"255 591 LINE",
"255 373 LINE"
);
},
{
nodes = (
"74 615 LINE",
"18 671 LINE",
"36 689 LINE",
"399 689 LINE",
"418 671 LINE",
"362 615 LINE"
);
},
{
nodes = (
"270 448 LINE",
"270 522 LINE",
"377 522 LINE",
"414 485 LINE",
"377 448 LINE"
);
}
);
width = 435;
}
);
unicode = 0167;
},
{
glyphname = Utilde;
layers = (
{
layerId = "14D7FEEC-2E75-40D5-AE74-B547D0DC8BA7";
paths = (
{
nodes = (
"36 19 LINE",
"36 317 LINE",
"55 335 LINE",
"111 279 LINE",
"111 93 LINE"
);
},
{
nodes = (
"55 0 LINE",
"129 74 LINE",
"316 74 LINE",
"390 0 LINE"
);
},
{
nodes = (
"334 93 LINE",
"334 279 LINE",
"390 335 LINE",
"409 317 LINE",
"409 19 LINE"
);
},
{
nodes = (
"55 354 LINE",
"36 373 LINE",
"36 689 LINE",
"111 615 LINE",
"111 410 LINE"
);
},
{
nodes = (
"390 354 LINE",
"334 410 LINE",
"334 615 LINE",
"409 689 LINE",
"409 373 LINE"
);
},
{
nodes = (
"97 750 LINE",
"183 852 LINE",
"237 852 LINE",
"277 806 LINE",
"343 852 LINE",
"376 826 LINE",
"290 724 LINE",
"210 780 LINE",
"130 724 LINE"
);
}
);
width = 447;
}
);
unicode = 0168;
},
{
glyphname = utilde;
layers = (
{
layerId = "14D7FEEC-2E75-40D5-AE74-B547D0DC8BA7";
paths = (
{
nodes = (
"36 19 LINE",
"36 317 LINE",
"55 335 LINE",
"111 279 LINE",
"111 93 LINE"
);
},
{
nodes = (
"55 0 LINE",
"129 74 LINE",
"316 74 LINE",
"390 0 LINE"
);
},
{
nodes = (
"334 93 LINE",
"334 279 LINE",
"390 335 LINE",
"409 317 LINE",
"409 19 LINE"
);
},
{
nodes = (
"55 354 LINE",
"36 373 LINE",
"36 689 LINE",
"111 615 LINE",
"111 410 LINE"
);
},
{
nodes = (
"390 354 LINE",
"334 410 LINE",
"334 615 LINE",
"409 689 LINE",
"409 373 LINE"
);
},
{
nodes = (
"97 750 LINE",
"183 852 LINE",
"237 852 LINE",
"277 806 LINE",
"343 852 LINE",
"376 826 LINE",
"290 724 LINE",
"210 780 LINE",
"130 724 LINE"
);
}
);
width = 447;
}
);
unicode = 0169;
},
{
glyphname = Umacron;
layers = (
{
layerId = "14D7FEEC-2E75-40D5-AE74-B547D0DC8BA7";
paths = (
{
nodes = (
"36 19 LINE",
"36 317 LINE",
"55 335 LINE",
"111 279 LINE",
"111 93 LINE"
);
},
{
nodes = (
"55 0 LINE",
"129 74 LINE",
"316 74 LINE",
"390 0 LINE"
);
},
{
nodes = (
"334 93 LINE",
"334 279 LINE",
"390 335 LINE",
"409 317 LINE",
"409 19 LINE"
);
},
{
nodes = (
"55 354 LINE",
"36 373 LINE",
"36 689 LINE",
"111 615 LINE",
"111 410 LINE"
);
},
{
nodes = (
"390 354 LINE",
"334 410 LINE",
"334 615 LINE",
"409 689 LINE",
"409 373 LINE"
);
},
{
nodes = (
"92 779 LINE",
"135 820 LINE",
"309 820 LINE",
"353 779 LINE",
"309 738 LINE",
"135 738 LINE"
);
}
);
width = 447;
}
);
unicode = 016A;
},
{
glyphname = umacron;
layers = (
{
layerId = "14D7FEEC-2E75-40D5-AE74-B547D0DC8BA7";
paths = (
{
nodes = (
"36 19 LINE",
"36 317 LINE",
"55 335 LINE",
"111 279 LINE",
"111 93 LINE"
);
},
{
nodes = (
"55 0 LINE",
"129 74 LINE",
"316 74 LINE",
"390 0 LINE"
);
},
{
nodes = (
"334 93 LINE",
"334 279 LINE",
"390 335 LINE",
"409 317 LINE",
"409 19 LINE"
);
},
{
nodes = (
"55 354 LINE",
"36 373 LINE",
"36 689 LINE",
"111 615 LINE",
"111 410 LINE"
);
},
{
nodes = (
"390 354 LINE",
"334 410 LINE",
"334 615 LINE",
"409 689 LINE",
"409 373 LINE"
);
},
{
nodes = (
"92 779 LINE",
"135 820 LINE",
"309 820 LINE",
"353 779 LINE",
"309 738 LINE",
"135 738 LINE"
);
}
);
width = 447;
}
);
unicode = 016B;
},
{
glyphname = Ubreve;
layers = (
{
layerId = "14D7FEEC-2E75-40D5-AE74-B547D0DC8BA7";
paths = (
{
nodes = (
"36 19 LINE",
"36 317 LINE",
"55 335 LINE",
"111 279 LINE",
"111 93 LINE"
);
},
{
nodes = (
"55 0 LINE",
"129 74 LINE",
"316 74 LINE",
"390 0 LINE"
);
},
{
nodes = (
"334 93 LINE",
"334 279 LINE",
"390 335 LINE",
"409 317 LINE",
"409 19 LINE"
);
},
{
nodes = (
"55 354 LINE",
"36 373 LINE",
"36 689 LINE",
"111 615 LINE",
"111 410 LINE"
);
},
{
nodes = (
"390 354 LINE",
"334 410 LINE",
"334 615 LINE",
"409 689 LINE",
"409 373 LINE"
);
},
{
nodes = (
"177 786 LINE",
"265 786 LINE",
"298 838 LINE",
"331 825 LINE",
"287 723 LINE",
"155 723 LINE",
"111 825 LINE",
"144 838 LINE"
);
}
);
width = 447;
}
);
unicode = 016C;
},
